<svg width="382" height="81" viewBox="0 0 382 81" fill="none" xmlns="http://www.w3.org/2000/svg">
<rect x="0.413086" y="0.0297852" width="79.9838" height="80.5349" rx="13.8283" fill="#34439B"/>
<path fill-rule="evenodd" clip-rule="evenodd" d="M33.5143 14.3054C39.938 12.2864 50.9705 13.566 48.7068 20.8938C44.971 32.9874 8.39129 51.0547 30.3747 70.1937C23.7427 59.8913 29.5614 49.0544 38.0679 40.8195C44.5192 34.5736 53.5782 23.9057 51.7197 17.9478C49.8759 12.0371 39.5532 11.6316 33.5143 14.3068" fill="white"/>
<path fill-rule="evenodd" clip-rule="evenodd" d="M33.5483 12.582C27.4673 10.1318 23.5522 12.8514 21.7171 15.2629C19.3485 18.3737 20.8483 24.2772 27.613 33.9965C18.6197 24.9449 16.6519 17.3779 19.4724 13.5807C21.6515 10.6476 27.2982 8.67593 33.5483 12.582Z" fill="white"/>
<path fill-rule="evenodd" clip-rule="evenodd" d="M11.9634 32.8175L22.6432 55.2135C23.0571 52.3177 24.2946 49.5121 25.9344 46.8741L18.0372 30.3701H10.7842" fill="white"/>
<path fill-rule="evenodd" clip-rule="evenodd" d="M40.3047 39.8486L40.3047 66.1609H46.9673L46.9673 49.8975H57.2872C60.1179 49.8975 62.4863 49.4075 64.393 48.4288C66.2997 47.4501 67.715 46.2078 68.639 44.7033C69.563 43.1987 70.0252 41.6656 70.0252 40.1066C70.0252 38.5476 69.563 37.0144 68.639 35.5099C67.715 34.0053 66.2894 32.7716 64.3639 31.8116C62.4367 30.8516 60.0785 30.3701 57.2888 30.3701L48.3492 30.3701C48.0941 30.7341 47.8332 31.098 47.5664 31.4577H55.3428C56.6795 31.4577 57.9666 31.8288 59.2052 32.5739C60.4444 33.3175 61.4454 34.3507 62.2126 35.6746C62.9793 36.9987 63.3623 38.4573 63.3623 40.0536C63.3623 41.6498 62.9793 43.173 62.2126 44.5141C61.4454 45.8553 60.4427 46.9071 59.2052 47.6694C57.9666 48.4302 56.6795 48.8114 55.3428 48.8114H46.9689L46.9689 32.2543C44.7504 35.1531 42.2885 37.8354 40.3061 39.8501" fill="white"/>
<path d="M30.3677 16.5713H30.3667C30.0682 16.5713 29.8262 16.8069 29.8262 17.0976L29.8262 25.7366C29.8262 26.0273 30.0682 26.263 30.3667 26.263H30.3677C30.6663 26.263 30.9083 26.0273 30.9083 25.7366L30.9083 17.0976C30.9083 16.8069 30.6663 16.5713 30.3677 16.5713Z" fill="white"/>
<path d="M32.8228 16.0059H32.8218C32.5233 16.0059 32.2812 16.2415 32.2812 16.5322L32.2812 29.8416C32.2812 30.1323 32.5233 30.368 32.8218 30.368H32.8228C33.1213 30.368 33.3634 30.1323 33.3634 29.8416L33.3634 16.5322C33.3634 16.2415 33.1213 16.0059 32.8228 16.0059Z" fill="white"/>
<path d="M37.9195 17.5337H37.9185C37.6227 17.5337 37.3828 17.7673 37.3828 18.0554L37.3828 24.9236C37.3828 25.2117 37.6227 25.4453 37.9185 25.4453H37.9195C38.2154 25.4453 38.4552 25.2117 38.4552 24.9236L38.4552 18.0554C38.4552 17.7673 38.2154 17.5337 37.9195 17.5337Z" fill="white"/>
<path d="M35.4703 16.7681H35.4693C35.1707 16.7681 34.9287 17.0037 34.9287 17.2944L34.9287 30.6039C34.9287 30.8946 35.1707 31.1302 35.4693 31.1302H35.4703C35.7688 31.1302 36.0108 30.8946 36.0108 30.6039L36.0108 17.2944C36.0108 17.0037 35.7688 16.7681 35.4703 16.7681Z" fill="white"/>
<path d="M28.2344 23.5252H28.4016L28.4016 19.2915H28.2344L28.2344 23.5252Z" fill="white"/>
<path d="M26.4404 22.9696H26.607V19.8535H26.4404V22.9696Z" fill="white"/>
<path d="M24.7803 22.4268H24.943V20.353H24.7803V22.4268Z" fill="white"/>
<path d="M23.3252 22.0742H23.4762V20.8491H23.3252V22.0742Z" fill="white"/>
<path d="M40.1418 18.9263H39.9746V23.16H40.1418V18.9263Z" fill="white"/>
<path d="M41.9341 19.4565H41.7676V22.5727H41.9341V19.4565Z" fill="white"/>
<path d="M43.5152 19.9878H43.3525V22.0616H43.5152V19.9878Z" fill="white"/>
<path d="M45.0338 20.4839H44.8828V21.709H45.0338V20.4839Z" fill="white"/>
<path d="M127.963 69.2608C126.442 69.2608 124.805 69.2378 123.054 69.1917C121.302 69.1917 119.62 69.1687 118.006 69.1226C116.439 69.0765 115.102 69.0304 113.996 68.9843C113.996 66.7717 114.019 64.3057 114.065 61.5861C114.111 58.8204 114.181 56.0548 114.273 53.2891C114.365 50.4773 114.457 47.9191 114.549 45.6144C112.014 42.2956 109.502 38.9307 107.013 35.5197C104.524 32.0626 102.242 28.836 100.168 25.8399C98.1397 22.8437 96.5034 20.3546 95.2588 18.3726C96.5955 17.9116 98.5085 17.4737 100.998 17.0589C103.533 16.5979 106.275 16.2061 109.225 15.8835C110.793 18.9718 112.844 22.6132 115.379 26.8078C117.96 31.0024 120.864 35.4967 124.091 40.2905C126.718 36.4185 129.253 32.4544 131.696 28.3981C134.186 24.3418 136.513 20.2394 138.68 16.0909L146.424 17.7503C144.903 20.2855 143.082 23.0972 140.961 26.1856C138.887 29.2739 136.652 32.4775 134.255 35.7963C131.904 39.069 129.553 42.2495 127.202 45.3378C127.341 47.5504 127.456 50.0395 127.548 52.8051C127.686 55.5247 127.778 58.3134 127.825 61.1713C127.917 63.983 127.963 66.6796 127.963 69.2608ZM158.602 69.4683C154.961 69.4683 151.665 68.6155 148.715 66.91C145.765 65.2045 143.414 62.8998 141.663 59.9959C139.957 57.0919 139.104 53.8653 139.104 50.316C139.104 47.5043 139.634 44.8769 140.695 42.4339C141.755 39.9909 143.23 37.8475 145.12 36.0037C147.056 34.1138 149.268 32.6618 151.757 31.6478C154.246 30.5876 156.897 30.0575 159.709 30.0575C163.35 30.0575 166.646 30.9103 169.596 32.6157C172.546 34.3212 174.874 36.626 176.579 39.5299C178.331 42.3878 179.207 45.6144 179.207 49.2098C179.207 52.0215 178.676 54.6489 177.616 57.0919C176.556 59.5349 175.058 61.7014 173.122 63.5912C171.232 65.435 169.043 66.887 166.554 67.9471C164.111 68.9612 161.46 69.4683 158.602 69.4683ZM160.607 63.8678C163.05 63.8678 164.963 62.8307 166.346 60.7564C167.729 58.6361 168.42 55.7091 168.42 51.9754C168.42 48.841 167.959 46.0523 167.038 43.6093C166.116 41.1663 164.848 39.2303 163.235 37.8014C161.621 36.3724 159.778 35.658 157.703 35.658C155.26 35.658 153.348 36.7182 151.965 38.8385C150.582 40.9128 149.89 43.8167 149.89 47.5504C149.89 50.6387 150.351 53.4274 151.273 55.9165C152.195 58.3595 153.463 60.2955 155.076 61.7244C156.735 63.1533 158.579 63.8678 160.607 63.8678ZM198.749 69.4683C188.47 69.4683 183.331 60.088 183.331 41.3276C183.331 38.1932 183.469 34.8283 183.746 31.2329C184.852 31.1407 186.35 31.0716 188.24 31.0255C190.176 30.9794 192.642 30.9563 195.638 30.9563C195.361 35.5658 195.223 39.6682 195.223 43.2636C195.223 50.3621 195.776 55.5938 196.882 58.9587C198.035 62.2775 199.786 63.9369 202.137 63.9369C203.704 63.9369 205.272 63.2916 206.839 62.001C208.452 60.7103 209.835 59.0048 210.987 56.8845C210.941 53.243 210.895 49.1637 210.849 44.6464C210.849 40.0831 210.849 35.4045 210.849 30.6106C212.739 30.6106 214.813 30.6337 217.072 30.6798C219.377 30.7259 221.266 30.795 222.741 30.8872C222.741 34.6209 222.718 38.4006 222.672 42.2264C222.672 46.0523 222.649 49.7168 222.603 53.22C222.603 56.7231 222.58 59.8576 222.534 62.6232C222.488 65.3428 222.442 67.4632 222.396 68.9843C220.598 69.0765 218.731 69.1456 216.795 69.1917C214.859 69.2378 212.993 69.2608 211.195 69.2608C211.149 68.1546 211.103 66.7256 211.057 64.9741C207.092 67.9702 202.99 69.4683 198.749 69.4683ZM241.197 69.2608C239.584 69.2608 237.74 69.2147 235.666 69.1226C233.637 69.0765 231.748 69.0304 229.996 68.9843C229.95 67.6014 229.904 65.6194 229.858 63.0381C229.812 60.4568 229.765 57.4607 229.719 54.0497C229.719 50.5926 229.696 46.905 229.65 42.987C229.65 39.0229 229.65 34.9896 229.65 30.8872C230.664 30.8411 231.909 30.795 233.384 30.7489C234.859 30.7028 236.334 30.6798 237.809 30.6798C239.284 30.6337 240.529 30.6106 241.543 30.6106C241.543 31.9474 241.543 33.2841 241.543 34.6209C243.34 33.1919 245.184 32.0857 247.074 31.3021C249.01 30.4724 250.877 30.0575 252.674 30.0575C255.025 30.0575 257.169 30.7028 259.105 31.9935C261.041 33.238 262.608 34.9435 263.806 37.11C265.051 39.2764 265.765 41.7194 265.95 44.439C264.106 45.0382 262.262 45.5683 260.418 46.0292C258.575 46.4902 256.823 46.8589 255.164 47.1355C255.164 45.0613 254.887 43.1483 254.334 41.3967C253.827 39.6452 253.135 38.2393 252.26 37.1791C251.384 36.1189 250.416 35.5888 249.356 35.5888C248.111 35.5888 246.728 36.3494 245.207 37.8705C243.686 39.3916 242.465 41.2585 241.543 43.471C241.497 49.325 241.45 54.5567 241.404 59.1662C241.358 63.7295 241.289 67.0944 241.197 69.2608ZM270.474 69.2608C270.474 62.8998 270.451 56.9306 270.404 51.3531C270.404 45.7296 270.381 40.6362 270.335 36.0728C270.335 31.5095 270.312 27.6145 270.266 24.3879C270.22 21.1613 270.174 18.7874 270.128 17.2663C272.847 16.8975 275.313 16.621 277.526 16.4366C279.785 16.2522 281.905 16.16 283.887 16.16C289.326 16.16 294.005 16.8284 297.923 18.1651C301.887 19.4558 304.929 21.3457 307.05 23.8348C309.17 26.2778 310.23 29.2048 310.23 32.6157C310.23 36.2111 309.055 39.4377 306.704 42.2956C304.399 45.1534 301.172 47.4351 297.024 49.1406C292.922 50.8461 288.174 51.791 282.781 51.9754C282.827 54.8333 282.85 57.6911 282.85 60.549C282.896 63.4068 282.919 66.2186 282.919 68.9843C281.352 69.0765 279.554 69.1456 277.526 69.1917C275.544 69.2378 273.193 69.2608 270.474 69.2608ZM281.813 21.6222C281.997 24.1574 282.158 27.6145 282.297 31.9935C282.481 36.3724 282.619 41.1663 282.712 46.3749C292.53 45.0382 297.439 40.9358 297.439 34.0677C297.439 30.2419 296.033 27.2227 293.221 25.0102C290.409 22.7515 286.607 21.6222 281.813 21.6222ZM326.989 69.4683C323.071 69.4683 319.868 68.5233 317.379 66.6335C314.936 64.6975 313.714 62.1853 313.714 59.097C313.714 56.2853 314.728 53.6809 316.756 51.284C318.831 48.8871 321.688 46.8589 325.33 45.1995C328.971 43.494 333.143 42.3186 337.845 41.6733C336.185 37.617 333.903 35.5888 331 35.5888C329.248 35.5888 326.989 36.2572 324.224 37.5939C321.458 38.9307 318.646 40.6823 315.788 42.8487L313.714 35.9345C320.582 32.0165 327.082 30.0575 333.212 30.0575C338.006 30.0575 341.855 31.3712 344.759 33.9986C347.663 36.5799 349.783 40.7284 351.12 46.4441C352.457 52.1137 353.125 59.6271 353.125 68.9843C352.249 69.0304 350.682 69.0765 348.423 69.1226C346.211 69.2147 343.814 69.2608 341.233 69.2608C341.233 67.7858 341.209 66.3338 341.163 64.9049C336.416 67.9471 331.691 69.4683 326.989 69.4683ZM325.122 58.613C325.122 60.042 325.676 61.1713 326.782 62.001C327.934 62.8307 329.455 63.2455 331.345 63.2455C334.664 63.2455 337.868 61.8166 340.956 58.9587C340.679 54.0727 340.149 49.9473 339.366 46.5824C337.568 46.9511 335.816 47.5504 334.111 48.3801C332.452 49.2098 330.93 50.2008 329.548 51.3531C328.211 52.4594 327.128 53.6579 326.298 54.9485C325.514 56.1931 325.122 57.4146 325.122 58.613ZM370.54 16.7823C370.448 19.4097 370.379 21.991 370.333 24.5262C370.287 27.0614 370.264 29.4122 370.264 31.5786C370.264 38.8615 370.471 44.8308 370.886 49.4863C371.347 54.0958 372.039 57.645 372.96 60.1341C373.882 62.5771 375.104 64.1905 376.625 64.9741L371.785 70.5054C369.296 70.2288 367.199 69.4222 365.493 68.0854C363.834 66.7026 362.497 64.6514 361.483 61.9318C360.469 59.1662 359.731 55.5938 359.27 51.2149C358.856 46.8359 358.648 41.4889 358.648 35.174C358.648 32.5466 358.671 29.6887 358.717 26.6004C358.809 23.466 358.902 20.2855 358.994 17.0589C360.331 16.9667 361.921 16.8975 363.765 16.8514C365.608 16.8053 367.867 16.7823 370.54 16.7823Z" fill="#34439B"/>
</svg>
