<svg xmlns="http://www.w3.org/2000/svg" width="40" height="40" fill="none" xmlns:v="https://vecta.io/nano"><path d="M28.417 33.8c-1.633 1.583-3.417 1.333-5.133.583-1.817-.767-3.483-.8-5.4 0-2.4 1.033-3.667.733-5.1-.583-8.133-8.383-6.933-21.15 2.3-21.617 2.25.117 3.817 1.233 5.133 1.333 1.967-.4 3.85-1.55 5.95-1.4 2.517.2 4.417 1.2 5.667 3-5.2 3.117-3.967 9.967.8 11.883-.95 2.5-2.183 4.983-4.233 6.817l.017-.017zm-8.367-21.717C19.801 8.367 22.817 5.3 26.284 5c.483 4.3-3.9 7.5-6.233 7.083z" fill="#fff"/></svg>