<svg xmlns="http://www.w3.org/2000/svg" width="24" height="24" fill="none" xmlns:v="https://vecta.io/nano"><path d="M13.125 19.3l6.6-6.6c.1-.1.171-.208.213-.325A1.08 1.08 0 0 0 20 12a1.1 1.1 0 0 0-.063-.375.89.89 0 0 0-.212-.325l-6.6-6.6c-.183-.183-.413-.279-.688-.287a.93.93 0 0 0-.712.287c-.2.183-.304.413-.313.688s.087.513.288.712l4.9 4.9H5.425c-.283 0-.521.096-.713.288s-.288.429-.287.712a.97.97 0 0 0 .287.713c.191.192.429.288.713.287H16.6l-4.9 4.9c-.183.183-.279.417-.288.7s.087.517.288.7c.183.2.417.3.7.3s.525-.1.725-.3z" fill="#3f51b5"/></svg>