<svg xmlns="http://www.w3.org/2000/svg" width="40" height="40" fill="none" xmlns:v="https://vecta.io/nano"><g clip-path="url(#A)" fill="#3f51b5"><path d="M39.988 17.356a14.02 14.02 0 0 0-.179-2.147c-1.095-6.61-7.219-11.2-13.9-10.441-.178.021-.358.024-.598.039 0-.594.026-1.139-.006-1.681A3.11 3.11 0 0 0 23.69.482C23.319.266 22.884.157 22.48 0H2.881a.46.46 0 0 0-.023.015.25.25 0 0 1-.027.017C.862.564.002 1.686.002 3.704V22.02L0 36.537a3.57 3.57 0 0 0 .004.186 1.68 1.68 0 0 0 .005.09l.006.089a.78.78 0 0 0 .004.046l.018.156a2.11 2.11 0 0 0 .021.134l.017.091a1.57 1.57 0 0 0 .018.087 2.32 2.32 0 0 0 .036.142c.007.027.015.054.023.082l.014.044a1.18 1.18 0 0 0 .018.057 2.86 2.86 0 0 0 .058.158 2.57 2.57 0 0 0 .062.146c.01.022.02.045.031.067l.033.066a2.34 2.34 0 0 0 .033.062l.034.062.046.078a2.75 2.75 0 0 0 .073.114c.015.024.031.047.048.07l.053.074.05.065.055.07c.013.017.015.018.016.019l.051.06.046.051a3.75 3.75 0 0 0 .123.13 3.73 3.73 0 0 0 .14.134 2.75 2.75 0 0 0 .192.16c.058.044.118.086.178.124l.089.054c.026.016.053.031.08.046.009.006.014.008.018.01a3.65 3.65 0 0 0 .087.046 1.75 1.75 0 0 0 .087.043.94.94 0 0 1 .05.023c.017.008.034.015.05.022l.101.043a5.09 5.09 0 0 0 .226.086l.231.076.176.052.177.049h19.598c.15-.048.298-.101.449-.143a3.29 3.29 0 0 0 2.367-2.784c.02-.181.034-.362.048-.514.054-.033.066-.046.076-.046a3.24 3.24 0 0 1 .198.02c2.811.379 5.491-.055 7.942-1.486 4.196-2.452 6.325-6.165 6.43-11.015.048-2.225.022-4.451 0-6.676h.002zm-17.908 21.3c-.146.007-.293.004-.439.004H3.644c-1.554 0-2.302-.75-2.302-2.307V3.634c0-1.537.751-2.295 2.275-2.295h18.076c1.553 0 2.302.752 2.303 2.308l.003 1.2c.006.208-.063.31-.272.364-.333.086-.658.206-1.067.339V4.303c-.001-1.168-.477-1.64-1.654-1.641-.533-.001-1.066-.008-1.599.002-.862.016-1.383.546-1.405 1.411-.03 1.21-.075 1.254-1.283 1.254-2.799 0-5.598 0-8.398-.001-.807 0-.98-.176-.982-.988-.003-1.208-.467-1.677-1.662-1.678-.52-.001-1.04-.006-1.56.001-.908.011-1.445.541-1.452 1.444l-.002 2.92.008 28.678c0 .322.051.677.193.959.266.53.77.678 1.346.678l10.358-.004h6.238c1.341 0 1.634-.233 1.906-1.542.378.122.758.233 1.127.37.071.026.138.152.149.238.138 1.176-.728 2.193-1.91 2.251zm-7.399-14.682c.091 4.807 2.216 8.471 6.318 10.97.464.283.312.63.326 1.041H4.029V4.022h1.978l.001.674c.03 1.092.836 1.946 1.923 1.953h9.476c1.011-.006 1.786-.754 1.902-1.761.032-.276.033-.554.05-.861h1.978c0 .673.013 1.348-.013 2.022-.004.101-.167.222-.282.29-2.272 1.33-3.991 3.172-5.136 5.545-.838 1.734-1.231 3.57-1.231 5.492l.007 6.598zm23.874 1.418c-.375 4.262-3.73 8.266-7.864 9.423-4.374 1.223-8.246.287-11.473-2.93-2.055-2.047-3.131-4.589-3.197-7.498-.056-2.465-.041-4.932-.006-7.398.072-5.281 4.15-9.974 9.37-10.826 5.469-.893 10.604 2.058 12.578 7.239.435 1.143.666 2.334.683 3.557l.004 3.719h.048c-.043 1.571-.006 3.15-.144 4.713v.001zm-5.985-.368l-1.73-1.542-3.158-2.805.307-.289 4.565-4.069c.684-.612.671-1.382-.017-1.95L28.1 10.703c-.433-.359-.896-.539-1.434-.276-.518.253-.672.702-.67 1.257L26 18.681l-.023.503-.389-.322-3.068-2.623c-.35-.298-.743-.289-.995 0-.266.306-.211.715.142 1.02l1.489 1.272 2.483 2.135-1.904 1.635-2.151 1.85c-.309.27-.339.69-.103.965.226.262.617.288.941.058.076-.054.146-.118.216-.178l3.031-2.604c.084-.071.183-.125.333-.226v.51l-.005 6.957c-.002.57.153 1.028.69 1.286.529.254.978.068 1.396-.279l4.436-3.665c.703-.584.722-1.338.05-1.951v.001zM27.895 12.27l3.202 2.637.54.444-.001.001-.862.767-2.601 2.315-.544.485-.275.245v-7.338l.54.445zm.006 16.789l-.546.45v-7.336l.137.122.947.842 3.201 2.845-3.738 3.078zM5.968 14.776c-.22-.19-.451-.314-.57-.508-.162-.263-.063-.539.158-.76l2.258-2.264 2.91-2.91.086-.084c.333-.296.735-.306 1.002-.025.247.261.23.667-.066.97l-1.975 1.982-3.14 3.134c-.171.169-.397.282-.661.466v-.001zm1.434-6.804c.154.122.408.228.489.411s.076.518-.042.655a16.95 16.95 0 0 1-1.482 1.502c-.237.214-.557.176-.802-.049-.256-.234-.348-.566-.12-.823.483-.546 1.02-1.044 1.546-1.55.078-.074.219-.082.412-.147zm6.909-3.977c-.318 0-.638.01-.955-.002-.402-.015-.67-.27-.687-.63-.018-.372.254-.679.668-.691h1.99c.405.011.687.327.67.692-.017.355-.293.608-.69.633l-.079.002c-.305 0-.61 0-.915-.001l-.001-.002zm-4.027.009c-.146-.009-.295.002-.435-.031-.325-.077-.496-.302-.501-.631-.005-.31.134-.575.446-.622a3.61 3.61 0 0 1 1.062-.006c.325.05.485.325.47.648s-.201.548-.526.614c-.167.034-.343.02-.516.028l-.001.001z"/></g><defs><clipPath id="A"><path fill="#fff" d="M0 0h40v40H0z"/></clipPath></defs></svg>