<svg xmlns="http://www.w3.org/2000/svg" width="40" height="40" fill="#3f51b5" xmlns:v="https://vecta.io/nano"><path d="M35.521 20.503l-.08-.387-.091-.385-.1-.381-.054-.191-.115-.379-.124-.375-.352-.926-.158-.364-.082-.181-.172-.359-.181-.354-.289-.524-.31-.515-.218-.337c-.371-.558-.781-1.095-1.228-1.607l-.273-.303-.572-.589-.299-.286-.205-.186-.42-.366-.431-.363-.439-.367-.222-.188 1.22-2.047c.012-.02.036-.036.066-.05.007-.004.017-.006.025-.01a.29.29 0 0 1 .05-.014l.03-.007.066-.008.07-.002a.31.31 0 0 1 .055.004c.015.002.018.002.022.004.252.056.501.074.738.056l.2-.024.121-.023.157-.041.134-.046.066-.027.189-.091.095-.057c.016-.009.031-.02.047-.03l.089-.064.13-.111.026-.024a1.72 1.72 0 0 0 .392-.57c.319-.747.161-1.517-.396-2.073l-.1-.093-.107-.089-.071-.053-.15-.1-.08-.047-1.886-1.059-.634-.345c-1-.54-2.028-.364-2.647.431-.607.78-.505 1.769.249 2.559.075.079.15.255.11.326l-.453.787-.306.516-.454.761-3.3-1.035-.003-3.799c0-.057.006-.106.018-.146a.23.23 0 0 1 .023-.053.19.19 0 0 1 .077-.073l.026-.012c.009-.004.026-.01.041-.013a.66.66 0 0 1 .149-.013h1.247c.269-.005.442-.055.542-.179a.48.48 0 0 0 .078-.149.62.62 0 0 0 .017-.062 1.13 1.13 0 0 0 .022-.224l.002-.223.007-1.005v-.072L25.112.85 25.11.623l-.002-.041-.002-.04c-.012-.183-.059-.312-.151-.397a.32.32 0 0 0-.041-.034c-.014-.01-.023-.015-.035-.022a.45.45 0 0 0-.08-.036l-.044-.014c-.031-.009-.065-.016-.1-.021l-.114-.011-.084-.003-1.971-.001a3886.82 3886.82 0 0 0-7.913.001c-.25.001-.418.042-.522.143l-.037.039-.03.047a.6.6 0 0 0-.05.126.94.94 0 0 0-.022.115l-.005.043-.005.13-.004 1.846.004.615.002.097a1.27 1.27 0 0 0 .017.166c.011.062.026.115.047.161s.049.084.083.116a.37.37 0 0 0 .096.064.51.51 0 0 0 .059.024c.104.035.242.049.422.051l.629.003.876-.002-.005 3.311-.006.634c-.001.09-.127.229-.224.26l-.378.116-.759.231-1.452.432-.486.144-.48-.804-.824-1.381.038-.037.109-.103.15-.145.06-.061c.6-.636.658-1.659.135-2.358-.071-.096-.15-.183-.236-.264a2.01 2.01 0 0 0-.373-.278 2.04 2.04 0 0 0-.352-.162l-.122-.038-.063-.016-.109-.023c-.139-.026-.282-.036-.423-.028l-.094.007-.199.032-.043.01a1.7 1.7 0 0 0-.205.064l-.066.028-.095.045-3.036 1.699a1.93 1.93 0 0 0-.29.223l-.043.041-.041.042c-.08.085-.151.176-.211.272-.446.707-.347 1.662.317 2.299a2.06 2.06 0 0 0 .555.387l.168.068.086.028.13.033.132.023.068.008.102.008h.048.156l.109-.008.215-.03.044-.009.159-.036.163-.047.117-.038.335.561.334.56.668 1.121-.433.347c-.532.397-1.034.822-1.504 1.275l-.151.148-.437.453c-.38.412-.735.844-1.067 1.3a1.38 1.38 0 0 1-.127.151l-.089.079c-.03.023-.061.044-.092.063l-.036.02-.076.033-.04.013c-.437.801-.262.364-.574 1.094l-.159.366-.353.666-.217.45-.071.157-.136.315-.104.258c-1.151 2.924-1.545 6.404-.565 9.407l.39 1.127.277.746.285.743.144.37c.099.256.235.499.381.771l.111.209c.283.548.606.929.978 1.426a17.28 17.28 0 0 0 2.254 2.484l.437.38.148.123.3.239.615.455.315.216.16.105.323.203c1.738 1.064 3.695 1.787 5.872 2.158l.364.058.181.026.544.066 1.083.08.359.012c4.697.098 9.101-1.754 12.213-4.998a16.87 16.87 0 0 0 .406-.439 13.48 13.48 0 0 0 .39-.456 15.21 15.21 0 0 0 .554-.712 14.46 14.46 0 0 0 .348-.494 14.65 14.65 0 0 0 .331-.509 9.32 9.32 0 0 0 .159-.26 15.62 15.62 0 0 0 .588-1.077 15.8 15.8 0 0 0 .511-1.133 13.33 13.33 0 0 0 .222-.584c.116-.325.221-.653.314-.984l.095-.353.086-.354.04-.178a14.56 14.56 0 0 0 .137-.712 12.96 12.96 0 0 0 .08-.537l.042-.359.034-.358a15.38 15.38 0 0 0-.232-4.2l-.003.002zM27.745 4.949a1.17 1.17 0 0 1 .049-.141c.006-.017.015-.034.023-.051l.014-.027c.007-.016.017-.031.026-.046s.017-.03.027-.043l.001-.001c.006-.01.013-.02.02-.029a.8.8 0 0 1 .072-.084l.02-.02c.007-.007.017-.016.026-.023s.018-.016.029-.023c.018-.013.036-.027.055-.039a.72.72 0 0 1 .103-.056.31.31 0 0 1 .032-.014c.011-.004.026-.012.04-.016s.026-.01.04-.013.033-.012.05-.016.038-.01.058-.014c.009-.003.019-.004.028-.006a1.02 1.02 0 0 1 .083-.015 2.1 2.1 0 0 1 .097-.012c.154.062.39.132.599.246l2.388 1.339a1.48 1.48 0 0 1 .123.078c.013.009.025.018.037.027.023.017.045.035.066.053.015.013.03.025.044.038l.04.038c.027.027.051.054.072.081.012.014.022.029.032.043a.36.36 0 0 1 .039.059.73.73 0 0 1 .054.107c.008.018.015.036.02.054a.7.7 0 0 1 .027.111c.004.019.005.038.007.056a.6.6 0 0 1 0 .098c0 .014-.002.029-.004.044-.001.009-.002.018-.004.027a.4.4 0 0 1-.016.075c-.005.017-.009.035-.015.052a.86.86 0 0 1-.068.155.82.82 0 0 1-.169.218c-.01.009-.02.019-.031.028l-.032.026a.91.91 0 0 1-.069.047.74.74 0 0 1-.036.021c-.012.006-.025.013-.038.019a.68.68 0 0 1-.116.045l-.041.011a.87.87 0 0 1-.084.016l-.044.005c-.014 0-.029.002-.043.003a.7.7 0 0 1-.087 0l-.043-.003c-.014-.001-.028-.002-.042-.004h-.002a.58.58 0 0 1-.044-.007c-.007 0-.015-.002-.022-.004s-.015-.003-.022-.004a.5.5 0 0 1-.05-.012l-.038-.011-.004-.001-.042-.013a1.58 1.58 0 0 1-.144-.058.91.91 0 0 1-.072-.037l-1.318-.73-1.313-.739a1.15 1.15 0 0 1-.099-.062.84.84 0 0 1-.125-.104.76.76 0 0 1-.047-.052.26.26 0 0 1-.022-.027c-.006-.009-.014-.018-.019-.027s-.013-.019-.018-.029-.011-.019-.017-.029a.57.57 0 0 1-.029-.059.44.44 0 0 1-.017-.046c-.005-.01-.006-.016-.007-.021a.49.49 0 0 1-.016-.066.64.64 0 0 1-.008-.06.58.58 0 0 1-.004-.069c0-.081.014-.165.04-.255zm-.463 4.215l.251-.422.317-.532.143-.241.441-.74.19.108.188.107.379.215.308.175-1.31 2.198-.133-.074-.933-.522.08-.136.08-.136-.001.001zm-12.29-8.071h9.004c.018.08.039.123.038.165l-.04 1.421c-.47.024-.94.067-1.409.069l-5.26.004c-.585 0-1.169-.001-1.753-.001h-.58V1.093zm2.269 2.722h4.481v3.867h-4.481V3.814zM8.794 7.007l-.711.388a.48.48 0 0 1-.091.038c-.031.01-.064.018-.094.024l-.068.013a1.26 1.26 0 0 0-.099.019 1.42 1.42 0 0 1-.067-.004c-.013-.001-.026-.002-.038-.004s-.03-.004-.044-.005c-.007 0-.015-.002-.022-.004s-.015-.002-.022-.004a.47.47 0 0 1-.04-.008c-.013-.003-.036-.008-.054-.013l-.023-.006a.31.31 0 0 1-.043-.014c-.009-.003-.018-.006-.027-.01a.73.73 0 0 1-.145-.073c-.009-.005-.019-.012-.029-.019a.7.7 0 0 1-.085-.07.81.81 0 0 1-.084-.096.94.94 0 0 1-.127-.236.78.78 0 0 1-.022-.065c-.015-.047-.026-.094-.033-.14a.84.84 0 0 1-.009-.089c0-.008-.001-.015-.001-.024-.002-.031 0-.064.003-.094 0-.012.002-.022.004-.033s.003-.021.006-.032.005-.026.008-.038a.53.53 0 0 1 .023-.074c.009-.026.021-.052.035-.076a.72.72 0 0 1 .046-.071.71.71 0 0 1 .042-.05 1.04 1.04 0 0 1 .047-.047.48.48 0 0 1 .026-.021c.008-.006.015-.012.022-.017.02-.016.043-.03.067-.045a58.81 58.81 0 0 1 2.947-1.65c.416-.216.889-.006 1.097.384a.77.77 0 0 1 .041.093.46.46 0 0 1 .017.048c.011.037.017.059.02.081s.005.025.006.034a.47.47 0 0 1 .005.033c.001.007.002.014.002.021l.001.004a.72.72 0 0 1 0 .154.49.49 0 0 1-.004.038l-.006.038a.86.86 0 0 1-.017.073l-.022.072c-.006.016-.012.031-.019.047a.28.28 0 0 1-.021.045.34.34 0 0 1-.022.039.31.31 0 0 1-.025.038c-.005.007-.009.014-.015.021a.25.25 0 0 1-.02.027.36.36 0 0 1-.032.038.45.45 0 0 1-.036.036.69.69 0 0 1-.125.093l-1.056.603-.531.295-.534.294zm.718.837l1.047-.615.001-.001.327.549.326.546.329.549.334.559-1.053.608-.166-.277-.246-.412-.899-1.505zm9.999 30.313c-8.4.014-15.21-6.568-15.229-14.718-.019-8.139 6.767-14.74 15.181-14.768 8.425-.028 15.248 6.569 15.25 14.744 0 8.158-6.773 14.729-15.202 14.742zm-.032-26.282c-6.575.018-11.89 5.167-11.898 11.527-.008 6.368 5.347 11.568 11.914 11.568s11.912-5.173 11.909-11.561c-.004-6.395-5.336-11.552-11.925-11.534zm.553 21.967l.002-2.348c.003-.305-.105-.527-.432-.595-.351-.072-.631.167-.642.574-.016.626-.006 1.253-.006 1.879v.482c-5.065.006-10.09-4.363-10.237-9.891h2.018c.17 0 .339.004.508-.005.353-.019.548-.213.537-.545-.011-.312-.216-.489-.543-.493l-2.032-.007h-.491c.136-5.086 4.581-9.741 10.24-9.922v1.448c0 .329-.008.657.006.985s.191.541.547.535.522-.217.523-.552l.001-2.441c2.653.14 4.917 1.051 6.816 2.763 2.127 1.92 3.292 4.294 3.463 7.184h-1.998l-.507.004c-.365.006-.597.167-.586.539.01.344.232.504.576.506l1.94.003h.498c.129 4.681-4.412 9.835-10.2 9.899zm.002-10.95h2.188l.461.009c.335.021.502.212.499.525-.003.29-.157.498-.471.502h-3.225c-.354-.005-.522-.244-.523-.566l.003-4.377c.002-.323.177-.544.538-.542.393.001.531.241.531.587l.002 3.304v.556l-.002.001z"/></svg>