<svg xmlns="http://www.w3.org/2000/svg" width="40" height="40" fill="#3f51b5" xmlns:v="https://vecta.io/nano"><path d="M36.806 10.486L36.81.973l-.002-.082-.002-.05-.002-.028-.002-.028-.001-.008-.003-.03-.004-.03V.714l-.01-.062C36.781.63 36.776.61 36.771.59l-.018-.068-.023-.066L36.706.4c-.01-.022-.022-.046-.036-.067l-.038-.057a.72.72 0 0 0-.093-.106.29.29 0 0 0-.027-.024.51.51 0 0 0-.058-.046h-.001l-.066-.042-.035-.02-.037-.019L36.278 0H3.642C3.24.184 3.12.503 3.12.934v38.131c0 .431.122.75.522.934h32.636a.95.95 0 0 0 .26-.17.73.73 0 0 0 .049-.051l.03-.037.026-.035a.69.69 0 0 0 .026-.039c.006-.009.01-.018.015-.027l.01-.018c.004-.006.009-.018.013-.026l.015-.034.01-.026.03-.092.012-.048.01-.05.008-.051.006-.05.006-.057.004-.078.002-.082-.003-9.514V10.486zm-22.2-9.088l.408-.019 9.878-.01c.374-.002.473.108.463.471l-.011.64.001 1.925V4.6l-.021.412H14.606V1.398zm-.549 5h11.796c.61-.001.847-.24.854-.846l.001-1.29h5.849v31.47H7.374V4.257h5.837l.001 1.286c.008.617.239.854.846.855zm21.384 31.796c0 .322-.078.434-.42.434l-30.114-.001c-.016 0-.031 0-.046-.001l-.034-.002-.037-.002-.027-.003-.027-.004c-.028-.004-.053-.01-.075-.019a.29.29 0 0 1-.065-.033c-.021-.014-.037-.03-.05-.048a.25.25 0 0 1-.035-.065.27.27 0 0 1-.009-.027l-.006-.024-.008-.04-.006-.042-.005-.114V1.806l.001-.044.002-.041a.51.51 0 0 1 .007-.074c.002-.022.004-.027.006-.032l.006-.03.013-.04a.15.15 0 0 1 .012-.026c.009-.019.02-.036.034-.051.008-.009.016-.017.025-.024.018-.014.038-.026.062-.036s.03-.012.04-.014a.41.41 0 0 1 .044-.01.49.49 0 0 1 .038-.006.18.18 0 0 1 .034-.003.28.28 0 0 1 .038-.002c.019-.002.038-.002.059-.002h7.918a1.1 1.1 0 0 1 .107.005c.03.002.058.006.084.013a.44.44 0 0 1 .038.011l.03.012c.018.008.033.017.046.028a.15.15 0 0 1 .03.027l.019.024a.29.29 0 0 1 .044.13c.004.037.006.078.004.124l-.002.038c-.017.236-.013.474-.009.732l.003.362H6.994a3.68 3.68 0 0 0-.218.006l-.065.005-.062.006-.058.007a.9.9 0 0 0-.139.027l-.051.014a.53.53 0 0 0-.054.019c-.018.007-.036.015-.052.024a.69.69 0 0 0-.048.028c-.007.004-.014.009-.02.014a.26.26 0 0 0-.023.018l-.03.026a.42.42 0 0 0-.051.061c-.014.02-.028.042-.039.065l-.017.036a.57.57 0 0 0-.015.039l-.014.04a.29.29 0 0 0-.009.031c-.006.018-.01.038-.014.058a1.25 1.25 0 0 0-.011.062 1.53 1.53 0 0 0-.009.067.93.93 0 0 0-.007.071 3.25 3.25 0 0 0-.007.133 4.3 4.3 0 0 0-.002.147V36.12v.12l.003.107a1.3 1.3 0 0 0 .008.1.95.95 0 0 0 .006.047 1 1 0 0 0 .017.098l.007.031a.63.63 0 0 0 .011.042c.01.037.023.07.038.102l.01.021a.19.19 0 0 0 .015.028c.011.02.023.038.036.055a.4.4 0 0 0 .049.056c.07.07.162.118.276.15l.044.011.095.017a1.98 1.98 0 0 0 .281.018H33.03c.688 0 .908-.22.908-.912V3.813a1.84 1.84 0 0 0-.045-.449l-.026-.086-.021-.049-.026-.05-.023-.037a.43.43 0 0 0-.028-.036.42.42 0 0 0-.071-.069l-.029-.022a.53.53 0 0 0-.05-.031c-.024-.013-.049-.025-.075-.034a.69.69 0 0 0-.075-.024l-.022-.006a.99.99 0 0 0-.052-.011.61.61 0 0 0-.089-.015l-.062-.006a1.01 1.01 0 0 0-.102-.007l-.062-.002-.065-.001-5.799-.001h-.502l.015-1.322c.021-.041.034-.053.049-.064.005-.004.01-.008.017-.012l.019-.012c.006-.004.014-.008.021-.012a.35.35 0 0 1 .038-.018l.028-.012a.33.33 0 0 1 .041-.014l.033-.01.022-.006a.35.35 0 0 1 .058-.007l3.119-.008 3.111.002 1.138-.004.59-.005.058.001.026.001a.69.69 0 0 1 .077.008l.026.005a.19.19 0 0 1 .025.006.24.24 0 0 1 .038.012c.012.004.024.009.034.015l.03.018c.01.007.018.014.026.022s.016.016.022.026.013.019.018.03c.012.022.021.046.028.073l.009.044s.006.031.006.048l.005.086a.3.3 0 0 1 .001.03l-.005 9.099.004 27.299zM28.269 9.275c-.002-.748-.206-.956-.945-.957h-3.678-3.678-3.718l-3.718.002c-.643 0-.878.23-.881.861v2.918c.003.614.24.855.846.856h14.912c.626 0 .856-.238.859-.881V9.275h.001zm-1.375 2.287H13.041V9.714h13.854v1.849zm-2.941 7.967h-6.038c-.133 0-.268.007-.399-.012-.334-.049-.593-.338-.577-.664a.65.65 0 0 1 .542-.654c.141-.032.291-.022.438-.023h12.076c.66 0 .983.216.995.662.013.465-.314.691-.999.691h-6.038.001zm-.019 7.165c-1.997 0-3.994 0-5.991-.002-.159 0-.322 0-.476-.034a.62.62 0 0 1-.526-.658c.004-.343.202-.573.543-.648.141-.031.291-.029.437-.029h12.063c.67 0 1.012.239 1.006.697s-.339.675-1.025.675h-6.031-.001zm-.014 7.15h-5.994c-.133 0-.268.007-.399-.01-.327-.044-.585-.335-.593-.654a.69.69 0 0 1 .602-.686c.118-.015.239-.009.359-.009h12.147c.12 0 .242-.006.359.01a.68.68 0 0 1 .589.694.68.68 0 0 1-.598.645c-.131.017-.266.01-.399.01H23.92v-.001zm-2.082-11.622l3.875.001c.146 0 .296-.004.438.026.329.069.506.297.521.621a.61.61 0 0 1-.467.661c-.162.047-.342.05-.513.05l-7.75.002c-.67 0-1.015-.24-1.006-.696.009-.45.326-.664.988-.665h3.915 0zm-.039 7.142h4.037c.523.001.849.274.841.695-.008.415-.308.664-.825.664h-8.074c-.534 0-.854-.267-.846-.688.008-.412.339-.671.869-.672h3.997l.002.001zm-.041-12.947h-3.834c-.133 0-.267.006-.398-.011-.33-.042-.597-.331-.587-.652.01-.343.185-.583.528-.66.154-.034.318-.028.477-.028l7.707-.001.319.003c.439.03.723.314.706.704-.016.37-.302.638-.725.641l-4.193.004h-.001zM11.041 25.11l2.117-2.152.821-.818c.318-.304.725-.317.998-.044s.27.689-.038.999l-3.336 3.334c-.362.357-.718.345-1.086-.012L9.16 25.06c-.311-.323-.309-.722-.022-.993.278-.262.696-.246 1 .062l.902.981h.001zm-.02 7.158l2.687-2.705.313-.308c.321-.281.686-.278.962.002.264.267.268.666-.023.965l-2.056 2.066-1.303 1.294c-.385.366-.694.36-1.076-.01l-1.358-1.353c-.312-.32-.317-.714-.034-.992.278-.271.686-.266.994.046l.893.994.002.001zm.007-14.302l2.475-2.505.51-.506c.297-.269.715-.265.972-.002.25.256.268.66-.006.938l-3.418 3.421c-.314.31-.681.298-.997-.006l-1.388-1.382c-.319-.328-.333-.717-.058-.992.294-.294.68-.278 1.027.049l.452.452c.134.149.251.312.427.534h.002z"/></svg>