<svg xmlns="http://www.w3.org/2000/svg" width="40" height="40" fill="none" xmlns:v="https://vecta.io/nano"><g clip-path="url(#A)"><path d="M39.983 19.345l-.029-.642-.059-.733-.036-.33-.154-1.054-.057-.31-.042-.211-.09-.415-.1-.413-.072-.274-.102-.364-.051-.172-.155-.491c-.224-.673-.487-1.336-.79-1.991l-.27-.559-.441-.83a.52.52 0 0 1 .018-.635l.09-.154.031-.058.057-.115.026-.058a2.25 2.25 0 0 0 .109-.311c.159-.587.061-1.186-.29-1.762l-.039-.063-.082-.122-.086-.118-.045-.057-.093-.109-.097-.103-.101-.097c-.368-.333-.813-.53-1.314-.5l-.1.009a1.81 1.81 0 0 0-.206.037 2.4 2.4 0 0 1-.249.046l-.119.011a1.46 1.46 0 0 1-.474-.042l-.064-.018-.122-.046-.058-.027-.076-.04c-.066-.038-.131-.082-.194-.13l-.134-.114-.066-.062-.131-.136-.069-.079c-.009-.01-.018-.02-.028-.028-.029-.028-.062-.052-.094-.075-.213-.157-.277-.324-.206-.612a2.25 2.25 0 0 0 .024-.978l-.033-.14-.02-.07-.046-.136-.026-.067-.059-.132-.033-.065-.11-.188-.062-.091-.05-.066-.107-.13-.057-.062c-.138-.146-.297-.279-.474-.396-.814-.538-1.841-.507-2.653.107-.203.154-.356.159-.574.054C26.496 1.387 23.789.811 20.964.8c-.66-.002-1.313.026-1.96.087l-.266.027-.198.022-.396.051-.198.029-.59.098-.195.037-.649.138-.642.162-1.018.308-.253.086-.252.09-.5.191-1.235.547c-.202.098-.369.193-.607-.006l-.179-.138a2.49 2.49 0 0 0-.278-.173l-.19-.092c-.096-.042-.193-.076-.291-.103l-.195-.046c-.58-.109-1.177.023-1.71.388-.896.614-1.256 1.649-.913 2.71.076.234.019.356-.144.514l-.385.378-.238.238-.238.24-.472.482-.189.193-.046.051a.81.81 0 0 0-.075.104l-.028.053a.5.5 0 0 0-.031.355l.015.046c.012.03.026.062.043.092a.88.88 0 0 0 .062.092c.022.029.045.054.07.078.016.016.033.03.05.043.138.106.305.133.472.084.047-.014.094-.034.14-.059l.039-.024c.057-.035.112-.08.166-.134l1.074-1.087.354-.366.03-.03c.03-.027.058-.049.087-.064.076-.04.15-.038.242-.004.018.006.037.014.057.024.01.004.019.009.03.014a2.95 2.95 0 0 0 .446.182l.149.042.159.034.223.03a2.34 2.34 0 0 0 .279.008c.027 0 .053-.002.079-.004l.15-.015.178-.031a2.3 2.3 0 0 0 .263-.075l.083-.031.17-.077.182-.102.118-.078.114-.086a2.38 2.38 0 0 0 .218-.197 2.77 2.77 0 0 0 .294-.352l.051-.067.017-.019c.006-.006.011-.012.018-.018.098-.096.199-.114.369-.062l.712.225.528.182.522.194.346.135a26.87 26.87 0 0 1 3.342 1.623.52.52 0 0 1 .114.086c.015.015.028.03.039.047.058.084.067.185.066.318-.004.368-.002.754.103 1.101.077.251.031.392-.11.538l-.074.069-.374.337-.368.342-.241.233a24.91 24.91 0 0 0-2.637 3.023c-.025.034-.049.062-.074.089-.033.034-.066.062-.099.085h-.001c-.026.016-.051.03-.079.041l-.029.01c-.018.006-.038.01-.058.014-.066.01-.139.01-.225-.002l-.104-.012-.07-.006c-.166-.012-.326-.01-.479.007l-.09.011h-.001c-.094.014-.186.033-.276.058l-.132.042-.129.05c-.212.09-.408.214-.587.373l-.105.099-.102.107-.144.176-.09.128a.97.97 0 0 1-.064.086.78.78 0 0 1-.065.07l-.034.03a.47.47 0 0 1-.047.034l-.049.029a.59.59 0 0 1-.051.023l-.054.018c-.074.02-.156.028-.25.029l-.403.006-.302.007-.904.038-.301.018-.602.046-.3.027c-1.199.113-2.392.294-3.576.538l-.154.025-.125.008c-.014 0-.029 0-.042-.001-.152-.008-.277-.06-.389-.177l-.06-.07-.058-.084-.042-.059a.62.62 0 0 0-.046-.058l-.051-.054a1.51 1.51 0 0 0-.171-.149l-.122-.086-.022-.015a.48.48 0 0 1-.073-.061c-.094-.098-.099-.207-.043-.358l1.094-2.914c.257-.61.647-1.165.925-1.768a.89.89 0 0 0 .054-.481l-.009-.046c-.01-.045-.023-.088-.041-.126l-.018-.038a.2.2 0 0 0-.035-.046c-.03-.034-.074-.064-.123-.09l-.051-.024c-.035-.015-.073-.028-.11-.038l-.076-.017-.073-.009c-.038-.002-.073-.001-.105.005-.058.01-.115.04-.171.082l-.047.038c-.041.036-.079.078-.114.121l-.05.065-.066.098c-.918 1.496-1.617 3.09-2.086 4.782l-.042.146a.6.6 0 0 1-.026.066c-.015.031-.033.06-.054.086l-.021.022c-.015.014-.032.026-.051.038l-.03.016a.62.62 0 0 1-.051.02l-.062.015-.046.007c-1.149.137-1.916.911-2.081 2.043A2.27 2.27 0 0 0 .664 19.2l.126.118c.066.057.136.11.21.162.061.042.125.082.191.119l.206.104.086.037.056.026c.018.008.034.018.049.027l.029.019c.022.014.042.031.058.048a.26.26 0 0 1 .025.028c.015.018.027.038.038.058.041.083.048.182.051.303.022.917.1 1.81.231 2.679l.038.237.127.702.112.521.093.386.074.287.12.428.13.423.305.878.121.314.17.414.178.403.181.386.194.392.217.412.227.406.118.202.37.598.128.198.54.776.142.191.236.308.367.457.781.893.274.291.425.431.05.05.05.05c.017.015.034.032.05.05l.049.05.09.099c.211.248.331.514.167.906-.029.07-.012.158-.018.274.026.886.453 1.565 1.25 2.01a2.76 2.76 0 0 0 .357.168l.142.05.142.039.142.03c.373.066.742.027 1.103-.112l.136-.058.131-.065a2.65 2.65 0 0 0 .262-.158l.087-.054c.028-.015.054-.027.081-.036s.052-.017.078-.021c.042-.007.083-.009.125-.004.017.002.033.004.05.008.022.005.046.01.068.018.035.011.071.026.109.042l.044.02c.882.414 1.765.764 2.648 1.049l.53.163 1.119.294.413.091.109.022a18.3 18.3 0 0 0 4.32.358l.664-.037.498-.044.166-.018.166-.019.331-.042.166-.024.531-.086.797-.159c.709-.158 1.417-.357 2.126-.598l.531-.189 1.858-.785c.221-.105.353-.11.559.05.779.605 1.643.688 2.511.23.89-.47 1.471-1.258 1.251-2.246l-.021-.106-.014-.099-.01-.142c-.003-.094.003-.18.017-.261.008-.045.018-.088.03-.13l.044-.122.026-.058.04-.075.045-.074a1.94 1.94 0 0 1 .116-.158l.044-.052.092-.103.098-.104.069-.07.07-.072.758-.809.288-.33.141-.166.275-.337.134-.17.262-.342.254-.346.162-.23.61-.935.187-.313.091-.158.177-.317.086-.16.167-.322.093-.186.09-.186.259-.565.214-.509.153-.393.144-.396.199-.602.122-.406.355-1.455.082-.425.163-1.08.047-.415.004-.043.056-.647.043-.899-.001-1.117h-.003zM11.672 4.533c0 .018-.002.035-.004.052a.41.41 0 0 1-.005.044.3.3 0 0 1-.004.026c0 .009-.002.018-.005.026l-.014.069c-.003.016-.008.032-.013.048l-.011.035c-.006.019-.013.038-.02.056-.018.047-.038.093-.062.137l-.022.04a.54.54 0 0 1-.03.049l-.026.038a1.15 1.15 0 0 1-.137.162c-.027.027-.056.053-.086.077a.5.5 0 0 1-.046.036c-.061.046-.126.086-.196.12l-.059.026-.057.022-.082.026c-.011.004-.023.007-.035.01l-.042.01-.042.008c-.01.002-.021.004-.032.005l-.043.006-.038.003-.082.003h-.015a1.12 1.12 0 0 1-.147-.012l-.036-.006c-.012-.002-.024-.004-.036-.007l-.07-.017a1.26 1.26 0 0 1-.11-.037l-.069-.03-.062-.031-.062-.034c-.022-.013-.041-.026-.06-.04-.063-.044-.122-.094-.174-.148-.221-.224-.356-.53-.348-.859l.007-.104c0-.01.002-.02.003-.03l.007-.05c.002-.02.006-.039.011-.059.017-.081.042-.158.074-.231l.021-.045c.033-.07.073-.134.118-.194.01-.015.022-.03.035-.044a.45.45 0 0 1 .037-.042l.039-.041c.026-.026.054-.051.083-.074l.068-.05.07-.046.101-.053.106-.043.112-.034c.1-.024.205-.037.314-.035.668.009 1.178.534 1.175 1.21l-.002.053zm22.724 3.939l.01-.06.013-.059c.004-.02.01-.039.015-.058l.018-.056.043-.107a1.1 1.1 0 0 1 .114-.195l.052-.066.028-.031.029-.03.046-.044.05-.042.052-.038.054-.035.116-.062.061-.026.063-.022c.028-.01.058-.018.087-.026l.07-.016.11-.015.038-.003.03-.002.071-.002.047.002.033.002.088.009.053.009.052.011.034.009a1.04 1.04 0 0 1 .13.044l.046.019a1.18 1.18 0 0 1 .21.123l.033.026a.3.3 0 0 1 .025.02c.014.011.029.024.042.037l.06.061.019.021.042.049.03.04.033.046.03.05.038.07.037.078.022.055.019.056.015.054.006.023c.003.01.006.022.007.033l.005.023c.006.033.012.066.014.1l.005.055.002.042.001.036c0 .041-.002.082-.007.122a.5.5 0 0 1-.008.059l-.009.047c-.001.008-.002.016-.005.024a.81.81 0 0 1-.022.084l-.014.042c-.006.019-.013.038-.021.057l-.02.047-.024.05c-.008.017-.018.034-.027.05a.63.63 0 0 1-.035.058l-.027.041-.054.072-.063.07c-.009.01-.018.018-.028.027-.058.057-.121.106-.189.15l-.021.013a.84.84 0 0 1-.083.046l-.036.018-.051.022-.056.022-.076.023-.048.011c-.022.006-.043.01-.066.013l-.046.006-.056.005c-.006.002-.014.002-.021.002l-.022.001-.062.001-.126-.007h-.001l-.12-.018a1.14 1.14 0 0 1-.214-.063l-.046-.019-.069-.034c-.029-.015-.057-.032-.083-.05l-.042-.028-.031-.024-.038-.03c-.025-.021-.048-.042-.07-.066l-.038-.04a.77.77 0 0 1-.06-.075c-.005-.006-.009-.012-.013-.018s-.014-.018-.019-.028l-.028-.045-.024-.043c-.011-.019-.021-.039-.03-.059l-.024-.056-.024-.066-.01-.033-.018-.068-.008-.035c-.003-.012-.006-.024-.007-.036-.014-.082-.022-.169-.022-.258l.006-.127.007-.062.001.001zm-4.55-4.147l.006-.05.01-.056.026-.102.037-.104.025-.056.034-.067.043-.072.037-.054.026-.035.028-.034.059-.066.026-.026.072-.065c.029-.024.06-.046.091-.068a1.19 1.19 0 0 1 .177-.098.33.33 0 0 1 .03-.013l.106-.039a.45.45 0 0 1 .056-.016.5.5 0 0 1 .058-.014l.058-.01a1.03 1.03 0 0 1 .186-.014l.038.002.025.001c.039.002.078.006.115.014l.066.013a1.24 1.24 0 0 1 .129.037l.062.024.041.018c.019.008.038.018.056.027l.046.026c.044.025.086.053.126.083l.088.074.038.036.072.078c.011.012.022.025.031.038l.026.034.027.039.03.046.025.042.026.049c.034.07.062.142.082.218.006.018.01.038.014.057a1.08 1.08 0 0 1 .018.115c.005.045.007.091.006.138s-.004.086-.009.127l-.008.057-.006.031-.021.093a.54.54 0 0 1-.015.051l-.022.062-.026.064-.048.096-.024.041-.026.04-.038.054a.72.72 0 0 1-.038.048l-.041.046c-.023.026-.048.05-.074.073l-.043.037a.62.62 0 0 1-.045.035l-.07.048-.074.043-.064.031-.058.025-.077.027-.048.014c-.015.005-.03.009-.045.011l-.046.01-.091.014-.022.002a1.31 1.31 0 0 1-.126.006c-.022 0-.045-.001-.066-.002a.95.95 0 0 1-.108-.011l-.046-.008-.043-.009a.85.85 0 0 1-.078-.021l-.033-.01-.038-.013a.76.76 0 0 1-.074-.03l-.054-.026-.047-.026-.05-.03-.057-.039-.051-.039-.048-.042-.046-.045c-.04-.041-.078-.084-.111-.13-.012-.015-.022-.031-.034-.048l-.058-.098a1.42 1.42 0 0 1-.07-.16l-.03-.099-.012-.051-.014-.078-.009-.079-.003-.054v-.055l.003-.087c0-.014.002-.028.004-.042h-.002zm-1.067 1.348c.008 0 .016 0 .024.002l.022.002a.2.2 0 0 1 .023.004l.038.008a.51.51 0 0 1 .05.015l.034.015c.011.005.021.01.03.018s.019.013.026.02l.07.077.118.126.237.226.081.069.098.078.069.051.054.038.163.106.054.032.054.03.055.029.055.026.055.025.055.023c.018.008.037.014.055.022l.056.019a1.13 1.13 0 0 0 .112.034l.142.034.084.014.059.008c.02.003.04.005.06.006.298.026.607-.016.933-.127a3.99 3.99 0 0 0 .825-.405l.392.366.259.243.394.369h.001c-.29.506-.462 1.022-.411 1.581l.011.098.016.099.014.069c.133.613.433 1.121.946 1.478l.044.033.037.033c.014.014.026.026.037.04l.014.02c.006.007.01.014.013.021s.008.015.011.023.006.018.009.026l.006.032c.004.025.004.05 0 .078-.005.041-.011.07-.02.102l-.015.054-.024.075-.025.077-.048.15-.146.442-.069.204-.21.596-.095.259-.154.408-.124.318-.13.326-.106.259-.103.246-.105.244-.106.244-.108.242-.062.138-.079.174-.09.194-.11.234-.132.274-.207.42-.12.236-.118.231-.278.526-.088.162-.167.303-.17.302-.174.302a.62.62 0 0 1-.042.063c-.014.018-.029.035-.044.049a.32.32 0 0 1-.099.063c-.01.005-.022.009-.034.012-.063.02-.136.027-.223.036l-.141.008c-.021 0-.041-.001-.06-.002l-.07-.006-.04-.006c-.008 0-.014-.002-.021-.003s-.019-.003-.029-.006a.24.24 0 0 1-.026-.006l-.071-.022A.7.7 0 0 1 30 18.8l-.027-.014-.026-.014-.05-.031v-.001a.7.7 0 0 1-.062-.046l-.03-.026-.029-.028-.055-.058-.039-.048-.038-.05-.042-.062-.02-.032-.021-.034-.034-.058-.078-.143-.017-.032-.039-.077a26.32 26.32 0 0 0-6.08-7.904c-.209-.185-.291-.334-.198-.638.106-.345.06-.733.11-1.098.02-.145.084-.342.193-.407a23.75 23.75 0 0 1 5.25-2.314c.013-.004.026-.006.041-.009l.026-.002c.014 0 .028-.002.042 0v-.001zm2.29 16.309c-.008.01-.016.019-.025.029l-.044.046a.92.92 0 0 1-.083.074l-.04.032-.049.034c-.006.005-.012.009-.019.013l-.061.036-.02.011-.034.018-.07.031a1.15 1.15 0 0 1-.14.047l-.043.011c-.024.006-.047.011-.072.014l-.048.007-.068.007-.104.005c-.631-.001-1.168-.528-1.183-1.161a.93.93 0 0 1 .006-.15l.007-.059.011-.059c.007-.039.018-.077.03-.114a1.07 1.07 0 0 1 .04-.11c.006-.015.012-.03.02-.043.003-.008.006-.016.011-.023l.02-.039.037-.063c.006-.01.012-.021.019-.03a.57.57 0 0 1 .04-.058l.033-.042c.011-.015.024-.03.038-.044s.019-.022.03-.032.011-.012.018-.018c.023-.025.047-.046.072-.067l.03-.025.03-.024.047-.034a.73.73 0 0 1 .082-.051l.068-.036.045-.021a1.01 1.01 0 0 1 .093-.036l.048-.015.026-.007.07-.016.071-.012.073-.007.07-.002h.004l.049.002.033.002.048.004.054.007c.02.002.04.006.059.01s.03.006.043.01l.042.011a.46.46 0 0 1 .047.014l.085.03.034.014.039.018.062.033c.047.026.092.056.134.089l.054.043.051.047.03.03c.059.061.111.128.156.201a1.15 1.15 0 0 1 .1.207l.035.112.019.087a.42.42 0 0 1 .007.044l.006.046c.005.04.007.081.008.122a1.22 1.22 0 0 1-.014.204c-.005.04-.013.079-.022.118s-.022.078-.035.114l-.021.055-.023.053c-.014.03-.03.06-.046.089l-.054.082a.92.92 0 0 1-.042.056l-.024.03zM17.848 6.378l-.56-.252-1.388-.62-1.106-.484h-.001c-.524-.226-1.082-.376-1.627-.55l-.154-.05-.043-.018c-.028-.013-.054-.027-.076-.046l-.021-.018c-.014-.014-.027-.03-.036-.048s-.011-.024-.013-.03-.004-.015-.005-.023c-.003-.018-.004-.028-.004-.038 0-.023.004-.048.011-.077l.008-.028c.002-.01.006-.019.01-.028.007-.018.016-.037.026-.056a.71.71 0 0 1 .134-.182.44.44 0 0 1 .047-.041c.009-.007.019-.014.029-.021s.013-.009.02-.012.017-.01.025-.014l.232-.11.935-.407.213-.084.194-.074.109-.041.159-.058.134-.047.824-.264.1-.029.118-.034.195-.053.037-.01.195-.05.216-.053.216-.05.217-.047.217-.044.456-.084.398-.062.095-.014.41-.052.121-.014.06-.006.154-.015.937-.064.188-.007.153-.004.41-.005.222.002.098.002.204.005.178.006.122.005.201.01.302.018.381.031.327.033.247.028.384.05.386.057c.781.124 1.545.303 2.294.535h.001l.558.183.277.099.55.212.272.114.199.086.13.058.212.096.037.015.03.011.03.01.076.027.038.016.034.018a.29.29 0 0 1 .037.024c.015.012.018.015.022.019l.02.022c.016.023.023.036.028.051l.01.039a.37.37 0 0 1-.006.135c-.022.104-.034.206-.066.295a.36.36 0 0 1-.014.038c-.005.013-.01.026-.018.038l-.022.037c-.008.012-.017.024-.026.035s-.019.022-.03.032-.026.023-.042.034l-.024.016-.026.015-.054.026c-.008.004-.016.006-.025.01-.016.006-.033.011-.05.017-1.911.565-3.721 1.375-5.451 2.364-.11.063-.317.092-.409.031-1.214-.799-2.052-.782-3.187.048l-1.421-.639zm3.044 3.586a1.09 1.09 0 0 1-.25-.025c-.038-.008-.074-.018-.11-.03l-.065-.024a.93.93 0 0 1-.1-.045l-.048-.026-.042-.024-.099-.069-.055-.045-.025-.022-.05-.047-.058-.062-.055-.069-.052-.076-.024-.038a1.18 1.18 0 0 1-.053-.099l-.026-.061-.018-.044-.018-.056c-.01-.03-.018-.06-.024-.09l-.013-.066-.008-.058-.005-.052-.002-.068c0-.054.003-.107.01-.159l.004-.029.005-.029.008-.041.005-.02.012-.046.014-.045.015-.044a1.03 1.03 0 0 1 .045-.106l.02-.038.021-.038.039-.063.014-.02.062-.082c.024-.03.05-.058.077-.085l.028-.026.028-.026.057-.047c.01-.009.022-.017.033-.025l.026-.018.096-.059.022-.012a.48.48 0 0 1 .054-.027l.027-.012.062-.026a.64.64 0 0 1 .055-.019c.074-.023.151-.039.23-.047l.06-.005.065-.002c.684.003 1.188.506 1.19 1.188l-.002.054c0 .018-.002.036-.003.054l-.004.044-.006.047-.014.075-.02.08-.026.079c-.008.025-.017.046-.027.069l-.02.043c-.006.014-.014.029-.022.042s-.009.018-.014.026-.009.017-.014.025l-.046.07-.036.049-.04.048-.042.046-.041.04-.027.024-.024.02a.63.63 0 0 1-.058.045c-.014.01-.028.02-.042.029-.007.006-.015.01-.022.014l-.022.014-.046.026-.056.028-.078.033-.061.022-.062.018-.118.025-.046.006-.046.005-.094.005h-.001zm-5.146 4.994c0-.01.002-.02.003-.03l.005-.03.015-.058.01-.03.011-.029a.51.51 0 0 1 .022-.047c.007-.016.016-.031.026-.047l.019-.031.039-.058.036-.048.079-.095.043-.047.036-.038.809-.855.809-.856 1.611-1.718c.174-.186.308-.162.516-.06.686.338 1.396.348 2.079.009.253-.126.392-.086.587.089l.271.246.161.149.183.172.186.179.259.254.37.378.068.071.365.388.386.43.19.218.37.442.2.248.274.351.097.126.19.253.074.101.192.266.093.13.178.255.133.195.318.484.106.166.116.186.114.186.114.188.112.189.142.247.143.254.141.256.139.258.128.247.047.093.046.092.074.148.19.379c.004.258-.228.366-.47.256l-2.074-.943a36.24 36.24 0 0 0-9.65-2.608c-.009-.001-.017-.002-.026-.005-.026-.006-.05-.017-.075-.03l-.049-.031c-.016-.011-.032-.024-.048-.038l-.183-.169c-.023-.02-.034-.054-.046-.087l-.018-.049c-.003-.007-.007-.014-.012-.021s-.009-.014-.014-.018l-.034-.03-.046-.046-.034-.038a.66.66 0 0 1-.07-.098l-.034-.065-.014-.032-.01-.031c-.006-.017-.008-.034-.011-.05 0-.006-.002-.013-.003-.02s-.002-.017-.002-.026c-.002-.016-.003-.031-.002-.047l.001-.019zm-2.978 1.471l.026-.114c.009-.033.019-.065.032-.096a.47.47 0 0 1 .019-.046l.021-.046a.43.43 0 0 1 .019-.038l.045-.078.048-.07.058-.074a.95.95 0 0 1 .061-.066c.006-.007.014-.014.021-.021.223-.218.526-.354.85-.35.646.007 1.189.562 1.181 1.206l-.002.062-.002.021c-.002.027-.005.053-.009.079-.009.066-.023.129-.042.19l-.007.022-.03.079-.022.05-.033.066-.042.07-.034.051-.054.07c-.024.03-.05.058-.077.084-.222.22-.532.35-.879.341a1.21 1.21 0 0 1-.121-.009l-.116-.021-.058-.014-.11-.037h-.001l-.104-.046-.051-.027a.6.6 0 0 1-.049-.029l-.075-.052-.031-.024-.03-.025-.042-.038a1.07 1.07 0 0 1-.097-.102l-.041-.051-.022-.03a.6.6 0 0 1-.031-.047c-.015-.022-.029-.046-.042-.07l-.02-.039-.018-.036-.018-.04-.026-.071-.023-.074-.011-.047-.009-.043c-.006-.03-.01-.06-.014-.091l-.003-.036-.004-.115c.001-.059.006-.118.017-.175zM2.657 18.708l-.059.013c-.039.008-.08.014-.121.017l-.126.006c-.66.002-1.182-.533-1.178-1.205l.002-.046.002-.033a.88.88 0 0 1 .009-.082l.006-.034.022-.099.035-.111a1.21 1.21 0 0 1 .238-.392l.039-.042c.05-.05.102-.096.16-.137l.043-.03.033-.021.068-.038.035-.018.072-.031.04-.015c.014-.006.029-.01.044-.014l.045-.013.05-.012.067-.012.075-.009a1.1 1.1 0 0 1 .115-.003c.021 0 .042.002.062.003l.122.014a1.08 1.08 0 0 1 .117.026c.077.021.15.048.218.082.018.008.034.016.05.026l.05.028a1.09 1.09 0 0 1 .178.136l.04.039.058.066c.009.01.017.02.025.03l.042.058.032.05.033.058.03.061.025.06.012.032c.004.01.007.021.01.032l.019.066a.63.63 0 0 1 .016.067.31.31 0 0 1 .007.038l.013.091c0 .01.002.019.002.029.004.038.005.078.005.118a1.26 1.26 0 0 1-.01.157l-.01.063-.01.052-.013.054-.02.067-.018.054-.014.034c-.004.012-.009.023-.014.034l-.031.064-.035.062-.038.059c-.027.038-.056.075-.087.11l-.049.05c-.05.049-.105.093-.163.131a1.22 1.22 0 0 1-.149.082 1.18 1.18 0 0 1-.221.076zm6.494 14.594l-.076.045-.18.103-.799-.834-.098-.108-.15-.169-.128-.147-.034-.039-.102-.119-.176-.211-.152-.187-.149-.188-.146-.189-.285-.382-.138-.192-.135-.194-.1-.146-.114-.17-.113-.173-.094-.146-.188-.303-.067-.111-.082-.137-.117-.202-.129-.23-.07-.126-.068-.126-.134-.254-.13-.256-.046-.093c-.004-.006-.007-.013-.01-.019l-.118-.247-.022-.048-.086-.187-.071-.16-.143-.33-.174-.428-.243-.652-.113-.33-.107-.332-.134-.446-.048-.169-.046-.169-.089-.34-.063-.257-.06-.258-.052-.239-.058-.281-.05-.262-.023-.125-.026-.145-.034-.198-.031-.196-.029-.192-.03-.208-.035-.267-.062-.542-.026-.274-.024-.274-.021-.276-.018-.277.349-.144.073-.034.221-.114.073-.042.043-.026.048-.03.036-.024.037-.026a.55.55 0 0 0 .056-.04l.038-.028.046-.037c.012-.009.023-.018.034-.028l.04-.034.041-.038.058-.056.06-.062.058-.066c.112-.133.207-.283.285-.455l.059-.124.014-.03.023-.052.014-.034c.005-.012.009-.023.012-.035a.38.38 0 0 0 .014-.05l.007-.05c.002-.012.002-.025.002-.037l-.002-.056v-.031-.03-.003c0-.027.004-.053.007-.077l.007-.042.008-.04a.5.5 0 0 1 .02-.064.2.2 0 0 1 .012-.03c.004-.01.009-.02.014-.03l.014-.026.018-.028c.015-.024.033-.046.054-.066s.03-.028.042-.038.022-.017.033-.025a.52.52 0 0 1 .058-.034l.038-.018c.007-.004.015-.007.024-.01a.4.4 0 0 1 .033-.013.25.25 0 0 1 .034-.012l.035-.011.055-.014.058-.013.04-.007c.026-.006.054-.01.082-.013l.086-.01.045-.006.488-.05.41-.042.163-.018.496-.053.496-.054.906-.1 2.719-.311.066-.006.062-.002a.65.65 0 0 1 .082.005c.026.003.05.009.072.016a.27.27 0 0 1 .062.028c.01.005.019.011.028.018l.026.022c.033.031.06.072.082.122a.55.55 0 0 1 .031.085 1.15 1.15 0 0 1 .026.101l.03.12.026.078.062.155.036.077.031.06v.001l.032.06.124.206.066.1a.66.66 0 0 1 .061.105.44.44 0 0 1 .024.066c.006.022.01.042.011.064 0 .01.002.021.002.031 0 .074-.023.149-.066.237l-.165.35-.123.271-.114.255-.114.265-.202.486-.089.222-.078.2-.051.134-.125.334-.112.314-.123.358-.082.251c-.005.012-.009.025-.012.038l-.04.123-.097.31-.107.362-.102.363-.098.364-.089.351-.079.337-.023.101-.069.31-.073.352-.065.335-.018.098-.058.323-.115.742-.05.374-.006.047-.021.178a.34.34 0 0 0-.005.04l-.01.088c-.002.007-.002.014-.002.022l-.034.321-.03.322-.037.454-.016.248-.013.219-.01.213-.006.151-.003.075-.006.182-.004.147-.005.216-.002.091-.001.063.001.779.004.188.011.377.03.538.039.539.017.379v.03c0 .013-.001.025-.002.036s-.002.02-.003.03a.46.46 0 0 1-.018.088l-.01.03a.27.27 0 0 1-.016.034c-.003.006-.006.013-.011.019a.39.39 0 0 1-.058.075l-.038.036a.77.77 0 0 1-.07.055l-.119.078-.035.022h-.001zm2.51 2.158l-.024.115-.019.064a1.11 1.11 0 0 1-.062.153.62.62 0 0 1-.026.051l-.023.04c-.003.006-.007.013-.011.018a.28.28 0 0 1-.022.034l-.038.054-.041.051a1.03 1.03 0 0 1-.07.076l-.042.04-.043.038-.091.069a1.12 1.12 0 0 1-.098.061l-.103.05-.109.041-.042.013-.042.011-.043.01a.65.65 0 0 1-.088.014c-.015.002-.03.004-.045.005l-.045.003h-.046c-.018 0-.035 0-.053-.001l-.042-.002c-.068-.006-.123-.015-.178-.027l-.043-.011-.042-.012c-.038-.011-.074-.025-.109-.041a1.25 1.25 0 0 1-.201-.11l-.046-.034c-.009-.006-.018-.013-.026-.02l-.025-.021-.025-.022-.028-.025-.026-.026-.026-.028-.026-.028-.04-.048c-.017-.02-.032-.041-.046-.062l-.026-.038a.9.9 0 0 1-.063-.111l-.038-.082c-.017-.041-.031-.083-.043-.126l-.011-.043-.011-.05c-.01-.049-.016-.098-.02-.149l-.002-.076.001-.054c0-.013.002-.026.002-.038.001-.026.003-.039.005-.052a1.15 1.15 0 0 1 .022-.131l.023-.086.014-.042.015-.041a1.26 1.26 0 0 1 .072-.152l.025-.042a.77.77 0 0 1 .049-.073c.009-.014.018-.026.029-.039l.025-.03c.01-.014.022-.026.034-.038l.043-.046.022-.022.043-.038.03-.026.031-.024a.9.9 0 0 1 .066-.046.53.53 0 0 1 .05-.031l.069-.038c.034-.018.07-.033.106-.046a1.04 1.04 0 0 1 .11-.035.92.92 0 0 1 .115-.025l.063-.009a1.1 1.1 0 0 1 .115-.006l.063.002.058.005c.019.002.039.004.058.008s.038.006.057.011l.057.014.11.036a1.24 1.24 0 0 1 .106.046l.064.034.086.054.091.07c.054.046.106.095.151.15l.047.058.028.038a.28.28 0 0 1 .022.032.59.59 0 0 1 .034.053l.036.066.014.026.018.039.022.054.023.066c.008.023.014.046.02.07l.01.046.015.087c.002.015.004.03.005.045a.83.83 0 0 1 .005.09 1.23 1.23 0 0 1-.014.19zm1.011-1.543a.39.39 0 0 1-.043.002.41.41 0 0 1-.094-.011l-.046-.014c-.015-.006-.03-.013-.046-.021l-.047-.026-.049-.033a1.42 1.42 0 0 1-.104-.086l-.087-.074-.076-.061-.074-.055-.118-.083-.081-.052-.151-.092-.159-.09-.489-.25c-.087-.043-.158-.077-.208-.126s-.081-.114-.09-.219l-.036-.497-.01-.162-.022-.435-.009-.216-.007-.216-.006-.227-.004-.891.006-.316.007-.254.002-.081.012-.294.006-.126.006-.1.014-.226.014-.215.017-.222.006-.075.016-.186c0-.01.002-.022.002-.031l.019-.202.053-.482.014-.116.026-.198.042-.309.027-.185.042-.272.026-.159.054-.309.014-.078.05-.262.063-.314.156-.695.06-.245.026-.102.013-.052.049-.188.01-.038.067-.247c.002-.009.004-.018.007-.026l.065-.23.07-.239.032-.106.174-.551.046-.139.324-.91.082-.215.078-.2.252-.611.136-.314.137-.302.067-.145.114-.242.018-.035.018-.033.016-.026.022-.03.017-.018c.005-.006.01-.012.017-.017s.014-.013.022-.018.014-.01.021-.014l.022-.011c.008-.004.016-.007.025-.01s.018-.006.026-.007a.16.16 0 0 1 .021-.004l.028-.004h.007c.042-.002.074-.002.11.002l.079.007.077.006.076.004.152.004.068-.001.078-.002.094-.005.096-.008.109-.013.1-.016.097-.019h.002l.093-.023c.062-.016.123-.035.182-.057l.174-.072.164-.086.155-.102.074-.057.143-.126.068-.068.066-.073.062-.073.133-.179.051-.078.057-.093.101-.183.046-.092.049-.106.033-.074.042-.101.08-.211 2.95.53.269.057.268.058.268.061.532.128.53.136.263.071.263.074.262.076.522.158.311.098.209.068.517.174.258.09.256.092.256.094.207.078.473.184.17.068.067.027.176.072.316.132.315.135.21.092.14.062.148.066.274.126.296.139.186.089.286.138.044.023a.58.58 0 0 1 .138.098.43.43 0 0 1 .026.027c.006.006.011.014.016.021a.15.15 0 0 1 .013.018c.006.01.012.019.017.029s.014.025.018.038c.008.018.015.038.021.058l.011.05.006.04c.006.042.01.087.011.138a4.52 4.52 0 0 0 .265 1.349c.064.178.08.302.027.43-.022.053-.055.106-.102.163l-.344.416-.345.407-.357.409-.314.35-.217.236-.029.031-.249.266-.285.298-.376.382-.336.333-.093.09-.322.309-.075.07-.334.31-.398.359-.355.313-.094.082-.363.307-.378.312-.103.084-.302.241-.159.124-.32.247-.42.314-.169.124-.272.196-.148.105-.074.052-.18.126-.106.074-.217.149-.257.172-.269.177-.271.174-.196.124-.114.071-.114.071-.31.19-.274.163-.219.129-.29.167-.41.23-.412.224-.219.117-.225.118-.43.218-.432.213-.582.275-.22.101-.22.099-.297.13-.222.096-.222.094-.402.166-.048.02-.149.06-.15.059-.453.176-.072.026-.05.014-.046.01c-.016.003-.03.006-.046.006h.002zm19.911 1.519l-.002.033c0 .014-.002.028-.003.042l-.008.059-.012.066-.019.078-.021.065-.024.062-.013.03-.022.046-.037.068-.019.031a.94.94 0 0 1-.074.104l-.05.06c-.01.011-.02.022-.03.032s-.018.018-.028.027a.66.66 0 0 1-.062.055l-.052.041-.094.063-.05.028c-.05.027-.103.05-.158.07l-.112.034-.034.008c-.011.003-.023.005-.034.007l-.078.012-.035.004c-.012.002-.024.002-.036.002-.03.002-.06.003-.09.002-.082-.001-.161-.01-.237-.026l-.058-.014-.11-.035c-.029-.01-.058-.022-.085-.036a.69.69 0 0 1-.054-.027l-.025-.014c-.008-.004-.017-.009-.025-.014l-.039-.025c-.009-.005-.017-.01-.025-.016l-.053-.038-.053-.043-.05-.046-.057-.058a.59.59 0 0 1-.037-.043l-.026-.034-.038-.052-.043-.07-.036-.067-.01-.022-.022-.048-.019-.05a.56.56 0 0 1-.02-.058c-.004-.011-.007-.023-.01-.034s-.006-.024-.01-.036l-.01-.042-.01-.058a.96.96 0 0 1-.012-.118l-.002-.082.002-.048c0-.013.002-.026.003-.038.002-.026.005-.051.009-.077l.008-.049.01-.048.012-.048c.002-.012.006-.024.01-.035l.011-.034c.007-.024.016-.047.026-.07l.022-.05.016-.034c.006-.013.013-.026.019-.038.036-.067.078-.13.126-.187a.89.89 0 0 1 .064-.07l.034-.034.035-.032.044-.036.042-.032.049-.033.054-.032.067-.034.045-.02.061-.024.062-.021a1.1 1.1 0 0 1 .15-.034l.026-.004a1.09 1.09 0 0 1 .117-.011l.058-.002h.021a1.16 1.16 0 0 1 1.171 1.204l-.002.047zm3.898-6.514l-.127.22-.076.128-.017.028-.079.131-.044.071-.127.203-.177.274-.121.179-.072.106-.103.148-.166.231-.094.129-.125.166-.127.165-.129.163-.13.162-.133.16-.134.159-.182.208-.152.17-.127.138-.159.169-.153.158-.14.141-.129.127-.194.187-.242.224c-.026.023-.053.039-.083.053l-.022.009-.035.014c-.006.002-.013.004-.019.006a.26.26 0 0 1-.042.01c-.061.012-.118.011-.153-.009-.017-.01-.035-.019-.054-.026l-.114-.047-.076-.032a.65.65 0 0 1-.074-.042l-.022-.016c-.007-.006-.014-.012-.021-.018l-.021-.022c-.01-.013-.021-.026-.03-.042l-.018-.035-.01-.026a.41.41 0 0 1-.012-.049c-.002-.008-.002-.016-.003-.024l-.002-.026.002-.09.025-.351v-.002l.021-.354.015-.31.013-.31.01-.266.017-.532.018-.71c.013-.494-.198-.737-.586-.728-.366.008-.554.25-.569.716l-.107 2.995c-.166.038-.322.086-.469.143l-.072.029-.071.031a.53.53 0 0 0-.053.024l-.074.036-.204.118-.065.042-.036.025-.081.06-.043.034c-.054.043-.105.09-.154.138a2.25 2.25 0 0 0-.207.237l-.091.13-.083.138-.059.115-.025.052-.047.11c-.007.016-.013.033-.019.05l-.021.056-.028.082-.024.082-.022.088c-.004.015-.007.03-.01.046l-.014.074-.017.122-.01.105-.006.095-.002.066-.002.1.01.282c.003.042.004.081.002.116 0 .022-.002.043-.006.062l-.006.029c-.004.018-.01.036-.017.052-.002.009-.006.016-.011.024a.19.19 0 0 1-.029.044c-.01.014-.023.028-.038.041l-.039.03c-.007.006-.015.01-.023.015a.21.21 0 0 1-.026.016l-.053.027c-5.342 2.522-10.67 2.5-15.988-.069-.024-.011-.045-.029-.105-.069.021-.09.061-.169.052-.242-.075-.614.326-.79.806-.971 3.137-1.179 6.037-2.798 8.722-4.801a36.03 36.03 0 0 0 6.647-6.428c.02-.026.04-.049.061-.07.009-.01.017-.018.026-.026s.023-.021.035-.03c.023-.019.047-.034.073-.045a.24.24 0 0 1 .058-.018l.021-.002c.019-.002.039-.002.06.002.014.002.027.005.041.009a.31.31 0 0 1 .043.015.8.8 0 0 1 .047.022.81.81 0 0 0 .053.025c.008.003.016.007.025.01s.026.01.039.014.02.006.03.009a.43.43 0 0 0 .031.006.31.31 0 0 0 .09.004c.058-.006.113-.008.162-.005a.51.51 0 0 1 .08.008c.013.001.025.003.037.006a.25.25 0 0 1 .035.008.54.54 0 0 1 .034.01.32.32 0 0 1 .062.025.41.41 0 0 1 .032.018c.011.005.017.009.024.014s.019.013.029.02.014.01.02.017.01.01.015.014l.015.015c.01.01.02.021.029.032s.017.02.024.03c.013.017.024.034.035.054s.022.038.03.058a.62.62 0 0 1 .026.062.59.59 0 0 1 .023.066c.002.006.005.014.006.02l.014.05c.006.024.013.049.018.074.012.049.022.101.03.154.123.722.273 1.439.414 2.158.008.038.017.075.028.11a.55.55 0 0 0 .011.034c.011.033.024.063.038.093.023.047.042.078.061.105s.044.058.069.082a.59.59 0 0 0 .078.065.48.48 0 0 0 .043.026.6.6 0 0 0 .09.038.63.63 0 0 0 .042.01c.014.002.028.005.042.006.007.002.014.002.022.002a.58.58 0 0 0 .091 0c.026-.002.054-.006.082-.013a.56.56 0 0 0 .066-.019.66.66 0 0 0 .068-.026.54.54 0 0 0 .043-.021.7.7 0 0 0 .077-.047.35.35 0 0 0 .05-.04c.005-.004.01-.009.015-.014a.55.55 0 0 0 .036-.039c.012-.014.021-.026.029-.039s.02-.03.028-.046.013-.028.019-.043a.47.47 0 0 0 .018-.057l.005-.02c.003-.013.006-.026.007-.038s.005-.031.006-.047.002-.037.002-.055c0-.061-.007-.125-.021-.191l-.544-2.662-.019-.091c-.003-.019-.007-.038-.01-.055-.002-.03-.005-.042-.006-.054-.002-.022-.002-.043 0-.064 0-.011.002-.022.004-.032s.004-.018.006-.027.006-.019.01-.029.007-.018.012-.027c.008-.015.017-.03.028-.045.006-.007.011-.014.018-.022s.013-.015.021-.022.024-.024.038-.036c.007-.006.014-.012.022-.018.018-.014.036-.026.053-.036a.3.3 0 0 1 .04-.019c.019-.008.027-.01.035-.013s.016-.004.023-.006c.014-.002.027-.004.041-.004s.017.001.025.002.024.004.036.007.026.008.038.014.025.012.037.019a.86.86 0 0 1 .035.022c.02.014.04.029.061.045.009.007.018.014.027.02s.023.018.035.026l.64.454.067.049.534.397.145.11.235.182a33.77 33.77 0 0 1 1.244 1.018l.303.263.55.492.131.121.13.121.13.121.207.197.122.117.144.139.124.122.224.222a.64.64 0 0 1 .104.13c.038.067.046.134.023.218a.58.58 0 0 1-.038.099l-.154.312-.108.212-.135.257a16.45 16.45 0 0 1-.242.437h.001zm2.134-6.149c-.03.208-.063.415-.101.622l-.038.2-.055.272-.06.266-.076.314-.048.186-.086.312-.129.429-.141.426-.153.426-1.792-1.566-.353-.304-.354-.301-.356-.297c-.178-.146-.357-.288-.538-.428l-.55-.414-.278-.204-.836-.608a.95.95 0 0 1-.092-.075.48.48 0 0 1-.051-.058.66.66 0 0 1-.02-.03.35.35 0 0 1-.017-.032c-.005-.011-.009-.022-.013-.034a.36.36 0 0 1-.014-.074.65.65 0 0 1 .009-.153c.014-.081.024-.162.03-.242a2.78 2.78 0 0 0 .009-.315c0-.011-.001-.023-.001-.034l-.006-.088c-.002-.033-.006-.066-.01-.098a1.67 1.67 0 0 0-.009-.062c-.001-.009-.002-.018-.004-.026s-.002-.016-.004-.024c-.006-.034-.012-.068-.02-.102-.005-.025-.011-.049-.018-.074a2.05 2.05 0 0 0-.026-.094c-.009-.031-.019-.062-.03-.093a1.97 1.97 0 0 0-.074-.182c-.027-.059-.058-.118-.093-.176a2.19 2.19 0 0 0-.242-.336c-.009-.01-.017-.02-.025-.03-.03-.039-.049-.075-.06-.11-.005-.015-.008-.03-.01-.044-.003-.022-.003-.042 0-.062.004-.026.007-.041.013-.056l.007-.021c.002-.007.006-.014.009-.021.006-.013.012-.026.018-.038s.014-.025.021-.038l.042-.07c1.227-2.082 2.247-4.261 3.032-6.548l.102-.298.069-.198.076-.228.047-.146.087-.292a4.08 4.08 0 0 0 .046-.17l.012-.042a.54.54 0 0 1 .034-.081c.01-.02.013-.024.016-.028.006-.01.012-.019.019-.028a.31.31 0 0 1 .021-.025c.006-.006.011-.012.018-.018a.16.16 0 0 1 .018-.015c.007-.006.014-.011.022-.016a.15.15 0 0 1 .019-.011c.014-.008.02-.011.026-.014s.019-.008.029-.011a.32.32 0 0 1 .047-.014h.001c.023-.005.034-.006.046-.008a.48.48 0 0 1 .034-.004.94.94 0 0 1 .068-.005c.016 0 .033-.002.05-.002.088-.003.165-.005.235-.019h.002c.013-.003.026-.006.039-.01s.026-.009.038-.014.026-.004.045.004c.006.002.012.004.018.008.013.006.026.014.041.024a.7.7 0 0 1 .045.033.58.58 0 0 1 .042.036.6.6 0 0 1 .046.045.5.5 0 0 1 .039.044c.009.01.017.022.024.033s.014.022.02.031c2 3.614 2.628 7.474 2.051 11.547l.001-.001z" fill="#3f51b5"/></g><defs><clipPath id="A"><path fill="#fff" d="M0 0h40v40H0z"/></clipPath></defs></svg>