<svg xmlns="http://www.w3.org/2000/svg" width="32" height="32" fill="#3f51b5" xmlns:v="https://vecta.io/nano"><path d="M16 29.333c-1.844 0-3.578-.35-5.2-1.051s-3.033-1.649-4.233-2.849-2.15-2.611-2.849-4.233-1.051-3.356-1.051-5.2.35-3.578 1.051-5.2 1.649-3.033 2.849-4.233 2.611-2.15 4.233-2.851 3.355-1.049 5.2-1.049 3.578.35 5.2 1.049 3.033 1.651 4.233 2.851 2.15 2.611 2.849 4.233 1.051 3.356 1.051 5.2-.35 3.578-1.051 5.2-1.649 3.033-2.849 4.233-2.611 2.15-4.233 2.849-3.356 1.051-5.2 1.051zm0-2.667c2.956 0 5.472-1.039 7.551-3.116s3.116-4.595 3.116-7.551-1.039-5.472-3.116-7.551S18.956 5.333 16 5.333s-5.472 1.039-7.549 3.116S5.333 13.044 5.333 16s1.039 5.472 3.117 7.551 4.594 3.116 7.549 3.116zm0-6.933a.64.64 0 0 1-.467-.2L11.8 15.8c-.222-.222-.278-.467-.167-.733s.322-.4.633-.4h7.467c.311 0 .522.133.633.4s.055.511-.167.733l-3.733 3.733a.64.64 0 0 1-.467.2z"/></svg>