<svg xmlns="http://www.w3.org/2000/svg" width="40" height="40" fill="#3f51b5" xmlns:v="https://vecta.io/nano"><path d="M38.288 28.048c-.676-1.17-2.19-1.554-3.417-.852l-5.02 2.894-1.047.595c-.445-.676-1.095-.948-1.809-1.137l-8.069-2.152c-.81-.216-1.621-.476-2.474-.334-.537.089-1.066.227-1.597.354l-2.26.556-.002-1.009c-.013-.455-.24-.689-.699-.691a609.44 609.44 0 0 0-4.838 0c-.454.002-.686.242-.705.69l-.002.568c-1.433 0-2.803-.002-4.174 0-.615.002-.814.198-.814.814v8.357c0 .624.21.826.85.827l3.678.001h.462l.001.558c.019.434.241.673.675.675l4.918-.001c.414-.002.63-.237.649-.654l.002-.817.658.322c.663.338 1.361.544 2.109.545h9.355c.762 0 1.483-.188 2.141-.566l10.515-6.082c1.258-.731 1.636-2.212.916-3.46h-.001zM6.337 36.24H2.619v-7.447h3.718v7.447zm4.998 1.258H7.631v-9.947h3.703v9.947zm25.366-7.037l-8.236 4.759-1.937 1.122a3.8 3.8 0 0 1-2.048.566l-4.439-.006c-1.333 0-2.667-.033-3.998.011l-.21.002a2.66 2.66 0 0 1-.114-.002.9.9 0 0 1-.046-.002 4.43 4.43 0 0 1-.233-.015l-.091-.009-.155-.019-.14-.022a.8.8 0 0 1-.046-.008l-.047-.009-.114-.022-.139-.031-.138-.035h-.002l-.128-.036-.108-.033-.117-.038a4.73 4.73 0 0 1-.138-.048l-.159-.06-.085-.034-.07-.029-.438-.196c-.579-.279-.763-.597-.745-1.233l.01-5.399a1.23 1.23 0 0 1 .005-.114c.003-.031.009-.06.016-.086a.34.34 0 0 1 .017-.048l.014-.03a.2.2 0 0 1 .015-.026l.015-.021c.005-.007.012-.014.018-.021l.021-.02.019-.016c.006-.005.02-.014.031-.021s.017-.01.026-.014l.021-.01c.018-.009.038-.016.059-.023l.03-.01.036-.01.038-.01.605-.134.586-.133.146-.034.425-.108.198-.054.195-.058.248-.078a4.23 4.23 0 0 1 .279-.082l.185-.045.115-.023.069-.013.155-.025.051-.006.058-.007.114-.012.103-.009.23-.01.112-.002a4.32 4.32 0 0 1 .249.006l.077.004a3.98 3.98 0 0 1 .138.01l.116.011.116.014.154.021.081.014.11.018.092.018a4.58 4.58 0 0 1 .144.029l.083.018.083.019a5.58 5.58 0 0 1 .184.045l.234.063.829.231.346.096.726.199 1.162.315 4.088 1.102 1.021.28a.24.24 0 0 1 .038.012c.012.005.017.005.026.008a.34.34 0 0 1 .046.015l.069.025.096.041a.82.82 0 0 1 .038.018l.11.058a1.15 1.15 0 0 1 .08.046l.076.049a.43.43 0 0 1 .039.027l.02.014.082.064a1.34 1.34 0 0 1 .072.062 1.82 1.82 0 0 1 .077.075.93.93 0 0 1 .052.06c.006.007.012.016.018.024l.031.044.028.045.031.056.018.037.021.048.018.049.014.043a.22.22 0 0 1 .006.022l.005.021a.79.79 0 0 1 .01.046l.008.045a.98.98 0 0 1 .006.048l.004.049a.92.92 0 0 1 .002.066l-.002.068-.006.069-.01.069-.014.069-.014.054-.017.055-.014.042-.048.116c-.026.058-.058.114-.094.169a.89.89 0 0 1-.046.066.73.73 0 0 1-.049.062.89.89 0 0 1-.051.058c-.038.04-.077.077-.119.11a.87.87 0 0 1-.051.04h-.001l-.061.042-.058.034-.068.034a.95.95 0 0 1-.137.054.24.24 0 0 1-.026.008.42.42 0 0 1-.048.014.32.32 0 0 1-.033.008.24.24 0 0 1-.033.007l-.037.006a.63.63 0 0 1-.065.01l-.053.005-.03.002a.7.7 0 0 1-.071.002c-.029 0-.058 0-.087-.003a.74.74 0 0 1-.059-.005l-.034-.004a1.83 1.83 0 0 1-.092-.014 1.39 1.39 0 0 1-.093-.021l-2.354-.628-2.453-.657-2.451-.655a1.38 1.38 0 0 0-.254-.045h-.002a.83.83 0 0 0-.076-.003h-.001l-.061.002a.39.39 0 0 0-.044.005l-.026.004-.028.005-.026.006-.033.01-.044.016a.56.56 0 0 0-.065.032c-.038.023-.059.039-.079.058l-.032.032c-.01.011-.021.022-.03.035a.33.33 0 0 0-.027.038c-.009.013-.017.027-.025.042l-.02.042-.011.027-.014.037-.012.038c-.01.037-.018.072-.023.106l-.006.049a.57.57 0 0 0 .003.135l.006.038a.55.55 0 0 0 .022.072l.015.035.018.034.02.032a.63.63 0 0 0 .068.08c.103.101.259.181.469.237l7.292 1.951.086.021a2.67 2.67 0 0 0 .242.044 2.69 2.69 0 0 0 .346.023l.12-.003.238-.022.231-.046.092-.025.106-.034.039-.014.099-.038.097-.042.106-.052.1-.056.191-.125a1.29 1.29 0 0 0 .074-.056l.002-.002a.6.6 0 0 0 .035-.028h.001l.031-.026.048-.042a1.54 1.54 0 0 0 .065-.059l.078-.079.065-.071.041-.047.098-.125.041-.057a.86.86 0 0 0 .038-.056l.026-.04.05-.082.057-.104a2.98 2.98 0 0 0 .042-.088l.025-.055.03-.071a1.15 1.15 0 0 0 .034-.089l.049-.146.033-.12a2.41 2.41 0 0 0 .066-.375l.012-.13.002-.029c.002-.017.006-.034.01-.05s.008-.027.013-.041l.015-.038a.47.47 0 0 1 .026-.054.65.65 0 0 1 .023-.04.5.5 0 0 1 .037-.054.34.34 0 0 1 .026-.033.49.49 0 0 1 .019-.021l.019-.019.021-.018a.35.35 0 0 1 .02-.016c.008-.006.016-.011.024-.016l1.492-.871 2.993-1.732 1.5-.86a1.36 1.36 0 0 1 .33-.136 1.45 1.45 0 0 1 .085-.019 1.18 1.18 0 0 1 .167-.022h.001a.93.93 0 0 1 .142-.001l.038.002.066.006.08.013.068.015a1.15 1.15 0 0 1 .087.026l.075.027.059.026.04.02.026.013.038.022a.53.53 0 0 1 .04.024.7.7 0 0 1 .04.027.49.49 0 0 1 .042.03l.033.026.045.038a.55.55 0 0 1 .039.036l.015.015a1.16 1.16 0 0 1 .124.147l.031.044.036.057c.361.61.15 1.344-.534 1.742h.001zm1.473-12.922a3.73 3.73 0 0 0-3.582-3.124l-1.342-.002c-.077-7.395-5.906-12.817-12.447-13.117-3.21-.148-6.132.71-8.673 2.686-3.376 2.626-5.042 6.138-5.172 10.46-.607 0-1.198-.06-1.773.011-1.887.234-3.258 1.906-3.194 3.833s1.575 3.501 3.507 3.595c1.09.053 2.185.023 3.278.016.47-.003.695-.25.698-.737l.002-3.359-.002-2.679c-.004-.489-.224-.7-.713-.711-.156-.004-.313-.001-.466-.001-.225-3.08 1.477-7.583 5.572-10.122 4.123-2.557 9.54-2.338 13.403.651 3.072 2.377 4.613 5.545 4.715 9.471-.253 0-.424-.006-.594.001-.423.018-.651.226-.653.644l.001 6.199c.002.39.233.614.622.642.194.014.389.002.619.002l-.001 1.654c-.004.638-.206.843-.836.845-1.306.003-2.613-.004-3.919.006-.236.002-.378-.05-.502-.28-.337-.622-.887-.944-1.594-.97a17.5 17.5 0 0 0-1.359 0 1.85 1.85 0 0 0-1.784 1.886 1.86 1.86 0 0 0 1.818 1.858c.44.014.881.017 1.319-.002.705-.029 1.261-.348 1.594-.97.132-.244.28-.298.53-.296l4.039.003c1.143-.006 1.927-.796 1.938-1.94l.001-1.804c.519 0 .998.025 1.474-.004 2.226-.134 3.83-2.147 3.476-4.347zM5.699 20.616h-.001a2 2 0 0 1-.134.001c-.007 0-.014 0-.022-.001s-.015 0-.022-.001a.5.5 0 0 1-.05-.002 1.57 1.57 0 0 1-.086-.007l-.086-.01a2.1 2.1 0 0 1-.102-.017c-.025-.005-.049-.01-.074-.016l-.082-.02c-.025-.006-.05-.014-.074-.021l-.083-.027c-.027-.009-.055-.019-.082-.03a3.26 3.26 0 0 1-.161-.07 2.03 2.03 0 0 1-.104-.053c-.022-.012-.042-.023-.063-.036a1.17 1.17 0 0 1-.062-.038l-.062-.039-.06-.042c-.032-.022-.063-.046-.094-.07-.023-.018-.046-.036-.068-.055l-.066-.058c-.03-.026-.058-.053-.086-.081a2.7 2.7 0 0 1-.158-.173.46.46 0 0 1-.028-.034.57.57 0 0 1-.027-.034 2.61 2.61 0 0 1-.104-.143l-.048-.074a1.47 1.47 0 0 1-.046-.076 1.51 1.51 0 0 1-.043-.078.84.84 0 0 1-.03-.06 2.97 2.97 0 0 1-.118-.278l-.032-.097c-.003-.009-.006-.018-.008-.026a.33.33 0 0 1-.011-.039l-.023-.088-.02-.089-.012-.067a2.38 2.38 0 0 1-.013-.083c-.004-.028-.007-.053-.01-.078s-.006-.061-.008-.09a2.67 2.67 0 0 1-.006-.212 2.56 2.56 0 0 1 .022-.294c.003-.026.007-.05.011-.075l.013-.068.015-.071a2.23 2.23 0 0 1 .043-.159 1.41 1.41 0 0 1 .026-.082l.043-.118.025-.06a.66.66 0 0 1 .024-.054 2.52 2.52 0 0 1 .05-.105 2.11 2.11 0 0 1 .063-.115 2.9 2.9 0 0 1 .065-.106 2.45 2.45 0 0 1 .072-.106c.026-.038.054-.074.084-.111.021-.026.042-.052.065-.078a2.28 2.28 0 0 1 .127-.136c.014-.014.027-.027.042-.04s.027-.026.042-.039c.028-.026.058-.05.086-.075a1.03 1.03 0 0 1 .09-.07l.093-.066.082-.053a3.36 3.36 0 0 1 .09-.054l.093-.05.054-.026.074-.033c.05-.022.1-.041.151-.058a.72.72 0 0 1 .038-.013c.042-.014.086-.026.13-.038.019-.006.039-.01.058-.014a4.35 4.35 0 0 1 .111-.022c.028-.005.056-.009.084-.012a1.5 1.5 0 0 1 .084-.01l.066-.004c.013 0 .026-.002.038-.002l.068-.002a2.21 2.21 0 0 1 .145.006h.001v4.926zm2.54 0H7.01v-4.941l.161-.015.05-.005.096-.009.046-.004c.029-.003.058-.005.085-.007l.083-.005.047-.002c.016-.002.031-.002.046-.002s.028-.001.042-.001c.046-.002.087-.001.126.002a.41.41 0 0 1 .07.006c.012.001.023.002.034.005s.028.005.041.008l.02.006a.52.52 0 0 1 .038.013c.018.007.02.009.023.01a.72.72 0 0 1 .048.027c.006.004.01.008.016.013.018.016.022.02.025.024.017.018.027.032.037.048s.014.023.019.036.012.027.017.042a.89.89 0 0 1 .022.079c.002.01.004.022.006.033l.006.035.005.034c.002.011.003.023.004.035l.004.046.006.083.002.071a.56.56 0 0 1 .001.041 15.13 15.13 0 0 1 .003.4v3.896zm17.468 4.453a.56.56 0 0 1-.564.56l-.086.006-.07.002c-.085.003-.17.002-.255 0l-.16-.003-.106-.001-.209.002c-.157.003-.314.007-.469-.007-.016-.002-.032-.003-.048-.006a.19.19 0 0 1-.03-.005c-.008-.001-.016-.002-.023-.005a.27.27 0 0 1-.027-.006.45.45 0 0 1-.083-.028l-.022-.01c-.006-.002-.013-.006-.019-.01-.012-.005-.022-.01-.032-.017a.22.22 0 0 1-.033-.021c-.028-.021-.053-.042-.076-.067a.2.2 0 0 1-.027-.031c-.005-.006-.009-.012-.014-.018a.44.44 0 0 1-.021-.032c-.01-.014-.018-.03-.026-.045h-.001a.65.65 0 0 1-.039-.1c-.006-.018-.01-.036-.015-.055a1.05 1.05 0 0 1-.018-.118.59.59 0 0 1 .032-.253.52.52 0 0 1 .022-.053.38.38 0 0 1 .013-.026.6.6 0 0 1 .029-.049.15.15 0 0 1 .015-.023l.014-.019c.016-.02.028-.034.041-.046a.17.17 0 0 1 .019-.019c.019-.018.029-.026.04-.034a.4.4 0 0 1 .044-.031.47.47 0 0 1 .038-.022c.008-.004.016-.008.024-.011a.27.27 0 0 1 .042-.018.32.32 0 0 1 .039-.013c.028-.008.045-.011.061-.014a.46.46 0 0 1 .058-.007l.175-.009.223-.007a1.47 1.47 0 0 1 .084-.002l.218-.002.188.002a9.51 9.51 0 0 1 .545.022c.33.022.538.32.509.65l-.001-.001zm7.498-4.449h-1.201v-4.942h1.201v4.942zm1.294.003v-4.927l.088-.006a1.85 1.85 0 0 1 .41.026c.019.003.036.006.054.01a.4.4 0 0 1 .042.009l.028.006a1.07 1.07 0 0 1 .085.022l.085.026c.042.014.082.028.123.044.135.054.266.121.39.201a2.72 2.72 0 0 1 .19.134.85.85 0 0 1 .058.047c.012.01.025.02.037.031a2.35 2.35 0 0 1 .128.118l.034.035a1.84 1.84 0 0 1 .112.122 1.21 1.21 0 0 1 .058.07 1.81 1.81 0 0 1 .085.111.73.73 0 0 1 .032.045c.025.036.039.057.053.079a2.42 2.42 0 0 1 .114.198 1.72 1.72 0 0 1 .05.102 1.34 1.34 0 0 1 .046.105 2.33 2.33 0 0 1 .078.221c.008.027.016.054.022.082l.007.026a1.57 1.57 0 0 1 .025.11c.006.025.01.05.014.076a1.24 1.24 0 0 1 .014.095c.003.023.006.047.008.07a1.78 1.78 0 0 1 .007.103c.065 1.414-1.059 2.617-2.476 2.607zm-5.035-9.258c-.002-.489-.221-.702-.714-.706-.654-.006-1.306.005-1.959-.008-.114-.002-.225-.085-.338-.13.047-.112.068-.25.146-.331l1.409-1.418c.325-.336.322-.65-.005-.98l-2.486-2.489c-.41-.405-.718-.39-1.132.023l-1.332 1.325c-.081.078-.218.096-.33.141-.043-.114-.122-.226-.124-.341l-.007-1.919c-.005-.534-.222-.751-.755-.753a448.02 448.02 0 0 0-3.478 0c-.532.002-.745.221-.749.759l-.008 1.959c-.002.1-.06.254-.133.284s-.222-.037-.294-.107l-1.304-1.297c-.495-.495-.774-.491-1.276.014l-2.314 2.32c-.416.417-.417.733.008 1.158l1.326 1.332c.076.079.129.227.112.33-.009.056-.187.118-.29.12l-1.918.006c-.574.002-.775.198-.779.762l-.001 1.719.001 1.72c.002.583.206.783.8.786l1.799.007c.14.004.278.088.418.135-.062.12-.102.263-.191.356l-1.353 1.362c-.323.333-.32.69.007 1.019l2.458 2.459c.414.409.723.403 1.132-.003l1.302-1.298c.093-.09.236-.127.355-.188.048.125.134.249.137.374l.007 1.879c.004.558.214.765.781.767l3.438-.001c.554-.002.761-.217.765-.784l.006-1.919c.002-.102.065-.282.119-.29.103-.015.249.039.328.115l1.303 1.298c.457.458.765.462 1.222.007l2.372-2.376c.396-.398.402-.7.012-1.098l-1.354-1.361c-.078-.082-.1-.218-.148-.33.114-.043.229-.122.344-.125l1.919-.008c.516-.005.744-.221.746-.721v-3.558zm-1.258 3.045c-.646 0-1.279-.002-1.914 0-.594.001-.693.073-.904.64l-.145.373c-.331.764-.33.786.27 1.377l1.175 1.141-1.793 1.816-1.311-1.362c-.359-.369-.558-.402-1.034-.192l-.663.278c-.395.122-.541.387-.533.783l.006 1.679c.004.223-.04.346-.304.34l-1.919-.001c-.23.003-.299-.087-.295-.307l.006-1.719c.007-.399-.15-.655-.541-.779-.253-.08-.497-.194-.737-.309a.71.71 0 0 0-.903.174l-1.334 1.366-1.761-1.786 1.01-1.016.393-.399c.234-.239.303-.532.112-.8-.32-.448-.162-1.285-1.026-1.296l-1.319-.001c-.237-.001-.473 0-.734 0v-2.508l1.886-.001c.583-.002.711-.094.914-.637l.194-.482c.28-.598.262-.71-.21-1.189l-1.235-1.254 1.81-1.764 1.237 1.311c.387.402.59.432 1.097.187l.402-.18c.726-.286.744-.31.745-1.114V5.048h2.512l-.005 1.929c-.014.45.149.742.597.862.141.037.275.102.408.163.743.341.793.336 1.351-.229l1.182-1.22 1.798 1.833-1.156 1.095c-.616.59-.537.601-.303 1.413.254.884.771 1.109 1.597 1.018.445-.05.9-.009 1.381-.009v2.508zM10.099 35.978l-.002.319c-.035.356-.298.614-.625.599-.357-.016-.563-.227-.613-.57-.03-.209-.021-.425-.009-.637.022-.406.292-.673.65-.658.347.014.579.271.599.667.005.093 0 .186 0 .279h-.003l.002-.001z"/><path d="M20.106 9.397c-2.074.003-3.764 1.696-3.758 3.765.006 2.045 1.709 3.744 3.746 3.74 2.066-.004 3.758-1.7 3.758-3.77.001-2.039-1.704-3.738-3.747-3.734zm2.486 3.747l-.002.081-.004.081c0 .022-.002.045-.005.067l-.01.089v.002l-.013.086-.01.057-.017.084-.019.08-.023.084-.018.058-.019.058-.022.06-.023.058-.024.058-.053.114-.028.056-.032.058-.104.17-.099.137-.078.095-.082.091-.113.112-.039.035-.081.07-.083.066-.097.069-.127.081-.065.037-.066.035h-.001l-.22.1-.114.042-.071.023-.072.021-.073.018-.074.017-.099.018c-.138.023-.279.034-.424.034-.043 0-.086-.002-.129-.003l-.08-.006-.069-.007-.128-.018a.81.81 0 0 1-.074-.014l-.132-.03-.065-.018-.127-.04-.125-.047-.121-.053-.059-.029-.058-.03-.114-.065-.083-.053a2.68 2.68 0 0 1-.234-.177l-.098-.087-.046-.045-.054-.055-.056-.062-.062-.073-.074-.094-.069-.098-.033-.05-.047-.077-.044-.078-.054-.107-.054-.121-.031-.078-.03-.082-.036-.118-.022-.082-.019-.083-.016-.084-.02-.138-.007-.07-.006-.07-.003-.051-.002-.106v-.006l.002-.104.005-.088.018-.162.013-.08.026-.128.03-.119.036-.117.042-.114.041-.098.031-.068.026-.054.046-.086.041-.07.098-.15.062-.084.046-.058.078-.09.082-.086.075-.072c.077-.071.158-.137.243-.198l.098-.066.102-.062.106-.057.094-.046.089-.038.122-.046.089-.03.101-.029.038-.01.067-.016.043-.009.05-.01.074-.012.113-.014c.042-.006.084-.009.126-.01l.064-.002.066-.002h.036l.099.003a.56.56 0 0 1 .064.004l.126.012.098.014.088.016.121.027.102.028.074.023.057.02.113.044.055.024.082.038.08.041c.081.043.159.09.234.143l.069.048.094.073.09.078.086.082.082.085.078.09.074.093.069.098c.012.016.023.033.033.05l.08.133.04.074.04.082.037.082.034.084.031.086.028.087.025.089.028.12c.034.162.052.33.053.502v.015h.001z"/></svg>