<svg xmlns="http://www.w3.org/2000/svg" width="40" height="40" fill="none" xmlns:v="https://vecta.io/nano"><g clip-path="url(#A)"><path d="M39.976 26.61l.007-4.279v-.008l.002-2.143V4.669l-.004-.188a3.62 3.62 0 0 0-.01-.187 4.03 4.03 0 0 0-.016-.174l-.022-.171-.018-.113a4.61 4.61 0 0 0-.12-.529 4.08 4.08 0 0 0-.081-.254 2.55 2.55 0 0 0-.03-.083 3.84 3.84 0 0 0-.099-.246 3.6 3.6 0 0 0-.074-.159l-.079-.156-.13-.227a4.44 4.44 0 0 0-.218-.326 4.48 4.48 0 0 0-.246-.304 4.45 4.45 0 0 0-.117-.128l-.123-.124C38.139.854 37.579.502 36.939.27a4.69 4.69 0 0 0-.234-.077l-.237-.066-.358-.094L35.991 0H4.001l-.128.044-.058.018-.048.013s-.017.004-.026.006l-.04.009-.04.009a2.44 2.44 0 0 0-.138.031l-.133.034-.17.05s-.113.037-.168.057a4.07 4.07 0 0 0-.28.11l-.358.173-.172.097-.084.051-.244.162a4.71 4.71 0 0 0-.157.117 2.98 2.98 0 0 0-.11.089l-.114.098a2.42 2.42 0 0 0-.106.098l-.072.068-.034.034a4.62 4.62 0 0 0-.44.513l-.079.111-.137.21-.05.083a5.71 5.71 0 0 0-.094.169 4.67 4.67 0 0 0-.128.262l-.11.27-.033.092-.031.094-.056.188a4.51 4.51 0 0 0-.118.583 5.46 5.46 0 0 0-.022.2 3.5 3.5 0 0 0-.014.206l-.005.2.006 30.906c.002 1.22.405 2.253 1.179 3.055l.21.203.302.251a5.26 5.26 0 0 0 .566.377l.085.047a3.48 3.48 0 0 0 .173.086l.088.04.12.05.162.062L4.001 40h31.99l.024-.018.036-.027h.001c.006-.005.014-.009.021-.011.255-.035.489-.086.719-.158l.064-.021c.187-.062.37-.136.548-.224a3.55 3.55 0 0 0 .145-.075l.321-.19.133-.09a4.53 4.53 0 0 0 .616-.522l.14-.149c.767-.85 1.256-2.021 1.242-3.383l-.025-8.52h.001zM1.215 4.79c.003-2.151 1.405-3.573 3.551-3.574H35.23c2.094.002 3.53 1.402 3.539 3.462l.004 11.638c0 .091-.012.182-.02.31h-7.106l.844-1.862c1.032-2.858.741-5.562-1.2-7.944-2.611-3.206-6.891-3.57-10.105-.934-.409.336-.788.71-1.19 1.076-.391-.356-.769-.728-1.177-1.065-2.514-2.079-5.674-2.375-8.354-.656C8.033 6.802 6.9 9.126 6.937 12.009c.021 1.57.535 3.005 1.309 4.354.039.068.076.137.137.248H1.215v-.424V4.79h.001zM19.94 26.156a.54.54 0 0 1-.052-.007h-.001a.7.7 0 0 1-.107-.03c-.018-.006-.038-.014-.057-.023-.038-.018-.077-.038-.117-.062-.012-.007-.025-.014-.038-.023s-.018-.012-.025-.017l-.613-.418-.378-.266-.403-.291-.171-.126-.171-.127-.368-.278-.582-.453-.854-.698-.558-.478-.481-.426-.238-.216-.236-.218-.234-.22-.263-.252-.2-.194-.229-.226-.707-.722-.174-.184-.346-.373-.172-.189-.302-.337-.122-.138-.668-.783-.232-.282c-.038-.046-.066-.101-.137-.218-.005-.007-.01-.015-.014-.023h-.001.917.001c.533-.008.678-.122.803-.642l1.149-4.818a1.23 1.23 0 0 1 .013-.052c.01-.034.019-.069.032-.103.006-.018.013-.034.02-.051.014-.034.03-.067.05-.101a.75.75 0 0 1 .069-.101h.001l.805 3.441.963 4.128c.04.176.092.338.186.46a.65.65 0 0 0 .037.043.5.5 0 0 0 .224.138c.013.004.027.007.039.01s.021.004.032.006c.032.006.066.009.102.01a.8.8 0 0 0 .088-.001c.05-.004.097-.014.139-.027.015-.005.03-.01.043-.017s.025-.01.037-.018.025-.014.036-.021l.034-.024c.037-.028.07-.062.099-.098.009-.012.018-.023.026-.036a.53.53 0 0 0 .033-.05.51.51 0 0 0 .021-.035c.036-.065.067-.136.095-.21.006-.014.01-.027.015-.042s.009-.023.013-.034l1.382-3.835c.039-.107.095-.21.19-.415l.101.405.403 1.628.069.275.126.514.127.514.511 2.054.264 1.026c.003.013.007.025.011.038.008.026.017.05.027.076s.018.046.03.067.022.044.034.066c.025.044.052.086.082.124a.49.49 0 0 0 .054.062c.038.039.078.073.119.098a.5.5 0 0 0 .655-.078.59.59 0 0 0 .068-.079c.007-.01.015-.019.021-.03a.64.64 0 0 0 .044-.072c.005-.008.01-.016.014-.025s.01-.02.015-.031l.012-.027a.56.56 0 0 0 .026-.064.62.62 0 0 0 .018-.054c.007-.023.014-.046.02-.07l1.091-4.426c.245-.989.494-1.977.827-2.971l.355 1.117.211.687.418 1.376.206.689a2.22 2.22 0 0 0 .038.117c.014.038.03.074.046.108a.94.94 0 0 0 .054.098.68.68 0 0 0 .065.085.41.41 0 0 0 .038.037.55.55 0 0 0 .085.062c.011.006.022.013.034.018l.007.003c.006.003.014.006.021.009.032.014.066.025.104.032a.52.52 0 0 0 .053.008.89.89 0 0 0 .068.005h.022a.54.54 0 0 0 .063-.003c.046-.003.09-.013.129-.026.021-.006.023-.006.026-.009.008-.004.016-.006.023-.01.013-.005.026-.01.037-.018s.03-.018.045-.027a.47.47 0 0 0 .042-.032.4.4 0 0 0 .038-.035.41.41 0 0 0 .036-.038.5.5 0 0 0 .036-.046.79.79 0 0 0 .041-.06.26.26 0 0 0 .019-.032c.006-.011.013-.022.018-.033.011-.021.022-.042.033-.065a1.89 1.89 0 0 0 .037-.081l.012-.027.207-.498.315-.745.317-.745c.035-.083.081-.162.145-.29l.575 1.277c.015.036.032.07.049.102a.86.86 0 0 0 .026.046.89.89 0 0 0 .028.046 1.16 1.16 0 0 0 .08.109 1.23 1.23 0 0 0 .044.047c.013.014.026.026.041.038.026.022.04.034.055.044.034.025.069.046.106.065a.6.6 0 0 0 .062.027c.018.007.038.014.058.019.013.005.027.008.041.01s.022.006.034.008c.018.004.038.007.057.01a.69.69 0 0 0 .06.006c.007.001.014.002.021.001a.66.66 0 0 0 .057.002c.039.001.08 0 .122-.005.368-.032.74-.006 1.214-.006-.194.252-.326.438-.472.614l-.229.27-.231.268-.233.266-.192.215-.126.14-.241.263-.256.274-.2.211-.297.307-.072.074-.308.31-.253.25c-.039.039-.078.077-.118.114-.009.01-.017.018-.025.025l-.154.149-.154.147-.341.32-.178.163-.178.162-.278.249-.28.246-.166.144-.366.31-.23.191a6.55 6.55 0 0 1-.145.119l-.359.29-.351.278-.255.198-.233.178a1.82 1.82 0 0 1-.066.05l-.262.196-.252.185-.239.174-.453.32-.322.222-.324.22c-.043.029-.085.055-.126.078-.018.01-.035.019-.053.028s-.044.022-.066.03c-.008.004-.017.007-.025.01a.25.25 0 0 1-.036.013c-.017.005-.024.007-.032.009-.019.006-.028.008-.036.01-.018.004-.035.007-.053.009-.046.004-.081.004-.117.001h.001zm9.238-9.504c-.116 0-.232-.002-.348-.005a10.4 10.4 0 0 1-.354-.016c-.011-.001-.022-.002-.034-.005s-.019-.004-.03-.007a.4.4 0 0 1-.04-.014c-.046-.018-.091-.045-.132-.077a.76.76 0 0 1-.046-.04.4.4 0 0 1-.086-.11c-.324-.657-.62-1.327-.921-1.995-.022-.05-.046-.097-.072-.142s-.053-.086-.083-.123c-.007-.009-.014-.018-.022-.026-.041-.046-.086-.086-.138-.117-.014-.009-.029-.017-.044-.024-.029-.014-.06-.026-.093-.034s-.042-.01-.056-.012a.67.67 0 0 0-.145-.01 1.37 1.37 0 0 0-.061.004.57.57 0 0 0-.117.025.32.32 0 0 0-.042.015.46.46 0 0 0-.088.046c-.014.009-.027.018-.039.029s-.025.021-.037.032a.48.48 0 0 0-.057.063c-.005.006-.01.011-.014.018a.64.64 0 0 0-.045.066.91.91 0 0 0-.032.055 1.53 1.53 0 0 0-.047.096l-.022.051-.205.486-.617 1.455-.094-.016-1.079-3.549-.228-.766-.018-.064-.02-.063c-.017-.052-.035-.103-.057-.151a.94.94 0 0 0-.023-.05 1.14 1.14 0 0 0-.033-.06c-.007-.014-.015-.026-.024-.038l-.013-.018c-.009-.013-.018-.025-.029-.036s-.014-.018-.022-.026-.013-.013-.018-.018-.013-.012-.019-.018c-.017-.014-.028-.023-.04-.031s-.014-.01-.022-.014-.014-.009-.022-.013a.43.43 0 0 0-.086-.037c-.01-.003-.021-.006-.031-.009a.35.35 0 0 0-.042-.01c-.017-.003-.034-.006-.053-.007-.031-.004-.063-.005-.098-.004-.01 0-.021.001-.031.002s-.014.001-.021.002c-.017.002-.034.003-.05.006-.007 0-.014.002-.021.003-.022.004-.042.009-.062.014-.014.004-.026.009-.039.014-.006.002-.013.004-.019.007-.03.014-.042.019-.053.026a.26.26 0 0 0-.032.019c-.01.007-.021.014-.03.022l-.028.024c-.01.008-.018.017-.027.026a.48.48 0 0 0-.045.054.47.47 0 0 0-.031.046c-.011.017-.021.034-.03.053a.52.52 0 0 0-.018.037c-.006.011-.011.022-.015.034-.01.025-.02.05-.029.075s-.018.052-.026.079c-.014.048-.027.098-.039.148l-1.049 4.27-.131.528-.085.332-.074.286c-.124.471-.256.943-.405 1.415l-.071.222-.012.037-.366-1.46-.366-1.463-.365-1.474-.363-1.474a1.8 1.8 0 0 0-.032-.115c-.011-.038-.023-.074-.037-.11-.005-.013-.011-.026-.016-.038a.44.44 0 0 0-.022-.048.24.24 0 0 0-.013-.025.61.61 0 0 0-.09-.127c-.01-.011-.022-.022-.034-.032s-.026-.022-.039-.031a.58.58 0 0 0-.042-.027h-.001c-.009-.005-.018-.01-.027-.014l-.037-.016c-.015-.006-.03-.011-.047-.015-.009-.002-.018-.005-.026-.006s-.014-.003-.021-.004c-.014-.002-.025-.005-.036-.006a.42.42 0 0 0-.052-.006.67.67 0 0 0-.113.001c-.031.002-.049.005-.066.008a.38.38 0 0 0-.046.01c-.029.008-.046.014-.062.021s-.033.014-.048.022-.025.014-.037.022a.22.22 0 0 0-.026.018c-.02.015-.026.021-.033.026a.55.55 0 0 0-.065.065c-.022.027-.044.056-.063.087a1.1 1.1 0 0 0-.054.099c-.014.026-.026.053-.037.081l-.033.086-.231.638-1.158 3.191-.026.07-.029.074a1.92 1.92 0 0 0-.026.066.39.39 0 0 0-.011.027l-.081.2c-.005.014-.011.029-.017.043v-.002l-.08-.337-.078-.33-.113-.48-.11-.466-.213-.911-.336-1.44-1.005-4.322c-.079-.342-.236-.609-.62-.621-.418-.014-.564.282-.647.633l-.927 3.914-.307 1.306-.403 1.742a1.18 1.18 0 0 1-.016.062c-.01.04-.022.077-.034.111s-.026.065-.042.092a.33.33 0 0 1-.024.04.38.38 0 0 1-.056.066c-.01.01-.022.019-.033.027s-.018.013-.027.018-.026.015-.041.021c-.006.003-.012.006-.018.008-.013.005-.024.008-.035.011-.072.022-.161.03-.271.026l-.214-.006-.133-.005c-.021 0-.042-.002-.062-.002-.038-.002-.075-.004-.11-.006a2.22 2.22 0 0 1-.081-.006c-.052-.005-.099-.01-.142-.018-.026-.005-.051-.01-.075-.016l-.035-.01a.84.84 0 0 1-.063-.022.81.81 0 0 1-.053-.023.68.68 0 0 1-.042-.022c-.01-.006-.02-.014-.03-.02s-.026-.018-.038-.029a.82.82 0 0 1-.067-.063c-.022-.023-.043-.049-.065-.077-.011-.014-.022-.029-.033-.044-.021-.03-.042-.062-.064-.097a8.06 8.06 0 0 1-.278-.509l-.098-.195-.022-.044a5.22 5.22 0 0 1-.086-.179l-.082-.181-.052-.119c-.056-.13-.109-.26-.158-.392a2.27 2.27 0 0 1-.03-.078c-.014-.038-.028-.075-.041-.113-.004-.01-.008-.02-.011-.03l-.048-.142c-.018-.053-.035-.105-.052-.158a6.85 6.85 0 0 1-.072-.24c-.014-.046-.026-.091-.038-.138-.01-.034-.018-.07-.027-.104a3.99 3.99 0 0 1-.031-.124l-.028-.12-.027-.122a3.47 3.47 0 0 1-.02-.098 3.26 3.26 0 0 1-.03-.149l-.045-.266-.021-.139-.014-.109c-.006-.037-.01-.074-.014-.11l-.02-.189-.016-.19-.008-.128-.008-.169v-.009a6.21 6.21 0 0 1-.002-.273v-.036-.027a.82.82 0 0 1 .002-.063c.005-.133.013-.249.024-.364l.008-.079c0-.025.003-.042.006-.058l.018-.13c0-.01.002-.02.004-.03l.026-.158a1.95 1.95 0 0 1 .023-.122c.006-.034.014-.067.021-.101a5.19 5.19 0 0 1 .053-.22l.026-.099a.08.08 0 0 1 .006-.026l.026-.092.034-.107.047-.142a4.64 4.64 0 0 1 .105-.278c.038-.091.077-.181.118-.27s.086-.178.131-.264c.022-.043.046-.086.07-.13a6.24 6.24 0 0 1 .31-.498 2.96 2.96 0 0 1 .085-.119c.018-.027.038-.054.059-.08.005-.007.01-.014.017-.022.013-.018.026-.034.039-.051.031-.041.064-.082.098-.122.004-.007.01-.014.017-.021.032-.04.066-.079.1-.118l.06-.068a4.11 4.11 0 0 1 .097-.106c.148-.159.306-.31.471-.452l.11-.094.095-.077.147-.113c.046-.035.094-.069.142-.102l.126-.086c.027-.018.054-.036.082-.054.037-.025.075-.048.113-.071l.125-.074c.031-.018.063-.037.096-.054a2.56 2.56 0 0 1 .08-.044c.051-.028.103-.055.156-.082.007-.003.014-.007.022-.01.05-.026.102-.05.154-.074a3.56 3.56 0 0 1 .097-.044c.042-.019.086-.038.129-.055.029-.013.058-.025.087-.036l.088-.034.088-.033c.03-.011.059-.022.089-.031l.062-.021c.007-.003.014-.006.022-.007.029-.01.057-.019.086-.028a5.75 5.75 0 0 1 .284-.081c.048-.013.096-.024.144-.035l.116-.026.055-.011a4.66 4.66 0 0 1 .206-.038 1.77 1.77 0 0 1 .09-.014c.03-.005.061-.009.091-.013l.189-.022c.038-.005.061-.006.084-.008l.08-.006a4.73 4.73 0 0 1 .238-.013c.022 0 .043-.002.065-.002.154-.003.308-.001.463.008a6.12 6.12 0 0 1 .341.03c.229.026.458.066.689.12 1.592.374 2.834 1.25 3.749 2.598.027.04.054.078.082.114s.055.068.082.098.055.057.082.083.055.047.082.068a.86.86 0 0 0 .073.047c.01.006.021.012.031.017a.27.27 0 0 0 .031.014l.037.014c.012.005.024.009.037.012.027.007.055.012.083.015a.63.63 0 0 0 .078 0c.018-.002.023-.002.027-.003s.014-.002.022-.003l.033-.007c.007-.002.014-.004.021-.006.014-.004.027-.009.041-.014a.56.56 0 0 0 .055-.025c.009-.005.018-.01.027-.015.018-.01.037-.022.055-.035l.027-.02a.67.67 0 0 0 .054-.045l.029-.026a.46.46 0 0 0 .028-.028 1.13 1.13 0 0 0 .051-.055c.052-.058.102-.125.153-.2l.112-.162a5.45 5.45 0 0 1 .113-.154c.043-.057.082-.106.122-.156s.081-.099.122-.147a6.19 6.19 0 0 1 .259-.283c.044-.046.089-.09.135-.134a5.5 5.5 0 0 1 .279-.254c.381-.326.797-.599 1.238-.817a6.01 6.01 0 0 1 1.392-.486c.121-.026.242-.049.366-.067a5.55 5.55 0 0 1 .166-.023c.01-.002.019-.003.03-.004.042-.005.084-.01.126-.013.009-.002.018-.003.027-.003.018-.002.034-.003.053-.005.036-.004.071-.006.106-.008a1.16 1.16 0 0 1 .074-.005c.052-.004.104-.006.156-.007h.014c.015-.002.018-.002.02-.001.01-.001.018-.001.028 0a3.92 3.92 0 0 1 .257-.001c.031 0 .063.001.095.002.182.006.366.02.55.043l.101.013a1.55 1.55 0 0 1 .06.009c.038.005.074.011.112.018.043.006.086.014.129.022.086.016.171.034.257.054l.116.027c.039.009.059.014.08.02l.142.038.102.03a4.58 4.58 0 0 1 .305.102l.058.022c.024.009.048.018.072.028.056.022.11.045.166.068a5.27 5.27 0 0 1 .182.082 3.19 3.19 0 0 1 .106.051c.035.017.07.035.105.054s.066.035.1.054a3.3 3.3 0 0 1 .106.059 5.75 5.75 0 0 1 .224.136c.026.016.051.032.076.05a5.1 5.1 0 0 1 .234.162c.027.019.054.039.08.059l.106.082c.029.022.058.045.086.069.019.015.038.03.057.046a5.67 5.67 0 0 1 .3.27l.098.096a4.01 4.01 0 0 1 .099.102l.095.102a5.49 5.49 0 0 1 .19.219l.09.111c.032.04.063.081.094.122l.093.127a2.74 2.74 0 0 1 .067.097l.078.116c.022.033.042.066.063.099l.09.148c.04.068.078.136.115.206l.081.158.077.159a5.98 5.98 0 0 1 .122.285 1.76 1.76 0 0 1 .027.069l.051.138c.01.028.02.056.03.084l.028.084c.013.038.024.075.035.113a1.3 1.3 0 0 1 .028.095c.002.006.004.013.006.019.021.076.041.153.059.23.01.039.018.078.026.117a2.52 2.52 0 0 1 .023.112l.036.205.022.154a4.75 4.75 0 0 1 .026.239c.003.032.006.063.008.095l.008.146a3.03 3.03 0 0 1 .005.122c.002.063.002.127.002.19l-.002.142c0 .029-.002.058-.002.088 0 .037-.002.062-.002.086a6.46 6.46 0 0 1-.011.215c-.002.029-.004.058-.006.087s-.005.059-.007.089l-.013.137c-.01.106-.024.21-.038.316l-.034.213-.034.184c-.012.064-.025.128-.039.191a4.42 4.42 0 0 1-.034.148l-.03.122c-.02.081-.041.161-.064.241a2.74 2.74 0 0 1-.031.108 8.81 8.81 0 0 1-.158.486l-.046.124-.049.128-.059.148c-.018.046-.038.091-.058.137a3.79 3.79 0 0 1-.053.122l-.068.15-.066.142-.126.25-.057.11-.074.136-.069.125a4.75 4.75 0 0 1-.07.122 6.8 6.8 0 0 1-.085.145l-.178.286c-.062.097-.233.17-.356.175a17.34 17.34 0 0 1-.736.017h.003zm9.595 18.59c-.012 2.122-1.42 3.542-3.541 3.544H4.763c-2.124-.001-3.535-1.419-3.547-3.539l-.01-3.24c-.01-.388.11-.488.492-.487l18.314.008h18.234c.351 0 .528.171.529.514l-.002 3.2zm0-5.222c0 .078-.013.156-.024.278H1.235l-.003-.06-.003-.059c-.006-.115-.013-.223-.013-.33L1.207 18.33c0-.082.003-.151.014-.21.004-.022.006-.026.007-.032a.62.62 0 0 1 .013-.046c.005-.013.01-.026.017-.038s.012-.022.019-.031a.29.29 0 0 1 .025-.029c.009-.009.018-.018.029-.026a.22.22 0 0 1 .033-.019c.006-.004.013-.007.019-.01l.025-.01a.27.27 0 0 1 .027-.008c.018-.006.038-.01.06-.013.01-.002.019-.002.03-.004.022-.002.03-.003.037-.003s.015-.002.023-.002a1.26 1.26 0 0 1 .08-.002l1.281.008 1.281.004 4.555-.009a.69.69 0 0 1 .058.002c.01 0 .02.001.03.002.017.002.033.003.049.006a.46.46 0 0 1 .035.006c.016.002.031.006.046.01s.023.006.034.01.015.005.022.007.014.006.022.009c.02.007.038.016.057.026l.022.012a.31.31 0 0 1 .037.023c.009.006.018.012.027.019a.71.71 0 0 1 .061.051.4.4 0 0 1 .032.032.96.96 0 0 1 .063.073c.011.013.021.026.031.04l.465.616.118.152.119.151.24.3a6.48 6.48 0 0 0 .116.143l.118.143a.36.36 0 0 0 .032.039l.15.181a3.8 3.8 0 0 0 .091.107.14.14 0 0 0 .018.021l.007.007.203.238c.016.02.033.039.05.058l.201.23a35.05 35.05 0 0 0 1.185 1.271c.033.034.066.068.101.102l.205.206.271.266.312.299.144.135c.046.044.092.086.138.129l.114.105.51.458.201.175c.042.038.084.074.127.11l.128.11.257.216.128.106.502.407.319.25c.007.006.014.012.022.017l.142.109a5.75 5.75 0 0 0 .162.123l.218.163.218.161.146.106.154.11.142.102.252.177.253.174.197.134.198.132.229.15.23.149c.033.02.065.041.097.062.31.198.624.39.942.578l.134.08a1.47 1.47 0 0 0 .076.041.52.52 0 0 0 .072.029c.056.018.11.026.163.022a.28.28 0 0 0 .05-.007c.009-.002.018-.004.028-.006l.032-.01a.84.84 0 0 0 .15-.071l.329-.196.338-.206.141-.087.368-.233.246-.159.145-.095.199-.132c.007-.005.015-.01.022-.015l.081-.054.438-.3.197-.138c.041-.028.082-.058.122-.087l.284-.204c.033-.023.065-.047.097-.071l.206-.152a1.62 1.62 0 0 0 .059-.044 1.59 1.59 0 0 0 .058-.044 10.91 10.91 0 0 0 .188-.142.24.24 0 0 0 .022-.018l.334-.258.135-.106.669-.542.23-.194.132-.113.182-.157.019-.017.149-.131.541-.486.245-.229c.037-.034.074-.069.111-.105l.215-.205.262-.256.103-.102c.165-.162.326-.327.486-.494l.194-.202.19-.202.189-.204.218-.239.246-.276.243-.278.091-.106.162-.19.077-.091.044-.052c.024-.028.035-.042.045-.054l.148-.178.275-.34.22-.278.122-.157.462-.609a1.18 1.18 0 0 1 .127-.147c.01-.009.02-.018.03-.027s.021-.018.033-.027.022-.017.034-.025a.86.86 0 0 1 .035-.022c.018-.011.036-.021.054-.03a.62.62 0 0 1 .058-.024c.007-.002.014-.006.022-.008a.72.72 0 0 1 .059-.017c.018-.005.022-.005.024-.006a.85.85 0 0 1 .095-.014 1.19 1.19 0 0 1 .122-.006l7.117.003a1.47 1.47 0 0 1 .106.003.75.75 0 0 1 .08.01c.012.002.022.004.033.007s.025.008.036.013.022.01.032.016.014.009.022.014.015.014.022.022c.013.014.017.019.02.025s.012.019.017.03.007.015.01.024.005.016.006.023c.004.013.007.026.009.041s.003.019.005.03.003.022.003.033.002.016.002.024c.002.017.002.034.002.053l-.007 11.799h.001z" fill="#3f51b5"/><g fill="#fff"><path d="M1.228 30.179l.006.119h-.001l-.006-.119zm29.658 7.101l-.67.002h.67l2.239-.004-2.239.002zM8.18 10.882l-.024.349.024-.349zm-.011 1.068l-.009-.126-.009-.451.01.45.008.127zm.534-2.981l.13-.264-.13.264zm.201-.394c.095-.171.199-.337.31-.498l-.31.498zm1.586 8.071l.133.005-.133-.005zm4.067-11.21l.341.03-.341-.03zm1.121 9.525l.213.911-.214-.91-.335-1.441.336 1.44zm.323 1.377l.113.48-.113-.48zm.19.81l.08.337-.079-.337h-.001zm.215.002l.055-.144-.055.144zm2.129-4.522a.86.86 0 0 0-.114.001.67.67 0 0 1 .114-.001zm.573.622l.363 1.474-.364-1.474-.031-.115.032.115zm1.093 4.41l.366 1.46-.366-1.46zm4.818-1.34l.094.016-.094-.016zm1.208-2.336a.46.46 0 0 1 .088-.046.51.51 0 0 0-.088.046zM10.69 17.858l.014.023c-.006-.007-.01-.015-.015-.023h.001zm2.914-5.616l-.032.103.032-.103zm.02-.051a.79.79 0 0 1 .05-.101.79.79 0 0 0-.05.101zm4.757 3.172l.101.405-.101-.405zm1.162 10.63l.021.014c-.006-.003-.014-.008-.021-.013l-.613-.418.613.418zm.063.04l.118.062c-.038-.017-.078-.038-.118-.062zm.174.085a.7.7 0 0 0 .107.03.57.57 0 0 1-.107-.03zm.266.038a.53.53 0 0 1-.158-.007.56.56 0 0 0 .158.007zm5.564-7.867l.208-.498-.207.498-.012.027.011-.027z"/></g><g fill="#3f51b5"><path d="M33.113 33.044l-4.398-.001c-1.209.009-2.153.952-2.148 2.122s.95 2.099 2.159 2.115l.819.004.67-.002h.67l2.239-.004c1.193-.022 2.092-.942 2.09-2.125s-.901-2.099-2.101-2.109zm.842 2.297a.87.87 0 0 1-.073.213l-.044.077-.017.025-.018.024a.51.51 0 0 1-.038.047l-.042.044-.045.042-.034.028a.51.51 0 0 1-.054.039l-.077.046-.018.01c-.01.006-.019.01-.029.014l-.019.009-.063.026-.052.018-.096.026-.052.01-.071.01-.058.006-.059.002h-.024l-.798.005c-.425 0-.851-.002-1.276-.002-.665 0-1.329.004-1.995-.001-.03 0-.059-.002-.088-.003l-.078-.007c-.026-.002-.053-.006-.078-.011l-.05-.01-.044-.01-.051-.014a.85.85 0 0 1-.096-.034l-.043-.019-.046-.023-.042-.025-.04-.026-.038-.028a.68.68 0 0 1-.07-.061l-.031-.031-.035-.042-.03-.039c-.01-.013-.018-.026-.027-.041l-.022-.038-.01-.018c-.007-.013-.013-.026-.018-.038a.66.66 0 0 1-.032-.083c-.01-.029-.018-.058-.024-.089-.004-.014-.006-.03-.009-.046l-.009-.071-.004-.074.002-.102a.24.24 0 0 1 .004-.042l.004-.029.008-.046a.83.83 0 0 1 .022-.088c.003-.012.007-.025.012-.036l.018-.049a.7.7 0 0 1 .058-.111l.054-.078.029-.034.03-.033a.77.77 0 0 1 .066-.059c.022-.019.046-.037.072-.053l.051-.03a.41.41 0 0 1 .042-.022l.074-.034.046-.017a1.17 1.17 0 0 1 .199-.05c.07-.012.144-.018.222-.018l1.013-.003 3.055.004.056.002a.46.46 0 0 1 .038.002l.03.002.074.01.051.009.049.01.054.014a.51.51 0 0 1 .053.017c.072.025.138.057.198.094l.036.024.046.034.043.037.047.046.043.05a.68.68 0 0 1 .044.062l.03.048c.015.026.028.052.04.079s.022.055.031.084l.012.044.01.045.008.045v.002l.006.046.004.048.002.049a.9.9 0 0 1-.019.19h.001zm-19.79-2.299c-1.178-.006-2.141.95-2.138 2.122.003 1.154.955 2.11 2.106 2.116 1.185.006 2.126-.934 2.126-2.125s-.926-2.107-2.094-2.113zm.83 2.281l-.006.027a.76.76 0 0 1-.033.11l-.024.058-.029.059-.031.054a.71.71 0 0 1-.05.072l-.04.05-.029.031c-.009.01-.019.02-.03.03l-.03.029-.033.027-.067.049a.77.77 0 0 1-.263.114l-.047.01-.044.006c-.024.003-.049.004-.073.004s-.041-.001-.061-.003l-.03-.003-.07-.013-.058-.017-.057-.022a.87.87 0 0 1-.073-.035l-.057-.034a.89.89 0 0 1-.094-.072l-.023-.021c-.029-.026-.057-.056-.082-.087l-.027-.035a.31.31 0 0 1-.026-.037.57.57 0 0 1-.027-.043c-.01-.014-.018-.03-.026-.045l-.023-.047a.43.43 0 0 1-.019-.044l-.019-.053c-.017-.048-.029-.098-.037-.149-.002-.008-.002-.016-.003-.024a.45.45 0 0 1-.005-.047c-.002-.011-.002-.022-.002-.033l-.001-.042c.003-.481.389-.889.84-.887.441.002.833.43.828.903a.77.77 0 0 1-.018.161zm-8.096-2.281c-1.179-.008-2.113.91-2.123 2.088-.01 1.202.917 2.15 2.105 2.15 1.17-.001 2.096-.931 2.102-2.111s-.911-2.118-2.084-2.126zm.843 2.13a.49.49 0 0 1-.005.066c0 .014-.002.027-.005.041a.32.32 0 0 1-.007.04.79.79 0 0 1-.035.127c-.003.01-.007.02-.011.03a.72.72 0 0 1-.043.094l-.018.032-.02.033c-.005.009-.009.015-.014.021l-.035.05-.033.041a.68.68 0 0 1-.057.061l-.021.019a.72.72 0 0 1-.086.071l-.069.046a.77.77 0 0 1-.196.084l-.038.01-.038.007c-.012.001-.024.004-.036.005a.58.58 0 0 1-.075.005h-.015a.35.35 0 0 1-.041-.002c-.008 0-.016-.001-.024-.002l-.056-.008-.058-.014-.058-.019a.78.78 0 0 1-.11-.051l-.035-.021-.034-.022-.065-.05-.031-.027a1 1 0 0 1-.137-.158l-.02-.03a1.07 1.07 0 0 1-.064-.118l-.024-.059-.011-.03-.018-.062-.007-.031a.85.85 0 0 1-.022-.207.8.8 0 0 1 .014-.146c.003-.023.006-.029.007-.034l.009-.036.022-.069a.9.9 0 0 1 .056-.127l.027-.046c.026-.042.055-.082.088-.12l.034-.037c.009-.01.019-.02.03-.03a.81.81 0 0 1 .062-.055.88.88 0 0 1 .102-.07l.029-.016.03-.015.022-.01a.57.57 0 0 1 .046-.019l.024-.009.036-.011a.54.54 0 0 1 .071-.017l.028-.004.038-.005.031-.002h.044l.051.003.055.007c.018.002.036.006.054.011l.039.011.034.011a.79.79 0 0 1 .15.073.53.53 0 0 1 .067.046l.024.019.024.02.031.028.043.045a.26.26 0 0 1 .027.031.49.49 0 0 1 .031.04.78.78 0 0 1 .043.062.66.66 0 0 1 .042.073l.018.039.016.038.016.042.013.04a.91.91 0 0 1 .033.157l.004.045.002.054v.018zm13.71-2.13c-1.183-.012-2.15.934-2.153 2.106-.003 1.158.943 2.121 2.093 2.13a2.11 2.11 0 0 0 2.143-2.11c.005-1.171-.919-2.115-2.083-2.126zm.867 2.205l-.005.039-.006.038-.008.038a.82.82 0 0 1-.04.13l-.015.036-.022.046a.3.3 0 0 1-.019.035l-.034.057-.039.054-.025.03a.85.85 0 0 1-.064.067l-.028.026-.034.029-.042.032-.046.03-.051.029-.065.031a.6.6 0 0 1-.082.03l-.032.01-.032.008a.9.9 0 0 1-.133.021l-.09.002-.051-.002a.99.99 0 0 1-.185-.034l-.058-.019-.031-.012-.058-.026-.073-.042-.046-.031-.042-.032-.046-.041c-.038-.035-.073-.074-.104-.117l-.032-.046-.022-.036c-.004-.006-.007-.013-.01-.019l-.03-.058-.021-.05-.018-.049a.35.35 0 0 1-.014-.046l-.017-.078a.43.43 0 0 1-.007-.046l-.006-.067-.002-.054a1 1 0 0 1 .016-.175l.009-.042.006-.022a.5.5 0 0 1 .02-.067c.005-.02.008-.025.01-.029s.006-.015.009-.023l.01-.022.012-.026a.74.74 0 0 1 .038-.07l.023-.035a.5.5 0 0 1 .034-.047l.046-.055.03-.031.054-.05.025-.02.044-.032.046-.03.038-.022.079-.038.084-.03.072-.018.044-.008.034-.005a.48.48 0 0 1 .059-.006l.066-.002h.011a.67.67 0 0 1 .09.006l.088.014a.88.88 0 0 1 .165.053c.053.022.102.05.149.083l.034.025a.68.68 0 0 1 .065.055l.049.05.021.023.026.032.021.028.02.029.036.06c.005.007.009.014.012.022l.027.059.02.051a.9.9 0 0 1 .04.155l.005.036.005.046a.24.24 0 0 1 .002.034v.041l-.004.087h.001z"/></g><g fill="#fff"><path d="M6.071 35.137a.85.85 0 0 0 .022.207.84.84 0 0 1-.022-.207.88.88 0 0 1 .015-.146.88.88 0 0 0-.014.146zm.082.389a1.01 1.01 0 0 0 .061.112.84.84 0 0 1-.061-.112zm.085.148a1 1 0 0 0 .137.158.94.94 0 0 1-.137-.158z"/></g></g><defs><clipPath id="A"><path fill="#fff" d="M0 0h40v40H0z"/></clipPath></defs></svg>