<svg width="40" height="41" viewBox="0 0 40 41" fill="none" xmlns="http://www.w3.org/2000/svg">
<path d="M23.334 20.0019C23.334 20.6611 23.1385 21.3056 22.7722 21.8538C22.4059 22.4019 21.8853 22.8292 21.2763 23.0815C20.6672 23.3338 19.997 23.3998 19.3503 23.2712C18.7037 23.1425 18.1098 22.8251 17.6436 22.3589C17.1775 21.8927 16.86 21.2988 16.7314 20.6522C16.6027 20.0056 16.6688 19.3353 16.9211 18.7263C17.1733 18.1172 17.6006 17.5966 18.1487 17.2303C18.6969 16.864 19.3414 16.6685 20.0007 16.6685C20.8839 16.6713 21.7301 17.0234 22.3546 17.6479C22.9792 18.2724 23.3312 19.1187 23.334 20.0019ZM30.4173 15.4185V24.5852C30.4173 26.1323 29.8027 27.616 28.7088 28.71C27.6148 29.804 26.1311 30.4185 24.584 30.4185H15.4173C13.8702 30.4185 12.3865 29.804 11.2925 28.71C10.1986 27.616 9.58398 26.1323 9.58398 24.5852V15.4185C9.58398 13.8714 10.1986 12.3877 11.2925 11.2937C12.3865 10.1998 13.8702 9.58521 15.4173 9.58521H24.584C26.1311 9.58521 27.6148 10.1998 28.7088 11.2937C29.8027 12.3877 30.4173 13.8714 30.4173 15.4185ZM25.0006 20.0019C25.0006 19.013 24.7074 18.0463 24.158 17.224C23.6086 16.4018 22.8277 15.7609 21.9141 15.3825C21.0004 15.004 19.9951 14.905 19.0252 15.0979C18.0553 15.2909 17.1644 15.7671 16.4651 16.4663C15.7659 17.1656 15.2897 18.0565 15.0967 19.0264C14.9038 19.9963 15.0028 21.0017 15.3813 21.9153C15.7597 22.8289 16.4006 23.6098 17.2228 24.1592C18.045 24.7086 19.0117 25.0019 20.0007 25.0019C21.3267 25.0019 22.5985 24.4751 23.5362 23.5374C24.4739 22.5997 25.0006 21.328 25.0006 20.0019ZM26.6673 14.5852C26.6673 14.338 26.594 14.0963 26.4567 13.8907C26.3193 13.6852 26.1241 13.525 25.8957 13.4304C25.6673 13.3357 25.4159 13.311 25.1735 13.3592C24.931 13.4075 24.7082 13.5265 24.5334 13.7013C24.3586 13.8761 24.2396 14.0989 24.1913 14.3413C24.1431 14.5838 24.1679 14.8352 24.2625 15.0636C24.3571 15.292 24.5173 15.4872 24.7229 15.6245C24.9284 15.7619 25.1701 15.8352 25.4173 15.8352C25.7488 15.8352 26.0668 15.7035 26.3012 15.4691C26.5356 15.2347 26.6673 14.9167 26.6673 14.5852Z" fill="white"/>
<rect x="0.5" y="0.501709" width="39" height="39" rx="19.5" stroke="white"/>
</svg>
