<svg xmlns="http://www.w3.org/2000/svg" width="40" height="40" fill="none" xmlns:v="https://vecta.io/nano"><g clip-path="url(#A)" fill="#3f51b5"><path d="M38.157 13.438c-1.454-1.328-3.767-.749-4.454 1.129-.042.116-.088.199-.149.257a.28.28 0 0 1-.05.038.3.3 0 0 1-.069.035c-.022.008-.048.015-.074.02l-.042.006a.56.56 0 0 1-.054.004l-.069.001-.294-.006-.302-.004a69.53 69.53 0 0 0-1.226 0l-.659.007c-.242.003-.331-.064-.386-.322l-.087-.388-.158-.577-.062-.19-.142-.37-.082-.184-.137-.269-.048-.087-.197-.342-.284-.486 3.979-4.009h.001l.066.055.221.183a3.77 3.77 0 0 0 .402.281l.14.081.29.142.149.062.131.048.096.032.137.041.038.01.196.046.033.007.194.034.195.024.104.009.187.01h.005a4.02 4.02 0 0 0 .588-.029l.122-.017.243-.045.122-.028.138-.037.273-.088.202-.079.151-.066.147-.073.097-.052.192-.113a3.5 3.5 0 0 0 .483-.363l.174-.168c.893-.917 1.329-2.314 1.038-3.573l-.034-.141-.079-.273a4.44 4.44 0 0 0-.198-.512l-.119-.238a3.8 3.8 0 0 0-.204-.334l-.153-.206a3.32 3.32 0 0 0-.255-.286l-.186-.175-.201-.162-.214-.148c-.33-.212-.706-.377-1.128-.493-1.073-.294-2.066-.202-2.928.28l-.177.105c-.174.11-.342.238-.505.382l-.161.15-.307.332c-.761.903-1.045 1.903-.903 2.957l.034.209.101.423a5.2 5.2 0 0 0 .187.535l.022.06c.044.128.043.22-.022.318a.6.6 0 0 1-.052.066l-.034.035-.611.605-.456.456-.454.457-.91.914h-.001l-.186.185-.559.555-.743.735h-.001l-.24-.165h-.001l-.239-.154-.242-.143-.359-.194-.479-.222-.239-.095h-.001l-.508-.167-.382-.094-.507-.083-.325-.028c-.209-.012-.418-.012-.626 0l-.468.048h-.002l-.312.054-.158.034-.229.058-.343.105h-.001l-.332.122h-.001l-.333.142-.166.078-.364.19-.121.068-.242.145-.242.155-.243.166-.57-.591-.758-.774-.191-.189h-.001a1.23 1.23 0 0 1-.105-.117.87.87 0 0 1-.058-.092l-.019-.047a.35.35 0 0 1-.014-.046c-.021-.103.002-.214.076-.35.091-.167.125-.384.126-.578l.003-6.239c-.002-.568-.269-1.034-.714-1.371l-.095-.067C17.98.235 17.719.13 17.476 0H3.398l-.253.105c-.804.292-1.326.954-1.334 1.812l.002 6.08c.013.993.717 1.804 1.704 1.85l4.876.042c.065 0 .153-.007.19-.048.137-.148.33-.299.359-.474.028-.157-.089-.394-.218-.507-.121-.106-.343-.13-.521-.131l-4.2-.006c-.743-.002-1.029-.278-1.03-1.003V2.16c.002-.709.286-.982 1.005-.983h12.878c.736.001 1.013.278 1.014 1.016v5.48c-.001.778-.275 1.05-1.065 1.05l-5.439.002c-.133 0-.308-.039-.39.029-.178.148-.385.334-.438.541-.066.258.106.49.395.558.154.036.316.046.474.046l4.64-.002 1.63-.097c.083-.004.194.013.249.065l1.821 1.797-.186.267c-.93 1.289-1.322 2.725-1.121 4.302.042.334-.07.471-.328.619l-6.263 3.623c-.303.178-.458.12-.697-.119-1.787-1.786-3.943-2.385-6.348-1.658-2.544.77-4.066 2.582-4.417 5.207-.346 2.592.636 4.719 2.845 6.133s4.541 1.422 6.754.01 3.16-3.517 2.861-6.123c-.088-.766-.389-1.508-.612-2.333l6.559-3.794.125.202c.647 1.404 1.689 2.404 3.089 3.051.122.057.237.276.238.42l.008 5.32c0 .194-.026.389-.046.69l-.295-.398-1.204-1.384c-.756-.726-1.682-.994-2.726-.85-1.583.221-2.185 1.597-1.282 2.916l5.061 7.437c.63.927 1.023 1.942.982 3.072-.031.836.279 1.409 1.052 1.729h9.838c.286-.102.511-.241.681-.416l.079-.09a.92.92 0 0 0 .072-.097 1.19 1.19 0 0 0 .059-.096 1.43 1.43 0 0 0 .121-.287l.031-.12.024-.128a1.57 1.57 0 0 0 .012-.091 2.48 2.48 0 0 0 .011-.374 23.06 23.06 0 0 1-.007-1.852l.002-.064.012-.243.028-.402c.03-.299.086-.597.224-.835a6.34 6.34 0 0 0 .577-1.34l.088-.323.068-.301a6.7 6.7 0 0 0 .048-.253l.026-.166.028-.203a8.6 8.6 0 0 0 .042-.406 13.61 13.61 0 0 0 .034-1.459l-.006-.218-.008-.216a.77.77 0 0 0-.047-.24.69.69 0 0 0-.03-.07c-.018-.037-.038-.07-.062-.1-.011-.015-.023-.03-.037-.044a.63.63 0 0 0-.04-.04c-.014-.013-.028-.024-.043-.034a.53.53 0 0 0-.148-.075c-.053-.017-.117-.028-.179-.027l-.09.008c-.029.004-.057.011-.083.02a.52.52 0 0 0-.147.075.45.45 0 0 0-.042.035c-.007.006-.014.013-.02.02-.11.111-.177.279-.183.489l-.007.322-.003.286.002.272.007.239c.042 1.05-.169 2.036-.681 2.961a3.93 3.93 0 0 0-.282.635l-.028.083-.044.148a3.59 3.59 0 0 0-.055.226l-.025.126a3.89 3.89 0 0 0-.022.128 4.46 4.46 0 0 0-.047.727l.009 2.159c.006.194-.026.315-.109.388-.018.016-.041.03-.065.042a.45.45 0 0 1-.082.028.73.73 0 0 1-.104.016 1.27 1.27 0 0 1-.114.005h-.009l-7.559-.003-.539.002-.54.002a.96.96 0 0 1-.245-.023c-.193-.051-.258-.189-.257-.474.002-.659-.086-1.293-.27-1.898l-.072-.224-.17-.44a6.23 6.23 0 0 0-.151-.323l-.112-.212a5.05 5.05 0 0 0-.121-.21 6.09 6.09 0 0 0-.198-.309l-.69-1.017-1.376-2.038-.689-1.018-2.464-3.642c-.209-.315-.218-.58-.05-.759l.026-.026a.71.71 0 0 1 .254-.144c.04-.014.083-.026.129-.036a1.02 1.02 0 0 1 .071-.014c.697-.12 1.333.022 1.852.52.287.276.548.581.805.886.334.397.608.854.986 1.2.254.233.53.331.779.309.046-.004.091-.012.135-.025l.033-.01a.88.88 0 0 0 .064-.025l.031-.014a.71.71 0 0 0 .15-.098 1.05 1.05 0 0 0 .332-.519.33.33 0 0 0 .012-.04c.003-.007.006-.015.007-.022a4.6 4.6 0 0 0 .101-.483 5.28 5.28 0 0 0 .038-.297l.018-.199.012-.2.01-.398.01-10.639.001-.075.003-.15.003-.075.005-.075a4.75 4.75 0 0 1 .011-.111l.017-.11a1.09 1.09 0 0 1 .076-.254l.038-.075a.99.99 0 0 1 .042-.069c.023-.034.049-.066.075-.096l.028-.029a.89.89 0 0 1 .497-.249.99.99 0 0 1 .198-.014 1.13 1.13 0 0 1 .168.016 1.06 1.06 0 0 1 .054.01.63.63 0 0 1 .042.01.89.89 0 0 1 .192.075.84.84 0 0 1 .298.265c.016.022.03.046.044.07a.94.94 0 0 1 .055.114.93.93 0 0 1 .03.083c.018.057.031.117.04.18a2.32 2.32 0 0 1 .014.13c.012.142.011.286.011.428l.002 9.4.003.315c.003.055.009.109.018.162.006.036.016.07.028.102a.57.57 0 0 0 .07.135.58.58 0 0 0 .063.075.69.69 0 0 0 .036.034c.13.111.306.162.48.12a.64.64 0 0 0 .266-.126.4.4 0 0 0 .038-.036c.121-.126.164-.309.163-.528l-.003-3.152.003-1.167.002-.14.007-.14.015-.138.024-.137c.129-.585.692-.888 1.26-.692a.96.96 0 0 1 .35.199c.013.011.025.022.036.036a.29.29 0 0 1 .036.041.38.38 0 0 1 .029.036.7.7 0 0 1 .027.04l.047.086.021.046a.57.57 0 0 1 .015.039l.026.082.022.089a1.56 1.56 0 0 1 .023.146 2.04 2.04 0 0 1 .009.105 2.36 2.36 0 0 1 .006.172l.002 2.298v2.742c0 .133-.006.269.016.399a.65.65 0 0 0 .012.057.76.76 0 0 0 .033.105l.022.048a.55.55 0 0 0 .052.084c.019.026.041.05.064.071.098.088.231.134.396.13a.57.57 0 0 0 .346-.111l.037-.032c.093-.089.152-.218.174-.377.017-.118.009-.24.009-.36l.004-3.799c.002-.151.02-.289.054-.411l.034-.102c.018-.049.04-.094.064-.138.016-.029.034-.056.052-.082.028-.038.058-.075.091-.108.066-.066.142-.12.227-.16l.089-.037a1.08 1.08 0 0 1 .355-.056l.036.001a.54.54 0 0 1 .036.001l.066.006.062.008c.042.006.082.014.119.026a.88.88 0 0 1 .131.046.83.83 0 0 1 .046.022c.309.161.478.496.481.99l.004 4.559.001.082.004.078.004.05a1.72 1.72 0 0 0 .019.139l.018.085.023.077.027.071a.93.93 0 0 0 .032.063.49.49 0 0 0 .471.254c.145-.003.26-.044.347-.126a.54.54 0 0 0 .042-.044.63.63 0 0 0 .097-.174.96.96 0 0 0 .034-.111 1.29 1.29 0 0 0 .024-.127l.011-.09v-.008l.004-.049.003-.111v-.023c.001-.008.001-.016.001-.024l-.002-.849-.002-1.096.007-1.334c.002-.125.018-.241.046-.348a1.39 1.39 0 0 1 .041-.123 1.28 1.28 0 0 1 .025-.058 1.03 1.03 0 0 1 .079-.143h.001a.84.84 0 0 1 .088-.115h.001a.46.46 0 0 1 .033-.035.9.9 0 0 1 .842-.242 1.1 1.1 0 0 1 .106.028 1.25 1.25 0 0 1 .107.039.96.96 0 0 1 .264.162l.03.028a.74.74 0 0 1 .054.058l.028.034a.7.7 0 0 1 .049.072l.021.038a1.02 1.02 0 0 1 .049.106c.022.054.038.111.051.17.03.131.04.272.041.418l.001.826.001 1.777.004.797c.002.248.092.433.242.537a.51.51 0 0 0 .097.052.58.58 0 0 0 .17.041l.062.002a.69.69 0 0 0 .122-.011.96.96 0 0 0 .056-.014.53.53 0 0 0 .195-.107l.021-.019.019-.02a.66.66 0 0 0 .165-.458l-.01-3.679a2.29 2.29 0 0 0-.058-.439 2.08 2.08 0 0 0-.277-.666 1.99 1.99 0 0 0-.115-.163c-.526-.672-1.442-.974-2.377-.674l-.026.008-.115.034-.185.052a2.95 2.95 0 0 0-.256-.507l-.037-.058-.077-.109a1.28 1.28 0 0 0-.04-.052l-.041-.05a1.98 1.98 0 0 0-.085-.097l-.044-.046c-.615-.626-1.506-.796-2.52-.408l-.59-1.013a5.21 5.21 0 0 0 .13-.167l.125-.17c.325-.458.586-.949.777-1.474l.035-.099.065-.2a6.22 6.22 0 0 0 .21-.939c.013-.086.214-.206.329-.208l2.399-.018c.141-.005.25.006.339.046a.33.33 0 0 1 .071.041c.09.064.155.169.214.33.404 1.109 1.436 1.794 2.592 1.788a2.78 2.78 0 0 0 2.59-1.806c.396-1.05.097-2.267-.747-3.038h.001zm-5.006-9.276l.031-.115.018-.057.018-.056.04-.11a2.39 2.39 0 0 1 .052-.124l.042-.088a2.33 2.33 0 0 1 .114-.208l.07-.109.094-.131a2.36 2.36 0 0 1 .066-.084l.107-.122.07-.074.066-.063.059-.054.068-.058a1.95 1.95 0 0 1 .087-.07l.034-.025.094-.066.047-.031.045-.028.052-.031a1.49 1.49 0 0 1 .061-.034l.082-.044a2.52 2.52 0 0 1 .105-.05l.042-.019c.083-.037.169-.07.257-.098l.069-.021a.33.33 0 0 1 .042-.012l.073-.019.139-.03a2.65 2.65 0 0 1 .11-.019 2.66 2.66 0 0 1 .279-.029l.151-.004c.094 0 .189.006.281.015l.103.013.051.008.116.022.101.022a2.27 2.27 0 0 1 .099.026l.065.019.064.021a2.38 2.38 0 0 1 .126.046l.123.053a2.69 2.69 0 0 1 .293.154l.111.071.108.077.085.066.069.057.05.044a1.23 1.23 0 0 1 .048.045l.024.023a.49.49 0 0 1 .041.041l.061.063.064.072.058.07.05.063.047.064a3.27 3.27 0 0 1 .074.109l.047.077.054.094.038.074a1.47 1.47 0 0 1 .03.062l.05.112a1.74 1.74 0 0 1 .036.09l.033.09.041.129.034.131a2.35 2.35 0 0 1 .028.134l.012.07.009.066.006.052c.001.018.004.034.006.052l.008.104.005.142-.001.045-.001.044-.005.106-.009.105-.008.07-.012.086a2.62 2.62 0 0 1-.052.253 2.2 2.2 0 0 1-.036.13l-.022.066a2.09 2.09 0 0 1-.036.099.53.53 0 0 1-.019.05l-.02.049a3.43 3.43 0 0 1-.042.095 2.03 2.03 0 0 1-.046.094l-.05.092a2.02 2.02 0 0 1-.053.09l-.047.074a2.25 2.25 0 0 1-.07.101l-.058.078a2.12 2.12 0 0 1-.068.083.73.73 0 0 1-.034.039l-.035.038-.071.075-.081.079a1.99 1.99 0 0 1-.075.068 2.44 2.44 0 0 1-.084.07l-.098.075a1.93 1.93 0 0 1-.066.046 1.88 1.88 0 0 1-.066.044l-.03.019a2.44 2.44 0 0 1-.188.109l-.076.038-.122.055a2.53 2.53 0 0 1-.188.072l-.13.041a3.18 3.18 0 0 1-.132.034l-.135.028a2.88 2.88 0 0 1-.488.044h-.091c-.011 0-.022 0-.033-.001l-.032-.002-.107-.008-.106-.012a2.6 2.6 0 0 1-.264-.047l-.099-.025L35 7.482l-.064-.021a1.61 1.61 0 0 1-.087-.031.93.93 0 0 1-.066-.026l-.098-.042-.119-.058a2.54 2.54 0 0 1-.231-.133l-.067-.045a1.63 1.63 0 0 1-.076-.054l-.073-.055-.102-.084-.097-.09a1.29 1.29 0 0 1-.047-.046.52.52 0 0 1-.036-.037.9.9 0 0 1-.039-.041l-.058-.065-.056-.066-.065-.083a2.43 2.43 0 0 1-.062-.086l-.126-.2-.044-.081a2.69 2.69 0 0 1-.049-.096 4.16 4.16 0 0 1-.055-.123l-.038-.094-.034-.096-.058-.196a2.94 2.94 0 0 1-.055-.27c-.014-.092-.023-.185-.028-.28l-.003-.142a2.8 2.8 0 0 1 .056-.561 3.1 3.1 0 0 1 .026-.118l-.001-.001zM6.614 29.86a5.12 5.12 0 0 1-5.13-5.14 5.14 5.14 0 0 1 5.143-5.134c2.845.009 5.138 2.31 5.129 5.146-.01 2.85-2.302 5.137-5.142 5.128zm22.609-14.061l-.009.115-.015.15a4.54 4.54 0 0 1-.019.15 5.24 5.24 0 0 1-.018.118 4.54 4.54 0 0 1-.04.208l-.026.115-.038.15-.041.143-.007.024a4.53 4.53 0 0 1-.058.176l-.074.197-.062.143-.024.054-.025.054-.037.075-.065.126-.128.222-.045.072a3 3 0 0 1-.078.118l-.101.142-.131.166-.068.081c-.007.008-.014.016-.022.022s-.02.018-.03.026a.37.37 0 0 1-.032.023c-.011.007-.019.013-.03.018a.44.44 0 0 1-.046.025.48.48 0 0 1-.066.029.53.53 0 0 1-.068.024l-.07.021-.062.016-.075.017c-.336.068-.679.096-1.082.149v-.408l.001-.906v-.614l-.001-.38-.002-.569-.006-.57-.004-.103-.007-.102-.003-.035-.005-.045-.006-.043a2.2 2.2 0 0 0-.017-.105l-.014-.068a.3.3 0 0 0-.01-.043 1.76 1.76 0 0 0-.036-.135l-.014-.045-.023-.065-.024-.063a1.8 1.8 0 0 0-.19-.355l-.041-.058a1.47 1.47 0 0 0-.09-.111 1.77 1.77 0 0 0-.203-.199c-.012-.011-.025-.022-.038-.031a.76.76 0 0 0-.048-.037l-.05-.037a2.03 2.03 0 0 0-.068-.046 1.43 1.43 0 0 0-.091-.055l-.072-.041-.094-.048-.075-.035a2.49 2.49 0 0 0-.119-.049l-.119-.042-.119-.036-.089-.023a1.94 1.94 0 0 0-.088-.019l-.039-.007-.078-.013-.086-.01-.02-.002-.093-.006c-.015 0-.031-.002-.046-.002a1.97 1.97 0 0 0-.406.032l-.176.042-.088.027a1.87 1.87 0 0 0-.086.031l-.087.035-.085.039a2.31 2.31 0 0 0-.335.2l-.162.125-.031.027-.104.097-.014.014a1.93 1.93 0 0 0-.078.085l-.054.066a1.83 1.83 0 0 0-.059.078l-.066.1-.03.052-.032.058-.03.06a2.28 2.28 0 0 0-.041.091l-.036.093a1.47 1.47 0 0 0-.022.063l-.009.031a2.09 2.09 0 0 0-.055.214l-.022.118a2.02 2.02 0 0 0-.016.122l-.012.123-.006.129-.002.123v.005l-.001 3.639v.53a5.62 5.62 0 0 1-.87-.553 2.91 2.91 0 0 1-.078-.062l-.074-.061a1.95 1.95 0 0 1-.075-.064l-.069-.061-.067-.062-.078-.076-.078-.078-.099-.106-.066-.075-.117-.142-.058-.075-.053-.071-.07-.099-.068-.102-.066-.104a4.76 4.76 0 0 1-.39-.798l-.04-.11-.026-.074-.024-.073-.047-.154-.023-.082a.8.8 0 0 1-.011-.042 1.06 1.06 0 0 0-.011-.042l-.02-.082a4.99 4.99 0 0 1-.082-.442l-.034-.327-.01-.414.001-.036.002-.06a.83.83 0 0 1 .004-.085l.013-.178.009-.087.003-.03a.73.73 0 0 1 .007-.065l.011-.079a5.59 5.59 0 0 1 .045-.258 3.31 3.31 0 0 1 .034-.154l.01-.044.014-.057.022-.082.024-.083.043-.137a.54.54 0 0 1 .019-.058l.018-.054.039-.106.043-.108.038-.092.044-.098a1.85 1.85 0 0 1 .036-.074 1.1 1.1 0 0 1 .04-.082l.029-.055.126-.227.03-.05a4.49 4.49 0 0 1 .136-.21 1.2 1.2 0 0 1 .046-.066l.078-.108a.98.98 0 0 1 .046-.059l.01-.012.04-.051.025-.03a2.26 2.26 0 0 1 .087-.104 4.07 4.07 0 0 1 .11-.124 4.08 4.08 0 0 1 .115-.12 4.62 4.62 0 0 1 .222-.211l.052-.046a2.03 2.03 0 0 1 .063-.054 1.74 1.74 0 0 1 .059-.049 3.65 3.65 0 0 1 .208-.158 1.08 1.08 0 0 1 .049-.035 1.93 1.93 0 0 1 .083-.058l.056-.038c.006-.005.014-.01.021-.014a2.69 2.69 0 0 1 .113-.071 3.24 3.24 0 0 1 .126-.074l.038-.022.138-.075a4.73 4.73 0 0 1 .715-.301 5.69 5.69 0 0 1 .275-.082l.207-.05.07-.014.139-.026.139-.022.134-.017.077-.008a1.99 1.99 0 0 1 .069-.006l.14-.009a4.16 4.16 0 0 1 .14-.005h.001a4.46 4.46 0 0 1 .253.002l.111.005a1.11 1.11 0 0 1 .073.005l.07.006.059.006.119.014a2.81 2.81 0 0 1 .118.016 1.47 1.47 0 0 1 .086.014l.117.021.077.015a1.26 1.26 0 0 1 .071.016.97.97 0 0 1 .066.015l.074.018.05.014a1.28 1.28 0 0 1 .059.016 2.28 2.28 0 0 1 .098.029l.063.02.111.037.135.05.137.054h.001l.268.122.132.067.13.071a3.78 3.78 0 0 1 .254.154l.246.17a2.48 2.48 0 0 1 .119.091l.095.077a3.89 3.89 0 0 1 .204.179 2.73 2.73 0 0 1 .099.094 3.21 3.21 0 0 1 .146.149 2.24 2.24 0 0 1 .059.064l.16.184a2.06 2.06 0 0 1 .074.092l.078.103.049.065.082.118a4.26 4.26 0 0 1 .097.148l.086.145.014.025a2.84 2.84 0 0 1 .074.138 3.63 3.63 0 0 1 .078.158l.071.162a3.65 3.65 0 0 1 .066.163 4.1 4.1 0 0 1 .058.166l.053.168a4.49 4.49 0 0 1 .046.17l.04.171.034.173c.031.174.053.35.065.526l.011.465-.008.195v-.001zm8.67-.047l-.011.061a.34.34 0 0 1-.006.03l-.007.03a.63.63 0 0 1-.01.042c-.004.018-.01.035-.015.054-.002.01-.006.021-.01.031l-.011.03-.015.042a1.59 1.59 0 0 1-.233.413c-.009.013-.019.026-.03.038a1.3 1.3 0 0 1-.053.062l-.054.056-.056.054-.106.089-.039.029a1.5 1.5 0 0 1-.058.04l-.062.039a1.48 1.48 0 0 1-.15.078l-.068.03-.052.02-.053.018-.04.012a.09.09 0 0 1-.022.006l-.042.011-.043.01a1.1 1.1 0 0 1-.064.013l-.054.009a.65.65 0 0 1-.055.007l-.03.002-.055.004a1.21 1.21 0 0 1-.077.002h-.019c-.88-.008-1.587-.728-1.585-1.614l.002-.068.004-.056.003-.045.025-.164.016-.07.015-.054c.002-.011.006-.022.01-.031.005-.019.011-.037.018-.055.003-.01.006-.021.011-.03a.58.58 0 0 1 .02-.052 1.45 1.45 0 0 1 .099-.197.48.48 0 0 1 .012-.021l.034-.054a1.65 1.65 0 0 1 .09-.122l.103-.113a1.5 1.5 0 0 1 .098-.09.34.34 0 0 1 .019-.016l.053-.041.054-.038.027-.018.065-.04.058-.033c.019-.011.04-.021.061-.03l.143-.06c.048-.018.099-.033.151-.046a.84.84 0 0 1 .078-.018.91.91 0 0 1 .079-.014.89.89 0 0 1 .081-.01l.166-.009a1.6 1.6 0 0 1 .327.033l.078.018a.82.82 0 0 1 .076.021.9.9 0 0 1 .074.025l.085.034a1.57 1.57 0 0 1 .243.129l.032.022c.038.025.073.051.108.08.02.015.039.032.058.049l.056.053.062.065.015.018.054.065a1.28 1.28 0 0 1 .05.066.77.77 0 0 1 .031.046.58.58 0 0 1 .018.029l.015.023.016.029.034.062.029.058a.68.68 0 0 1 .026.06 1.39 1.39 0 0 1 .045.122l.006.019.018.065.018.077a2.76 2.76 0 0 1 .015.079c.009.052.014.106.018.16l.003.082a1.59 1.59 0 0 1-.019.259zM12.609 4.09c-.96 0-1.919.002-2.879-.001-.495-.002-.746-.199-.748-.577s.25-.593.74-.594l5.758-.001c.501.001.787.235.775.607s-.273.563-.766.565H12.61h-.001zM7.822 6.901c-.974 0-1.946.003-2.92-.002-.463-.002-.71-.205-.718-.568-.008-.373.256-.599.733-.6h5.799c.474.001.747.23.742.595s-.271.572-.758.574H7.82l.001.001zM5.669 4.087c-.305 0-.61.011-.915-.003a.53.53 0 0 1-.564-.548c-.016-.342.176-.579.511-.594l1.907.002c.338.016.529.266.509.598s-.226.533-.573.544l-.875.002zm9.093 2.81c-.292 0-.585.009-.876-.002a.54.54 0 0 1-.568-.547c-.03-.322.202-.593.55-.605H15.7c.346.01.527.238.552.569.024.314-.227.566-.574.583l-.916.003v-.001z"/><path d="M6.601 21.762a2.98 2.98 0 0 0-2.95 2.965 2.99 2.99 0 0 0 2.986 2.966c1.646-.007 2.948-1.34 2.935-3.003a2.94 2.94 0 0 0-2.972-2.927zm1.808 3.055c0 .018-.001.022-.002.026l-.004.058-.003.033c-.004.042-.01.083-.018.124a.48.48 0 0 1-.01.049 1.37 1.37 0 0 1-.039.15l-.026.081-.013.034-.034.083-.038.082-.01.021-.045.08-.036.059-.035.053-.07.095-.038.046-.097.105-.062.059-.057.049-.058.046-.03.023-.03.022-.042.029-.111.067-.057.03-.054.027-.111.047-.057.021-.058.019a1.79 1.79 0 0 1-.171.044 1.77 1.77 0 0 1-.359.037h-.017c-.027 0-.054 0-.082-.002l-.076-.006-.042-.004a.31.31 0 0 1-.039-.005l-.039-.006a.18.18 0 0 1-.029-.005l-.048-.009h-.002l-.054-.012-.043-.01-.147-.045c-.007-.003-.015-.006-.023-.008l-.07-.027-.08-.035-.153-.082-.142-.095-.051-.04-.037-.03c-.01-.008-.022-.018-.032-.028l-.032-.029c-.008-.006-.016-.014-.024-.023l-.058-.058-.061-.069-.029-.034-.03-.038c-.04-.054-.078-.11-.111-.167l-.049-.088-.05-.106-.034-.084-.017-.046-.015-.046-.01-.034-.014-.051-.012-.049a1 1 0 0 1-.019-.098c-.002-.01-.004-.022-.006-.032l-.004-.027-.007-.057-.005-.058c-.002-.011-.002-.022-.002-.034l-.002-.034c-.002-.029-.002-.058-.002-.087l.002-.078.001-.024.003-.041.006-.058.009-.065.003-.021.019-.1.017-.071.02-.07c.019-.064.039-.118.062-.172a1.75 1.75 0 0 1 .075-.156l.032-.056.024-.039.083-.122.109-.131.06-.062a1.78 1.78 0 0 1 1.292-.518c.062.001.122.005.181.012l.089.013.059.011.05.011a1.27 1.27 0 0 1 .123.033l.042.014.121.046.034.014.068.032.077.04a1.72 1.72 0 0 1 .194.126l.059.046.034.027.057.05.073.072a1.74 1.74 0 0 1 .202.251l.088.147c.009.015.017.031.024.047l.018.037c.007.014.014.028.019.042l.018.044.017.042.014.042.022.064.022.075.011.047.013.058.026.175.006.08.002.103-.003.082h-.001z"/></g><defs><clipPath id="A"><path fill="#fff" d="M0 0h40v40H0z"/></clipPath></defs></svg>