<svg width="41" height="41" viewBox="0 0 41 41" fill="none" xmlns="http://www.w3.org/2000/svg">
<path d="M27.78 10.0004C28.3694 10.0004 28.9347 10.2345 29.3515 10.6513C29.7683 11.0681 30.0025 11.6334 30.0025 12.2229V27.7804C30.0025 28.3698 29.7683 28.9351 29.3515 29.3519C28.9347 29.7687 28.3694 30.0029 27.78 30.0029H12.2225C11.6331 30.0029 11.0678 29.7687 10.651 29.3519C10.2342 28.9351 10 28.3698 10 27.7804V12.2229C10 11.6334 10.2342 11.0681 10.651 10.6513C11.0678 10.2345 11.6331 10.0004 12.2225 10.0004H27.78ZM27.2244 27.2247V21.3351C27.2244 20.3743 26.8427 19.4529 26.1633 18.7735C25.4839 18.0941 24.5625 17.7124 23.6017 17.7124C22.6571 17.7124 21.557 18.2903 21.0236 19.1571V17.9236H17.9232V27.2247H21.0236V21.7463C21.0236 20.8906 21.7126 20.1905 22.5682 20.1905C22.9808 20.1905 23.3766 20.3544 23.6683 20.6462C23.9601 20.938 24.124 21.3337 24.124 21.7463V27.2247H27.2244ZM14.3117 16.1789C14.8068 16.1789 15.2816 15.9822 15.6317 15.6321C15.9819 15.282 16.1786 14.8071 16.1786 14.312C16.1786 13.2786 15.3451 12.434 14.3117 12.434C13.8136 12.434 13.3359 12.6319 12.9837 12.9841C12.6315 13.3363 12.4336 13.8139 12.4336 14.312C12.4336 15.3455 13.2782 16.1789 14.3117 16.1789ZM15.8563 27.2247V17.9236H12.7781V27.2247H15.8563Z" fill="white"/>
<rect x="0.5" y="0.5" width="39.0033" height="39.0033" rx="19.5017" stroke="white"/>
</svg>
