<svg xmlns="http://www.w3.org/2000/svg" width="40" height="40" fill="none" xmlns:v="https://vecta.io/nano"><g clip-path="url(#A)" fill="#3f51b5"><path d="M23.35 35.338c-.359-.011-.631.243-.686.642-.007.052-.008.106-.011.159-.104 1.454-1.19 2.513-2.65 2.516a2665.87 2665.87 0 0 1-15.998-.01 2.86 2.86 0 0 1-1.26-.314c-.959-.498-1.406-1.341-1.406-2.422L1.34 4.07l.009-.28a2.66 2.66 0 0 1 2.596-2.454.43.43 0 0 1 .462.28l1.206 2.437c.403.846 1.054 1.274 1.993 1.274l8.798-.001c.902 0 1.551-.399 1.95-1.213l1.225-2.471c.118-.25.269-.315.527-.304 1.385.061 2.495 1.158 2.545 2.546l.015 1.439c.018.412.326.691.695.673.355-.018.618-.297.627-.698a26.58 26.58 0 0 0 0-1.36c-.03-1.279-.527-2.356-1.573-3.085C21.866.47 21.182.278 20.558 0H3.439l-.752.229C1.017.819.001 2.307.001 4.174v31.651l.007.399a4.01 4.01 0 0 0 1.315 2.737c.604.559 1.342.831 2.116 1.038h17.118l.254-.086c1.85-.413 3.214-2.066 3.178-3.854-.009-.423-.264-.712-.64-.723zM5.756 1.366h12.489-.001l-.078.154-.474.94-.131.257-.131.254-.125.236-.282.51c-.011.019-.025.038-.042.055s-.026.026-.042.038a.27.27 0 0 1-.024.018l-.025.018a.82.82 0 0 1-.074.042.63.63 0 0 1-.058.026l-.044.017c-.035.013-.071.024-.106.032a.7.7 0 0 1-.161.021l-6.684.01-2.228-.01c-.055-.001-.118-.01-.181-.027l-.047-.014a1.06 1.06 0 0 1-.07-.026.75.75 0 0 1-.068-.032 1.03 1.03 0 0 1-.073-.044.47.47 0 0 1-.09-.076c-.017-.018-.03-.037-.042-.056l-.609-1.146-.447-.893-.153-.303h-.001 0zm34.238 10.212c-.001-2.544-1.69-4.236-4.234-4.238-3.026-.002-6.052 0-9.078 0s-6.106-.003-9.158 0c-2.479.003-4.172 1.689-4.184 4.162l.005 3.719a.53.53 0 0 1-.332.556l-6.881 3.66c-.502.267-.801.666-.796 1.241.005.558.297.952.782 1.21l6.848 3.638c.271.142.385.292.38.609l-.003 3.839c.035 2.308 1.739 4.013 4.043 4.017l18.555-.004a4.22 4.22 0 0 0 1.295-.197c1.719-.566 2.756-2.063 2.757-3.935l.001-18.278v.001zm-1.34 18.262c-.002 1.719-1.107 2.82-2.834 2.821H17.503c-1.722-.001-2.822-1.1-2.832-2.825l.005-4.239a.97.97 0 0 0-.593-.979l-6.776-3.603-.629-.35 3.201-1.712 4.202-2.23c.44-.227.602-.537.595-1.02l-.006-4.16c.007-1.795 1.102-2.882 2.904-2.882l18.197.001c1.776 0 2.882 1.095 2.883 2.86V29.84zm-26.655 6.164h5.034c.146 0 .298-.011.438.021a.61.61 0 0 1 .517.623c.007.329-.158.562-.482.649-.138.037-.29.039-.435.039H6.922c-.133 0-.27.004-.397-.027-.341-.083-.524-.314-.515-.664a.61.61 0 0 1 .555-.629c.13-.023.266-.013.398-.014h5.034l.001.002zm23.641-10.92l-6.856-11.825c-1.026-1.742-3.278-1.678-4.301.08L17.77 24.923c-.201.35-.366.758-.407 1.154-.145 1.416.945 2.569 2.415 2.578l6.878.004 6.877-.004c1.944-.014 3.069-1.891 2.108-3.571zm-1.854 2.225c-.169.03-.345.029-.518.029H26.67c-2.199 0-4.506.012-6.758-.014-.307-.003-.663-.124-.909-.308-.418-.314-.45-.798-.164-1.295l2.386-4.114 4.37-7.538c.243-.422.543-.723 1.059-.726.533-.003.837.31 1.088.745L34.24 25.29l.294.522a1.02 1.02 0 0 1-.75 1.496zM26 19.361l.001-2.557c.002-.505.233-.783.643-.795.42-.013.686.284.688.797v5.034c-.002.519-.255.818-.67.818s-.659-.294-.662-.819l-.001-2.477.001-.001zm1.334 5.666v.159c-.011.501-.275.817-.678.812s-.65-.311-.656-.826l.002-.477c.021-.41.301-.697.668-.692.351.005.622.276.658.667.01.118.002.238.002.358h.003l.001-.001z"/></g><defs><clipPath id="A"><path fill="#fff" d="M0 0h40v40H0z"/></clipPath></defs></svg>