<svg xmlns="http://www.w3.org/2000/svg" width="40" height="40" fill="#3f51b5" xmlns:v="https://vecta.io/nano"><path d="M36.841 8.382l-.331-.37-.086-.086-.109-.102-.225-.19-.115-.088a3.91 3.91 0 0 0-.478-.304l-.199-.1-.102-.046-.154-.062h-.001l-.156-.056c-.699-.23-1.47-.253-2.297-.063-1.73.397-2.787 1.522-3.234 3.236a.59.59 0 0 1-.029.082l-.029.056c-.056.105-.139.202-.206.206l-1.738.016V9.98l.013-5.558c.062-1.913-1.389-3.236-3.22-3.224l-18.754.016c-.358 0-.69.037-.994.109a2.59 2.59 0 0 0-.119.03l-.118.034-.114.038a3.09 3.09 0 0 0-.307.127l-.112.058a1.97 1.97 0 0 0-.114.064l-.102.065-.122.086c-.73.546-1.129 1.441-1.129 2.618v31.155c0 1.162.374 2.047 1.07 2.598l.118.089a2.74 2.74 0 0 0 .255.159 3.09 3.09 0 0 0 .136.07l.07.033.219.088.231.074a3.46 3.46 0 0 0 .13.034l.203.042.211.032.145.016.456.02h18.714l.44-.006a2.98 2.98 0 0 0 .361-.039l.123-.024a2.93 2.93 0 0 0 1.175-.544 3.15 3.15 0 0 0 .081-.064 1.83 1.83 0 0 0 .074-.064 1.41 1.41 0 0 0 .051-.046 2.86 2.86 0 0 0 .679-.958l.03-.074.057-.154.034-.109.027-.102.024-.102.006-.028a2.48 2.48 0 0 0 .021-.111c0-.007.002-.014.003-.022a2.85 2.85 0 0 0 .016-.119l.016-.219.01-.326.006-.269a3 3 0 0 0 .002-.12l.005-.37.002-1.282-.001-.63-.003-3.999-.011-3.999v-.006a.75.75 0 0 1 .005-.086.3.3 0 0 1 .01-.055l.006-.021c.013-.042.032-.074.059-.099.013-.012.027-.022.044-.03.026-.014.057-.022.091-.027l.035-.005a.74.74 0 0 1 .106-.004l2.039.004c1.251-.003 2.209-.47 2.766-1.301l.082-.131.039-.067a2.87 2.87 0 0 0 .073-.139l.034-.071.063-.147.082-.231a3.85 3.85 0 0 0 .067-.242l.036-.169a2.16 2.16 0 0 0 .019-.108l.041-.334.014-.28.002-.096.002-1.078v-2.772-1.75-.438l.082-.046c.013-.008.022-.013.032-.015a3.02 3.02 0 0 1 .109-.004l.299-.005a5.18 5.18 0 0 0 1.242-.198l.282-.094a3.92 3.92 0 0 0 .53-.24 3.76 3.76 0 0 0 .705-.495 3.8 3.8 0 0 0 .21-.201c.339-.35.626-.778.854-1.282.712-1.566.52-3.095-.566-4.43h-.002zM3.353 3.99c.041-.856.775-1.542 1.659-1.608.132-.01.266-.005.399-.005h18.714c1.358 0 2.043.682 2.046 2.035V6.26H3.345l.007-2.27zm7.31 17.462c.004 2.024 1.278 3.308 3.306 3.274l.241.005.085.007.084.01.04.006.039.007.089.02.065.019.07.024a1.13 1.13 0 0 1 .205.104l.038.026a.38.38 0 0 1 .038.028 1.33 1.33 0 0 1 .073.061l.034.034a1.29 1.29 0 0 1 .132.156 1.27 1.27 0 0 1 .061.09 1.97 1.97 0 0 1 .058.101l.028.054c.361.71.82 1.371 1.245 2.048a2.38 2.38 0 0 0 .34.43l.094.088.068.058.07.054.046.034a1.74 1.74 0 0 0 .063.042l.077.046.078.042a2.04 2.04 0 0 0 .16.072 1.67 1.67 0 0 0 .218.069l.09.019.02.004a1.49 1.49 0 0 0 .167.02l.111.004a1.47 1.47 0 0 0 .084-.002c.07-.003.141-.012.211-.025l.053-.01.037-.009.038-.01a1.6 1.6 0 0 0 .082-.024l.082-.029.068-.027.067-.03.08-.041.039-.022a1.81 1.81 0 0 0 .098-.061l.069-.047a1.82 1.82 0 0 0 .147-.118l.071-.065a2.25 2.25 0 0 0 .23-.258 1.73 1.73 0 0 0 .063-.087l.038-.056.053-.084.542-.898.274-.447.141-.226.121-.192.18-.281.166-.253.052-.078.024-.034a.74.74 0 0 1 .058-.066c.006-.007.014-.014.022-.021a.53.53 0 0 1 .022-.021l.045-.038.049-.036.03-.02c.018-.013.038-.024.057-.034l.034-.018a.69.69 0 0 1 .135-.054l.038-.01.021-.004.034-.005.034-.003 4.118-.013c.009 0 .018.002.028.004.029.006.062.021.111.034v7.792H3.366v-25.1h22.767v3.03h-.466c-3.931 0-7.863-.003-11.795.002-.05 0-.099 0-.148.003-.029.001-.058.002-.086.005-.014.001-.02.001-.023.002-.018 0-.033.002-.049.003a1.09 1.09 0 0 0-.102.01c-.022.002-.043.004-.064.007s-.05.006-.073.01-.04.006-.055.008c-.034.005-.069.01-.103.018a2.5 2.5 0 0 0-.116.024c-.016.003-.032.007-.049.011a2.85 2.85 0 0 0-.224.062.87.87 0 0 0-.06.019c-.059.019-.118.041-.175.064-.019.007-.038.015-.056.023a1 1 0 0 0-.073.031l-.042.02a2.87 2.87 0 0 0-.111.055 2.56 2.56 0 0 0-.214.122 3.92 3.92 0 0 0-.095.063c-.006.003-.011.007-.017.011-.026.018-.052.038-.078.057a1.57 1.57 0 0 0-.066.051l-.066.054c-.028.023-.056.048-.083.073a2.39 2.39 0 0 0-.092.088c-.021.021-.041.042-.059.062-.006.006-.011.01-.015.016l-.038.042c-.007.006-.012.012-.017.018l-.059.07c-.008.008-.015.018-.022.026a1.83 1.83 0 0 0-.06.078 2.92 2.92 0 0 0-.062.086 1.71 1.71 0 0 0-.059.089 3.88 3.88 0 0 0-.058.097c-.013.021-.025.042-.037.064l-.042.077a3.23 3.23 0 0 0-.058.118 2.75 2.75 0 0 0-.049.111 3.31 3.31 0 0 0-.048.124c-.005.012-.009.024-.013.036a1.63 1.63 0 0 0-.031.091c-.004.011-.007.022-.01.034a2.42 2.42 0 0 0-.034.115 2.6 2.6 0 0 0-.034.136 3.98 3.98 0 0 0-.08.873l-.002 7.678h-.001zm15.453 14.846c-.076.773-.817 1.338-1.633 1.392-.146.01-.293.005-.44.005-6.197.001-12.394-.018-18.59.015-1.231.007-2.226-.734-2.121-2.146.042-.568.007-1.142.007-1.742h22.794c0 .835.062 1.662-.018 2.476zm5.771-14.73c-.004 1.217-.787 1.993-2.01 1.995-2.599.004-5.199.014-7.798-.006-.863-.006-1.475.332-1.904 1.074-.441.761-.911 1.505-1.377 2.251-.392.628-.826.63-1.213.008l-1.47-2.381a1.82 1.82 0 0 0-1.688-.946 21.41 21.41 0 0 1-.68-.001c-1.103-.019-1.886-.785-1.903-1.892l-.005-3.24.001-4.68c.004-1.306.755-2.061 2.062-2.063l7.399-.002 7.518-.008c.347-.002.505.072.593.442.291 1.22 1.03 2.12 2.131 2.708.241.128.354.252.352.54l-.009 6.2zm1.631-7.405a2.54 2.54 0 0 1-.11-.002 1.11 1.11 0 0 1-.073-.003c-.044-.002-.087-.006-.13-.01-.033-.003-.066-.007-.098-.012l-.098-.015c-.016-.002-.032-.005-.048-.008-.089-.017-.177-.037-.263-.062l-.066-.019a3.31 3.31 0 0 1-.095-.03c-.024-.008-.047-.017-.071-.026h-.001a4.15 4.15 0 0 1-.138-.055 2.11 2.11 0 0 1-.137-.062 2.96 2.96 0 0 1-.087-.044 1.94 1.94 0 0 1-.11-.061 1.3 1.3 0 0 1-.08-.048 2.86 2.86 0 0 1-.25-.174l-.065-.051-.064-.054c-.063-.054-.124-.11-.182-.17l-.051-.053a2.2 2.2 0 0 1-.1-.111c-.033-.038-.064-.075-.094-.114a3.24 3.24 0 0 1-.13-.181 4.13 4.13 0 0 1-.079-.126l-.073-.13h-.001l-.047-.094a1.85 1.85 0 0 1-.066-.143 2.08 2.08 0 0 1-.043-.106l-.03-.078a.98.98 0 0 1-.022-.063l-.023-.072-.04-.147c-.012-.049-.025-.1-.034-.15a3.17 3.17 0 0 1-.062-.628l.002-.106.006-.106c.013-.176.04-.349.08-.516l.026-.1a3.56 3.56 0 0 1 .068-.214 4.11 4.11 0 0 1 .054-.138 3.49 3.49 0 0 1 .06-.136 2.51 2.51 0 0 1 .058-.116.76.76 0 0 1 .026-.049l.054-.097.078-.125c.013-.02.026-.041.041-.061l.086-.119c.014-.019.03-.038.045-.058l.058-.07.06-.069a1.66 1.66 0 0 1 .062-.067l.064-.066a2.36 2.36 0 0 1 .102-.098 3.03 3.03 0 0 1 .106-.092 2.56 2.56 0 0 1 .11-.087c.018-.014.038-.029.057-.042l.057-.04a4.72 4.72 0 0 1 .117-.077 1.19 1.19 0 0 1 .06-.036c.02-.012.04-.024.061-.035.028-.016.057-.031.086-.046a1.51 1.51 0 0 1 .072-.036 1.2 1.2 0 0 1 .073-.034l.051-.022.046-.019c.017-.007.034-.014.051-.02s.043-.017.066-.024c.036-.013.072-.025.109-.036s.082-.024.122-.034a1.57 1.57 0 0 1 .088-.022 2.58 2.58 0 0 1 .108-.022 2.06 2.06 0 0 1 .077-.013c.034-.006.069-.01.103-.014a2.87 2.87 0 0 1 .162-.013c.018-.002.038-.002.057-.002l.077-.002h.011c.042 0 .083 0 .125.002a2.84 2.84 0 0 1 .082.004l.058.004c.035.002.07.006.105.01a2.91 2.91 0 0 1 .206.028 2.07 2.07 0 0 1 .102.019l.098.021c.019.004.038.009.056.014a.95.95 0 0 0 .057.014l.094.027a2.79 2.79 0 0 1 .242.083l.09.037c.054.022.107.047.159.072l.095.049a3.17 3.17 0 0 1 .385.241l.058.043a1 1 0 0 1 .051.04l.076.063a2.62 2.62 0 0 1 .122.109l.057.055.056.058a.89.89 0 0 1 .038.04 3.57 3.57 0 0 1 .073.082c.016.018.031.037.047.056a2.78 2.78 0 0 1 .111.145l.046.066a1.92 1.92 0 0 1 .055.085c.014.021.026.042.038.062l.05.085a1.73 1.73 0 0 1 .057.108 2.24 2.24 0 0 1 .048.099l.045.102c.01.022.018.045.027.067s.018.046.026.069l.024.07a1.32 1.32 0 0 1 .026.083c.011.036.021.072.03.108s.017.065.024.098c.01.043.018.086.026.13.01.056.019.113.026.17l.009.076c.01.102.015.206.015.312 0 1.682-1.386 3.066-3.081 3.077h-.023zm-11.652 4.036h-7.278c-.134 0-.268.006-.399-.01-.325-.04-.506-.241-.524-.557-.018-.326.168-.525.48-.592.128-.028.265-.022.398-.022h14.636c.12 0 .242-.009.359.012.33.058.537.249.522.598-.015.339-.213.55-.556.563l-1.559.01h-6.078v-.002zm.001 1.915h5.237l.32.005c.321.034.52.213.546.534.026.327-.162.526-.463.611-.113.032-.238.023-.357.023H16.595h-.16c-.433-.015-.699-.251-.689-.61.01-.347.26-.561.684-.562l4.078-.002h1.359v-.001zm.013-6.17l5.395-.002c.348-.001.604.11.686.47.071.31-.139.612-.47.676-.142.028-.292.022-.438.022H16.662c-.094 0-.187.003-.28-.003-.4-.027-.655-.277-.638-.619.017-.33.261-.541.659-.542l3.637-.002h1.838l.001.002zM14.755 36.3c-.159 0-.32.014-.478-.003-.33-.035-.506-.248-.512-.561s.17-.544.497-.572a5.5 5.5 0 0 1 .994.002c.328.032.495.253.49.575a.52.52 0 0 1-.513.555c-.158.018-.319.003-.478.004h-.001zm-.013-32.549l2.155.002c.446.004.722.223.735.563.014.362-.266.603-.734.605h-4.271c-.478-.002-.736-.227-.726-.604.01-.356.26-.56.724-.564l2.115-.002h.001z"/></svg>