<svg xmlns="http://www.w3.org/2000/svg" width="40" height="40" fill="none" xmlns:v="https://vecta.io/nano"><path d="M5.883 3.831c-.377.399-.6 1.019-.6 1.823v28.692c0 .804.223 1.423.6 1.823l.096.093L22.052 20.19V20v-.19L5.979 3.737l-.096.094z" fill="url(#A)"/><path d="M27.409 25.55l-5.357-5.36V20v-.19l5.358-5.359.121.069 6.348 3.607c1.813 1.03 1.813 2.716 0 3.746l-6.348 3.607-.122.069z" fill="url(#B)"/><path d="M27.53 25.48L22.051 20 5.882 36.169c.598.633 1.584.711 2.696.08L27.53 25.48z" fill="url(#C)"/><path d="M27.53 14.52L8.578 3.752c-1.112-.631-2.098-.553-2.696.08L22.051 20l5.479-5.48z" fill="url(#D)"/><defs><linearGradient id="A" x1="20.627" y1="5.352" x2="-1.146" y2="27.124" gradientUnits="userSpaceOnUse"><stop stop-color="#00a0ff"/><stop offset=".007" stop-color="#00a2ff"/><stop offset=".26" stop-color="#00beff"/><stop offset=".512" stop-color="#00d2ff"/><stop offset=".76" stop-color="#00dfff"/><stop offset="1" stop-color="#00e3ff"/></linearGradient><linearGradient id="B" x1="36.239" y1="20.001" x2="4.847" y2="20.001" gradientUnits="userSpaceOnUse"><stop stop-color="#ffe000"/><stop offset=".409" stop-color="#ffbd00"/><stop offset=".775" stop-color="#ffa600"/><stop offset="1" stop-color="#ff9c00"/></linearGradient><linearGradient id="C" x1="24.553" y1="22.978" x2="-4.972" y2="52.503" gradientUnits="userSpaceOnUse"><stop stop-color="#ff3743"/><stop offset="1" stop-color="#e30864"/></linearGradient><linearGradient id="D" x1="1.811" y1="-5.719" x2="14.995" y2="7.465" gradientUnits="userSpaceOnUse"><stop stop-color="#00a06f"/><stop offset=".069" stop-color="#00a86e"/><stop offset=".476" stop-color="#00cf6e"/><stop offset=".801" stop-color="#00e76d"/><stop offset="1" stop-color="#00ef6d"/></linearGradient></defs></svg>