<svg width="17" height="14" viewBox="0 0 17 14" fill="none" xmlns="http://www.w3.org/2000/svg">
<path d="M7.47753 13.9952L9.97752 14.0032C10.2392 14.0034 10.4965 13.9353 10.7237 13.8055C10.951 13.6758 11.1404 13.4888 11.2732 13.2633C11.406 13.0378 11.4775 12.7815 11.4808 12.5198C11.484 12.2581 11.4189 12.0002 11.2917 11.7714C11.4752 11.6549 11.6312 11.5 11.7489 11.3173C11.8666 11.1346 11.9432 10.9285 11.9733 10.7132C12.0035 10.498 11.9866 10.2788 11.9236 10.0708C11.8607 9.86273 11.7534 9.67086 11.609 9.50842C11.7891 9.30858 11.9121 9.06398 11.9652 8.80025C12.0183 8.53652 11.9995 8.26335 11.9108 8.00938L15.4968 8.02092C16.3238 8.02357 16.9989 7.35274 17.0016 6.52575C17.0043 5.69875 16.3334 5.02359 15.5064 5.02093L9.33946 5.0011L10.8143 2.25583C10.9942 1.93901 11.0528 1.5676 10.9792 1.21078C10.9056 0.853959 10.7049 0.536048 10.4143 0.316259C10.1237 0.0964697 9.76316 -0.0102127 9.39978 0.016081C9.0364 0.0423747 8.69496 0.199852 8.43906 0.459183L8.42802 0.471147L5.00902 4.19717L5.0113 3.48718C5.01173 3.35457 4.95946 3.22722 4.86599 3.13315C4.77253 3.03909 4.64552 2.986 4.51291 2.98557L1.51293 2.97593C1.38032 2.9755 1.25298 3.02777 1.15891 3.12123C1.06484 3.2147 1.01175 3.34171 1.01132 3.47431L0.97917 13.4743C0.978743 13.6069 1.03101 13.7342 1.12448 13.8283C1.21794 13.9224 1.34495 13.9754 1.47756 13.9759L4.47754 13.9855C4.61015 13.9859 4.7375 13.9337 4.83157 13.8402C4.92564 13.7467 4.97872 13.6197 4.97915 13.4871L4.98137 12.7961L7.2537 13.9414C7.32312 13.9765 7.39976 13.9949 7.47753 13.9952ZM3.48076 12.9823C3.34816 12.9819 3.22115 12.9288 3.12768 12.8347C3.03422 12.7407 2.98195 12.6133 2.98237 12.4807C2.9828 12.3481 3.03589 12.2211 3.12996 12.1276C3.22403 12.0342 3.35137 11.9819 3.48398 11.9823C3.61659 11.9827 3.74359 12.0358 3.83706 12.1299C3.93053 12.224 3.9828 12.3513 3.98237 12.4839C3.98194 12.6165 3.92886 12.7435 3.83479 12.837C3.74072 12.9305 3.61337 12.9827 3.48076 12.9823ZM7.59874 12.9955L4.98497 11.6781L5.00425 5.68117L9.16184 1.15051C9.24824 1.0625 9.36412 1.00953 9.48721 1.00178C9.6103 0.994034 9.73191 1.03205 9.82867 1.10853C9.92543 1.185 9.99051 1.29454 10.0114 1.41609C10.0323 1.53764 10.0075 1.66263 9.94186 1.76702L8.06462 5.261C8.02382 5.33703 8.00339 5.42233 8.00532 5.50859C8.00724 5.59486 8.03146 5.67916 8.07562 5.75329C8.11977 5.82742 8.18236 5.88887 8.2573 5.93164C8.33223 5.97442 8.41696 5.99708 8.50325 5.99742L15.5032 6.01993C15.6358 6.02035 15.7628 6.07344 15.8563 6.16751C15.9498 6.26158 16.002 6.38892 16.0016 6.52153C16.0012 6.65414 15.9481 6.78115 15.854 6.87461C15.76 6.96808 15.6326 7.02035 15.5 7.01992L10.5 7.00384C10.3674 7.00342 10.2401 7.05569 10.146 7.14915C10.0519 7.24262 9.99885 7.36963 9.99842 7.50223C9.99799 7.63484 10.0503 7.76219 10.1437 7.85626C10.2372 7.95032 10.3642 8.00341 10.4968 8.00384C10.6294 8.00426 10.7564 8.05735 10.8499 8.15142C10.9434 8.24549 10.9956 8.37284 10.9952 8.50544C10.9948 8.63805 10.9417 8.76506 10.8476 8.85852C10.7535 8.95199 10.6262 9.00426 10.4936 9.00383C10.361 9.00341 10.2336 9.05568 10.1396 9.14914C10.0455 9.24261 9.99241 9.36961 9.99199 9.50222C9.99156 9.63483 10.0438 9.76218 10.1373 9.85625C10.2308 9.95031 10.3578 10.0034 10.4904 10.0038C10.623 10.0043 10.75 10.0573 10.8435 10.1514C10.9369 10.2455 10.9892 10.3728 10.9888 10.5054C10.9883 10.638 10.9353 10.765 10.8412 10.8585C10.7471 10.952 10.6198 11.0042 10.4872 11.0038L9.98716 11.0022C9.85456 11.0018 9.72721 11.0541 9.63314 11.1475C9.53907 11.241 9.48599 11.368 9.48556 11.5006C9.48513 11.6332 9.5374 11.7606 9.63087 11.8546C9.72434 11.9487 9.85134 12.0018 9.98395 12.0022C10.1166 12.0026 10.2436 12.0557 10.337 12.1498C10.4305 12.2439 10.4828 12.3712 10.4823 12.5038C10.4819 12.6364 10.4288 12.7634 10.3348 12.8569C10.2407 12.9504 10.1133 13.0026 9.98073 13.0022L7.59875 12.9945L7.59874 12.9955Z" fill="black"/>
</svg>
