<svg xmlns="http://www.w3.org/2000/svg" width="40" height="40" fill="none" xmlns:v="https://vecta.io/nano"><mask id="A" fill="#fff"><path d="M38.079 24.119c-.05-.702-.207-1.358-.474-1.972l-.088-.192-.065-.131c-.155-.304-.338-.597-.552-.879l-.049-.06-.05-.054c-.254-.258-.564-.295-.83-.097-.306.228-.312.558-.078.954l.201.335.289.51a3.41 3.41 0 0 1 .158.35l.062.181c.477 1.594.43 1.959-1.328 2.496-2.105.642-4.258.627-6.404.158a.91.91 0 0 1-.07-.019c-.023-.007-.046-.018-.07-.028l-.035-.017a1.19 1.19 0 0 1-.182-.116l-.082-.069-.076-.072-.354-.366-1.029-1.126c-.02-.023-.038-.05-.056-.08l-.018-.034-.027-.064a.52.52 0 0 1-.034-.258 3.67 3.67 0 0 1 .139-.558l.035-.1.078-.197.044-.097c.178-.384.419-.737.706-1.062l.146-.158.051-.053.05-.05.155-.148.215-.185.223-.171.347-.233a5.08 5.08 0 0 1 .486-.262l.378-.162.259-.091.368-.104.051-.012c.67-.156 1.37-.18 2.06-.066a5.22 5.22 0 0 1 .514.111 5.4 5.4 0 0 1 1.322.553c.467.272.837.223 1.038-.139.14-.252.105-.496-.107-.714-.025-.026-.053-.052-.084-.078a1.12 1.12 0 0 0-.1-.074l-.114-.072-.995-.522.075-.098.032-.04.016-.018c.005-.006.01-.013.016-.018l.046-.051.045-.052.086-.105.109-.143.149-.22.052-.086.126-.232.064-.134.032-.073.032-.078.058-.157.05-.158c.173-.586.188-1.198.041-1.786l-.022-.086-.053-.17-.03-.086a3.53 3.53 0 0 0-.198-.445l-.124-.215-.062-.095-.064-.093-.135-.177-.071-.085-.149-.16c-.893-.904-2.221-1.234-3.566-.826-.174.053-.267.021-.366-.071l-.067-.071-.057-.063-.056-.064-.112-.128c-.225-.258-.454-.512-.722-.713-.559-.419-1.171-.768-1.79-1.166l.125-.13.118-.133.112-.137.105-.141a3.38 3.38 0 0 0 .642-2.026 3.38 3.38 0 0 0-1.189-2.61c-.699-.618-1.61-.898-2.502-.84l-.152.014a3.33 3.33 0 0 0-.453.079l-.149.039a3.64 3.64 0 0 0-.434.158l-.21.102-.136.076-.133.082-.194.136-.185.15-.178.167c-.381.378-.657.814-.824 1.306l-.025.074-.022.075a3.53 3.53 0 0 0-.101.469l-.011.081-.022.246a3.44 3.44 0 0 0 .066.942v.002l.065.254.054.166.063.163.071.158c.068.142.146.28.234.414l.081.118.191.249.093.108.127.138.066.067-.424.257-.337.205-.155.094-.334.2-.41.242a.15.15 0 0 1-.041.018h-.001c-.022.007-.045.011-.07.014-.06.006-.126.002-.186.002h-.009l-1.326.002-.386-.003c-.029 0-.059-.001-.088-.002-.09-.004-.18-.017-.25-.058l-.395-.232-.795-.48-.407-.247c1.397-1.93 1.439-3.655.119-5.006l-.065-.065-.067-.066-.235-.201-.082-.062a3.01 3.01 0 0 0-.273-.178l-.287-.15-.148-.065-.151-.057a3.56 3.56 0 0 0-2.042-.098l-.277.082-.136.05a3.36 3.36 0 0 0-.522.258 3.11 3.11 0 0 0-.362.255 3.74 3.74 0 0 0-.639.66l-.168.247c-.135.218-.243.453-.324.704l-.052.179-.055.25a3.63 3.63 0 0 0 .007 1.414l.041.169.05.168.058.163.104.241c.05.106.106.209.168.31l.047.076.101.15.109.146c.113.146.238.286.375.423-.047.052-.061.079-.082.09l-.191.087-.064.028-.098.046-.172.083-.114.058-.125.066a6.15 6.15 0 0 0-.928.621 5.52 5.52 0 0 0-.914.938c-.182.239-.333.284-.627.199-1.454-.418-2.686-.009-3.668 1.118a3.17 3.17 0 0 0-.48.742l-.111.271-.056.171-.066.253a3.46 3.46 0 0 0 .322 2.349 5.6 5.6 0 0 0 .431.659l.282.392h-.001l-.135.062-.127.058c-1.741.798-2.947 2.076-3.49 3.934-.371 1.272-.266 2.184.378 2.851a2.76 2.76 0 0 0 .502.405 4.76 4.76 0 0 0 .918.442l.135.048c1.688.584 3.438.694 5.208.587l1.335-.116h.001l-.091.258c-.47 1.104-.703 2.254-.737 3.455-.034 1.186.581 1.985 1.484 2.622.173.122.374.142.548.078a.58.58 0 0 0 .062-.027l.059-.034a.63.63 0 0 0 .082-.065.62.62 0 0 0 .071-.08c.165-.22.185-.437.079-.641-.014-.028-.03-.055-.05-.082l-.041-.054-.046-.054c-.09-.097-.206-.167-.308-.252-.432-.357-.703-.787-.69-1.374a8.99 8.99 0 0 1 .118-1.282l.03-.17.071-.338a7.99 7.99 0 0 1 .241-.822l.069-.185.118-.289.201-.425a7.34 7.34 0 0 1 .529-.872l.251-.336.274-.334.093-.108.095-.106.189-.206.192-.199.542-.507.11-.094.195-.159.542-.401.086-.058.173-.112.11-.068c1.856-1.135 4.017-1.495 6.434-1.121 1.975.306 3.698 1.234 4.981 2.564a8.55 8.55 0 0 1 1.682 2.514 8.56 8.56 0 0 1 .694 2.834 2.2 2.2 0 0 1-.046.664l-.001.002-.029.109a1.68 1.68 0 0 1-.156.36l-.053.084a2.04 2.04 0 0 1-.453.48l-.103.077-.391.254-.201.115-.305.158-.207.097-.31.13-.215.082-.435.146-.221.066-.443.117-.674.149c-3.134.627-6.273.628-9.413.022l-.11-.019-.103-.014-.05-.005-.094-.006c-.396-.012-.614.134-.682.457-.036.175-.018.323.058.445a.46.46 0 0 0 .034.046c.126.153.358.258.713.317l1.481.233.594.074h.001l.298.03c2.726.252 5.435.133 8.107-.489l1.026-.277c.742-.234 1.454-.545 2.103-.998a5.86 5.86 0 0 0 .521-.405l.2-.189a2.78 2.78 0 0 0 .646-.962l.052-.152a2.42 2.42 0 0 0 .104-.689c.006-.596-.033-1.203-.149-1.786l-.201-.82-.058-.203-.121-.406-.062-.204-.16-.546.062-.002a.91.91 0 0 1 .156.003c1.422.197 2.844.189 4.264-.014 1.086-.155 2.154-.377 3.09-.998.718-.477 1.108-1.108 1.043-2.014h.002zm-8.522-7.909l.003-.114a2.3 2.3 0 0 1 .023-.225l.02-.107c.016-.076.035-.151.059-.224l.026-.074c.002-.009.006-.017.009-.025l.029-.075.035-.08.026-.054.036-.07a2.14 2.14 0 0 1 .175-.273l.05-.064.066-.076.06-.065.05-.051.06-.057.081-.07.084-.066.176-.118.093-.053.095-.049.098-.044a1.92 1.92 0 0 1 .203-.074l.105-.03.107-.024a2 2 0 0 1 .22-.034 2.11 2.11 0 0 1 .226-.012 2.17 2.17 0 0 1 .447.046l.108.025.094.027.075.025.061.022c.017.006.032.011.047.019a.35.35 0 0 1 .047.02l.074.033.114.059.082.047.089.058.171.127.157.143.081.086.048.056.087.11.054.077.11.182.049.096a2.17 2.17 0 0 1 .084.198l.064.209.025.107a1.67 1.67 0 0 1 .034.221c.01.085.014.17.012.258l-.004.092-.002.031-.008.088-.003.028-.013.09-.021.113-.022.094-.034.116a2.03 2.03 0 0 1-.076.201 2.02 2.02 0 0 1-.095.191l-.053.09-.122.177-.062.078a1.97 1.97 0 0 1-.199.209l-.032.029-.046.04-.036.03-.06.047-.046.033-.034.024a.42.42 0 0 1-.046.03l-.026.018-.054.033-.077.043-.094.049-.098.043-.08.031-.102.035-.076.022-.139.034-.108.02-.037.006-.071.009a.41.41 0 0 1-.031.003 1.05 1.05 0 0 1-.098.007l-.113.003h-.021c-.038 0-.076-.002-.114-.004l-.106-.009-.1-.013-.037-.006-.088-.017-.107-.026-.088-.026-.183-.066-.053-.022-.073-.034-.038-.019-.063-.033-.092-.054-.174-.12-.066-.052-.057-.049-.053-.048a1.69 1.69 0 0 1-.126-.128l-.042-.049c-.006-.006-.011-.012-.016-.018l-.033-.04-.06-.078-.05-.071-.052-.082-.015-.024-.021-.037-.035-.065-.046-.094-.042-.097-.019-.049-.015-.042-.054-.178-.01-.04-.022-.102c-.021-.103-.034-.208-.038-.316l-.003-.11v-.014zM25.133 5.878l.106.003.098.006h.003l.098.012.112.018.061.013.049.011a.34.34 0 0 1 .034.009l.022.006.073.022.089.03.066.026.029.011.042.018.04.018.054.026.063.033.034.018.082.048.081.051a2.05 2.05 0 0 1 .25.198h.001l.076.074.07.074.073.084.066.083c.043.056.083.115.12.176l.043.076.019.035.04.078.037.082.018.043.017.043.017.043.019.056.017.055.046.178.01.05.006.034.01.066.01.079.003.038.007.094.002.099v.014l-.003.111-.007.101-.006.049a.74.74 0 0 1-.008.061c0 .008-.002.017-.003.025l-.016.089-.022.098-.008.03-.027.095-.035.103-.04.101-.037.083-.034.069-.036.068-.02.034-.027.046c-.082.134-.178.258-.285.37l-.05.051a2.26 2.26 0 0 1-.226.194l-.177.12-.189.102-.098.045-.088.034-.09.031-.082.025-.082.022-.084.019-.181.028-.056.006c-.008.002-.015.002-.023.002-.021.003-.042.004-.063.005l-.111.003h-.022c-.038 0-.076-.002-.114-.004l-.111-.01a2.2 2.2 0 0 1-.218-.035 2.03 2.03 0 0 1-.21-.056l-.102-.035-.062-.025-.049-.021-.037-.017-.073-.035-.07-.037-.092-.054-.056-.036-.055-.038a.61.61 0 0 1-.054-.039l-.103-.082-.098-.089-.047-.046-.052-.054-.059-.067-.041-.049c-.033-.04-.063-.082-.092-.125a.59.59 0 0 1-.037-.054c-.035-.052-.067-.106-.096-.162l-.092-.193a2.23 2.23 0 0 1-.172-.87c.003-1.219.998-2.215 2.214-2.215h-.001zm-10.318 0c1.216.007 2.203 1.006 2.202 2.228a2.22 2.22 0 0 1-2.207 2.221c-1.232.003-2.234-1.01-2.222-2.246.012-1.222 1.011-2.21 2.227-2.202zm-4.134 7.75l.162-.234.089-.113.193-.217.189-.184.063-.057.043-.036.057-.049.023-.018.086-.069.203-.147.111-.074.071-.046a4.73 4.73 0 0 1 .469-.258l.066-.032.121-.054.146-.062.104-.04.082-.03.198-.067.098-.03.098-.028.071-.019.117-.03.155-.035.274-.05.083-.013a5.16 5.16 0 0 1 .57-.052l.071-.002.343.002.124.006.164.013h.001l.163.018.163.023.162.029.162.035.161.04.159.046.158.052.156.058.154.063.303.145.149.082.146.087h-.001l-.353.23-.336.246-.14.113-.059.05-.062.053-.206.186-.114.113c-.008.007-.017.016-.025.025l-.043.045-.099.104-.073.081-.078.092-.085.103-.095.121a5.18 5.18 0 0 0-.49.795c-.506 1.018-.664 2.094-.525 3.343l-.408-.052-.603-.078-2.182-.281c.466-1.493.226-2.749-.781-3.822l.073-.121h0zm-2.509.377c1.221.004 2.205.994 2.206 2.218s-.985 2.214-2.206 2.219a2.21 2.21 0 0 1-2.225-2.2c-.01-1.24.986-2.242 2.226-2.237zm4.646 10.059c-.453.384-.806.884-1.223 1.313-.147.151-.347.31-.544.342l-2.882.396c-1.351-.094-2.675-.212-3.938-.697-1.117-.429-1.308-.821-1.021-1.994.48-1.96 2.092-3.354 4.263-3.687 2.426-.373 4.854 1.13 5.573 3.436.114.365.105.609-.227.891zm1.454-1.226c-.611-1.871-1.884-3.203-3.749-3.975l-.008-.145.048-.012.077-.022a.97.97 0 0 1 .164-.042c.035-.005.069-.005.101.005l.077.022.566.146.154.034.023.005.154.032.183.035.467.077.444.057.497.048.473.031.714.025a.29.29 0 0 1 .044.004l.048.009a.59.59 0 0 1 .096.032l.031.015c.031.017.059.036.079.058s.02.026.024.034l.079.162.011.022.086.163.082.145.09.146.054.086.077.114.108.15.104.137.023.03.098.119.114.131.067.073c.289.312.617.595.981.851l-2.683 1.196zm4.4-1.758c-1.73-.526-2.985-2.302-2.903-4.108.09-1.981 1.475-3.632 3.366-3.991 1.371-.262 2.582.082 3.639.993.148.128.332.313.491.305.219-.011.49-.13.631-.294.201-.234.137-.546-.098-.754l-1.242-1.018.949-.378c2.04-.667 4.324-.014 5.648 1.604.12.147.239.255.051.468-.871.989-1.097 2.129-.726 3.39.014.05.019.102.05.271l-3.176.417-.013-1.647c-.047-.431-.183-.859-.326-1.272-.149-.427-.493-.585-.841-.442-.34.138-.468.449-.314.867.478 1.304.411 2.56-.298 3.766-.982 1.667-2.971 2.408-4.888 1.825zm6.998 1.762l-2.655-1.186c.034-.038.073-.103.13-.143a5.19 5.19 0 0 0 1.722-2.057.46.46 0 0 1 .483-.309c1.242-.008 2.468-.138 3.665-.495.118-.034.271.051.41.14-1.857.841-3.151 2.15-3.754 4.05zm-11.896 10.92a.64.64 0 0 1-.642.624c-.351-.01-.618-.302-.6-.655.018-.336.295-.591.633-.584.326.007.607.291.609.615z"/><path d="M10.931 13.281l.193-.217-.193.217zm2.639 4.57l.602.078-.602-.078z"/><path d="M14.173 17.929l.408.052-.408-.052zm2.837-5.418l-.336.246.336-.246zm6.08-3.548a2.13 2.13 0 0 0 .092.193 1.85 1.85 0 0 1-.092-.193zm.516.751a2.28 2.28 0 0 0 .202.171 1.95 1.95 0 0 1-.202-.171zm.853.508l.21.056a2.03 2.03 0 0 1-.21-.056z"/><path d="M24.669 10.278l.218.035a2.14 2.14 0 0 1-.218-.035zm1.611-.273l.177-.12a2.02 2.02 0 0 1-.177.12zm4.33 8.108l-.174-.12a1.98 1.98 0 0 0 .174.12z"/></mask><path d="M38.079 24.119c-.05-.702-.207-1.358-.474-1.972l-.088-.192-.065-.131c-.155-.304-.338-.597-.552-.879l-.049-.06-.05-.054c-.254-.258-.564-.295-.83-.097-.306.228-.312.558-.078.954l.201.335.289.51a3.41 3.41 0 0 1 .158.35l.062.181c.477 1.594.43 1.959-1.328 2.496-2.105.642-4.258.627-6.404.158a.91.91 0 0 1-.07-.019c-.023-.007-.046-.018-.07-.028l-.035-.017a1.19 1.19 0 0 1-.182-.116l-.082-.069-.076-.072-.354-.366-1.029-1.126c-.02-.023-.038-.05-.056-.08l-.018-.034-.027-.064a.52.52 0 0 1-.034-.258 3.67 3.67 0 0 1 .139-.558l.035-.1.078-.197.044-.097c.178-.384.419-.737.706-1.062l.146-.158.051-.053.05-.05.155-.148.215-.185.223-.171.347-.233a5.08 5.08 0 0 1 .486-.262l.378-.162.259-.091.368-.104.051-.012c.67-.156 1.37-.18 2.06-.066a5.22 5.22 0 0 1 .514.111 5.4 5.4 0 0 1 1.322.553c.467.272.837.223 1.038-.139.14-.252.105-.496-.107-.714-.025-.026-.053-.052-.084-.078a1.12 1.12 0 0 0-.1-.074l-.114-.072-.995-.522.075-.098.032-.04.016-.018c.005-.006.01-.013.016-.018l.046-.051.045-.052.086-.105.109-.143.149-.22.052-.086.126-.232.064-.134.032-.073.032-.078.058-.157.05-.158c.173-.586.188-1.198.041-1.786l-.022-.086-.053-.17-.03-.086a3.53 3.53 0 0 0-.198-.445l-.124-.215-.062-.095-.064-.093-.135-.177-.071-.085-.149-.16c-.893-.904-2.221-1.234-3.566-.826-.174.053-.267.021-.366-.071l-.067-.071-.057-.063-.056-.064-.112-.128c-.225-.258-.454-.512-.722-.713-.559-.419-1.171-.768-1.79-1.166l.125-.13.118-.133.112-.137.105-.141a3.38 3.38 0 0 0 .642-2.026 3.38 3.38 0 0 0-1.189-2.61c-.699-.618-1.61-.898-2.502-.84l-.152.014a3.33 3.33 0 0 0-.453.079l-.149.039a3.64 3.64 0 0 0-.434.158l-.21.102-.136.076-.133.082-.194.136-.185.15-.178.167c-.381.378-.657.814-.824 1.306l-.025.074-.022.075a3.53 3.53 0 0 0-.101.469l-.011.081-.022.246a3.44 3.44 0 0 0 .066.942v.002l.065.254.054.166.063.163.071.158c.068.142.146.28.234.414l.081.118.191.249.093.108.127.138.066.067-.424.257-.337.205-.155.094-.334.2-.41.242a.15.15 0 0 1-.041.018h-.001c-.022.007-.045.011-.07.014-.06.006-.126.002-.186.002h-.009l-1.326.002-.386-.003c-.029 0-.059-.001-.088-.002-.09-.004-.18-.017-.25-.058l-.395-.232-.795-.48-.407-.247c1.397-1.93 1.439-3.655.119-5.006l-.065-.065-.067-.066-.235-.201-.082-.062a3.01 3.01 0 0 0-.273-.178l-.287-.15-.148-.065-.151-.057a3.56 3.56 0 0 0-2.042-.098l-.277.082-.136.05a3.36 3.36 0 0 0-.522.258 3.11 3.11 0 0 0-.362.255 3.74 3.74 0 0 0-.639.66l-.168.247c-.135.218-.243.453-.324.704l-.052.179-.055.25a3.63 3.63 0 0 0 .007 1.414l.041.169.05.168.058.163.104.241c.05.106.106.209.168.31l.047.076.101.15.109.146c.113.146.238.286.375.423-.047.052-.061.079-.082.09l-.191.087-.064.028-.098.046-.172.083-.114.058-.125.066a6.15 6.15 0 0 0-.928.621 5.52 5.52 0 0 0-.914.938c-.182.239-.333.284-.627.199-1.454-.418-2.686-.009-3.668 1.118a3.17 3.17 0 0 0-.48.742l-.111.271-.056.171-.066.253a3.46 3.46 0 0 0 .322 2.349 5.6 5.6 0 0 0 .431.659l.282.392h-.001l-.135.062-.127.058c-1.741.798-2.947 2.076-3.49 3.934-.371 1.272-.266 2.184.378 2.851a2.76 2.76 0 0 0 .502.405 4.76 4.76 0 0 0 .918.442l.135.048c1.688.584 3.438.694 5.208.587l1.335-.116h.001l-.091.258c-.47 1.104-.703 2.254-.737 3.455-.034 1.186.581 1.985 1.484 2.622.173.122.374.142.548.078a.58.58 0 0 0 .062-.027l.059-.034a.63.63 0 0 0 .082-.065.62.62 0 0 0 .071-.08c.165-.22.185-.437.079-.641-.014-.028-.03-.055-.05-.082l-.041-.054-.046-.054c-.09-.097-.206-.167-.308-.252-.432-.357-.703-.787-.69-1.374a8.99 8.99 0 0 1 .118-1.282l.03-.17.071-.338a7.99 7.99 0 0 1 .241-.822l.069-.185.118-.289.201-.425a7.34 7.34 0 0 1 .529-.872l.251-.336.274-.334.093-.108.095-.106.189-.206.192-.199.542-.507.11-.094.195-.159.542-.401.086-.058.173-.112.11-.068c1.856-1.135 4.017-1.495 6.434-1.121 1.975.306 3.698 1.234 4.981 2.564a8.55 8.55 0 0 1 1.682 2.514 8.56 8.56 0 0 1 .694 2.834 2.2 2.2 0 0 1-.046.664l-.001.002-.029.109a1.68 1.68 0 0 1-.156.36l-.053.084a2.04 2.04 0 0 1-.453.48l-.103.077-.391.254-.201.115-.305.158-.207.097-.31.13-.215.082-.435.146-.221.066-.443.117-.674.149c-3.134.627-6.273.628-9.413.022l-.11-.019-.103-.014-.05-.005-.094-.006c-.396-.012-.614.134-.682.457-.036.175-.018.323.058.445a.46.46 0 0 0 .034.046c.126.153.358.258.713.317l1.481.233.594.074h.001l.298.03c2.726.252 5.435.133 8.107-.489l1.026-.277c.742-.234 1.454-.545 2.103-.998a5.86 5.86 0 0 0 .521-.405l.2-.189a2.78 2.78 0 0 0 .646-.962l.052-.152a2.42 2.42 0 0 0 .104-.689c.006-.596-.033-1.203-.149-1.786l-.201-.82-.058-.203-.121-.406-.062-.204-.16-.546.062-.002a.91.91 0 0 1 .156.003c1.422.197 2.844.189 4.264-.014 1.086-.155 2.154-.377 3.09-.998.718-.477 1.108-1.108 1.043-2.014h.002zm-8.522-7.909l.003-.114a2.3 2.3 0 0 1 .023-.225l.02-.107c.016-.076.035-.151.059-.224l.026-.074c.002-.009.006-.017.009-.025l.029-.075.035-.08.026-.054.036-.07a2.14 2.14 0 0 1 .175-.273l.05-.064.066-.076.06-.065.05-.051.06-.057.081-.07.084-.066.176-.118.093-.053.095-.049.098-.044a1.92 1.92 0 0 1 .203-.074l.105-.03.107-.024a2 2 0 0 1 .22-.034 2.11 2.11 0 0 1 .226-.012 2.17 2.17 0 0 1 .447.046l.108.025.094.027.075.025.061.022c.017.006.032.011.047.019a.35.35 0 0 1 .047.02l.074.033.114.059.082.047.089.058.171.127.157.143.081.086.048.056.087.11.054.077.11.182.049.096a2.17 2.17 0 0 1 .084.198l.064.209.025.107a1.67 1.67 0 0 1 .034.221c.01.085.014.17.012.258l-.004.092-.002.031-.008.088-.003.028-.013.09-.021.113-.022.094-.034.116a2.03 2.03 0 0 1-.076.201 2.02 2.02 0 0 1-.095.191l-.053.09-.122.177-.062.078a1.97 1.97 0 0 1-.199.209l-.032.029-.046.04-.036.03-.06.047-.046.033-.034.024a.42.42 0 0 1-.046.03l-.026.018-.054.033-.077.043-.094.049-.098.043-.08.031-.102.035-.076.022-.139.034-.108.02-.037.006-.071.009a.41.41 0 0 1-.031.003 1.05 1.05 0 0 1-.098.007l-.113.003h-.021c-.038 0-.076-.002-.114-.004l-.106-.009-.1-.013-.037-.006-.088-.017-.107-.026-.088-.026-.183-.066-.053-.022-.073-.034-.038-.019-.063-.033-.092-.054-.174-.12-.066-.052-.057-.049-.053-.048a1.69 1.69 0 0 1-.126-.128l-.042-.049c-.006-.006-.011-.012-.016-.018l-.033-.04-.06-.078-.05-.071-.052-.082-.015-.024-.021-.037-.035-.065-.046-.094-.042-.097-.019-.049-.015-.042-.054-.178-.01-.04-.022-.102c-.021-.103-.034-.208-.038-.316l-.003-.11v-.014zM25.133 5.878l.106.003.098.006h.003l.098.012.112.018.061.013.049.011a.34.34 0 0 1 .034.009l.022.006.073.022.089.03.066.026.029.011.042.018.04.018.054.026.063.033.034.018.082.048.081.051a2.05 2.05 0 0 1 .25.198h.001l.076.074.07.074.073.084.066.083c.043.056.083.115.12.176l.043.076.019.035.04.078.037.082.018.043.017.043.017.043.019.056.017.055.046.178.01.05.006.034.01.066.01.079.003.038.007.094.002.099v.014l-.003.111-.007.101-.006.049a.74.74 0 0 1-.008.061c0 .008-.002.017-.003.025l-.016.089-.022.098-.008.03-.027.095-.035.103-.04.101-.037.083-.034.069-.036.068-.02.034-.027.046c-.082.134-.178.258-.285.37l-.05.051a2.26 2.26 0 0 1-.226.194l-.177.12-.189.102-.098.045-.088.034-.09.031-.082.025-.082.022-.084.019-.181.028-.056.006c-.008.002-.015.002-.023.002-.021.003-.042.004-.063.005l-.111.003h-.022c-.038 0-.076-.002-.114-.004l-.111-.01a2.2 2.2 0 0 1-.218-.035 2.03 2.03 0 0 1-.21-.056l-.102-.035-.062-.025-.049-.021-.037-.017-.073-.035-.07-.037-.092-.054-.056-.036-.055-.038a.61.61 0 0 1-.054-.039l-.103-.082-.098-.089-.047-.046-.052-.054-.059-.067-.041-.049c-.033-.04-.063-.082-.092-.125a.59.59 0 0 1-.037-.054c-.035-.052-.067-.106-.096-.162l-.092-.193a2.23 2.23 0 0 1-.172-.87c.003-1.219.998-2.215 2.214-2.215h-.001zm-10.318 0c1.216.007 2.203 1.006 2.202 2.228a2.22 2.22 0 0 1-2.207 2.221c-1.232.003-2.234-1.01-2.222-2.246.012-1.222 1.011-2.21 2.227-2.202zm-4.134 7.75l.162-.234.089-.113.193-.217.189-.184.063-.057.043-.036.057-.049.023-.018.086-.069.203-.147.111-.074.071-.046a4.73 4.73 0 0 1 .469-.258l.066-.032.121-.054.146-.062.104-.04.082-.03.198-.067.098-.03.098-.028.071-.019.117-.03.155-.035.274-.05.083-.013a5.16 5.16 0 0 1 .57-.052l.071-.002.343.002.124.006.164.013h.001l.163.018.163.023.162.029.162.035.161.04.159.046.158.052.156.058.154.063.303.145.149.082.146.087h-.001l-.353.23-.336.246-.14.113-.059.05-.062.053-.206.186-.114.113c-.008.007-.017.016-.025.025l-.043.045-.099.104-.073.081-.078.092-.085.103-.095.121a5.18 5.18 0 0 0-.49.795c-.506 1.018-.664 2.094-.525 3.343l-.408-.052-.603-.078-2.182-.281c.466-1.493.226-2.749-.781-3.822l.073-.121h0zm-2.509.377c1.221.004 2.205.994 2.206 2.218s-.985 2.214-2.206 2.219a2.21 2.21 0 0 1-2.225-2.2c-.01-1.24.986-2.242 2.226-2.237zm4.646 10.059c-.453.384-.806.884-1.223 1.313-.147.151-.347.31-.544.342l-2.882.396c-1.351-.094-2.675-.212-3.938-.697-1.117-.429-1.308-.821-1.021-1.994.48-1.96 2.092-3.354 4.263-3.687 2.426-.373 4.854 1.13 5.573 3.436.114.365.105.609-.227.891zm1.454-1.226c-.611-1.871-1.884-3.203-3.749-3.975l-.008-.145.048-.012.077-.022a.97.97 0 0 1 .164-.042c.035-.005.069-.005.101.005l.077.022.566.146.154.034.023.005.154.032.183.035.467.077.444.057.497.048.473.031.714.025a.29.29 0 0 1 .044.004l.048.009a.59.59 0 0 1 .096.032l.031.015c.031.017.059.036.079.058s.02.026.024.034l.079.162.011.022.086.163.082.145.09.146.054.086.077.114.108.15.104.137.023.03.098.119.114.131.067.073c.289.312.617.595.981.851l-2.683 1.196zm4.4-1.758c-1.73-.526-2.985-2.302-2.903-4.108.09-1.981 1.475-3.632 3.366-3.991 1.371-.262 2.582.082 3.639.993.148.128.332.313.491.305.219-.011.49-.13.631-.294.201-.234.137-.546-.098-.754l-1.242-1.018.949-.378c2.04-.667 4.324-.014 5.648 1.604.12.147.239.255.051.468-.871.989-1.097 2.129-.726 3.39.014.05.019.102.05.271l-3.176.417-.013-1.647c-.047-.431-.183-.859-.326-1.272-.149-.427-.493-.585-.841-.442-.34.138-.468.449-.314.867.478 1.304.411 2.56-.298 3.766-.982 1.667-2.971 2.408-4.888 1.825zm6.998 1.762l-2.655-1.186c.034-.038.073-.103.13-.143a5.19 5.19 0 0 0 1.722-2.057.46.46 0 0 1 .483-.309c1.242-.008 2.468-.138 3.665-.495.118-.034.271.051.41.14-1.857.841-3.151 2.15-3.754 4.05zm-11.896 10.92a.64.64 0 0 1-.642.624c-.351-.01-.618-.302-.6-.655.018-.336.295-.591.633-.584.326.007.607.291.609.615z" fill="#3f51b5"/><g fill="#fff"><path d="M10.931 13.281l.193-.217-.193.217zm2.639 4.57l.602.078-.602-.078z"/><path d="M14.173 17.929l.408.052-.408-.052zm2.837-5.418l-.336.246.336-.246zm6.08-3.548a2.13 2.13 0 0 0 .092.193 1.85 1.85 0 0 1-.092-.193zm.516.751a2.28 2.28 0 0 0 .202.171 1.95 1.95 0 0 1-.202-.171zm.853.508l.21.056a2.03 2.03 0 0 1-.21-.056z"/><path d="M24.669 10.278l.218.035a2.14 2.14 0 0 1-.218-.035zm1.611-.273l.177-.12a2.02 2.02 0 0 1-.177.12zm4.33 8.108l-.174-.12a1.98 1.98 0 0 0 .174.12z"/></g><path d="M30.876 17.689l-.138-.095-.604.797.211.145.531-.847zm7.203 6.429v1h1.074l-.077-1.072-.997.072zm-.474-1.972l.917-.399-.001-.002-.916.401zm-.088-.192l-.907.421.004.009.004.009.899-.438zm-.065-.131l-.891.455.003.006.888-.46zm-.552-.879l.798-.603-.005-.006-.793.61zm-.049-.06l-.768.64.008.009.008.009.753-.659zm-.05-.054l.723-.691-.005-.006-.005-.006-.713.702zm-.83-.097l-.597-.802h-.001l.598.802zm-.078.954l-.861.508h0l.861-.508zm.201.335l-.858.514.003.005.855-.519zm.289.51l-.891.454.002.003.889-.457zm.158.35l-.935.354.001.003.934-.357zm.062.181l.958-.287-.001-.003-.957.29zm-1.328 2.496l.292.956h0l-.292-.956zm-6.404.158l.214-.977-.011-.002-.203.979zm-.07-.019l-.326.945.015.005.015.005.296-.955zm-.07-.028l-.423.906.007.003.007.003.409-.913zm-.035-.017l-.452.892.005.002.447-.894zm-.182-.116l-.614.789.007.005.607-.795zm-.082-.069l-.673.74.006.006.006.006.66-.751zm-.076-.072l-.714.7.007.007.707-.707zm-.354-.366l.723-.69h0l-.723.69zm-1.029-1.126l-.757.653.005.006.752-.659zm-.056-.08l-.868.496.004.008.004.007.86-.511zm-.018-.034l-.908.419.012.026.014.025.882-.471zm-.027-.064l-.939.345.001.003.938-.347zm-.034-.258l.985.176.002-.012-.986-.164zm.139-.558l-.949-.316.949.316zm.035-.1l-.937-.35-.002.006.939.344zm.078-.197l-.912-.41-.005.012-.005.012.922.387zm.044-.097l.903.429.004-.008-.907-.421zm.706-1.062l-.745-.667-.004.005.749.662zm.146-.158l.713.701.014-.014.013-.015-.74-.673zm.051-.053l.707.707.008-.008.008-.008-.723-.691zm.05-.05l.673.74.021-.019.019-.02-.713-.701zm.155-.148l.673.74-.673-.74zm.438-.356l.582.813.006-.004.006-.004-.594-.805zm.347-.233l.52.854.004-.002-.523-.852zm.486-.262l.428.904.572-.271v-.633h-1zm0-.001l-.426-.905-.574.27v.634h1zm.378-.161l.351.936.007-.002-.358-.934zm.259-.091l.306.952h.001l-.307-.952zm.368-.104l-.232-.973h-.001l.232.973zm.051-.012l.222.975.005-.001-.227-.974zm2.06-.066l-.163.987h.003l.16-.987zm.514.111l.259-.966h0l-.259.966zm1.322.553l-.504.864h0l.503-.864zm1.038-.139l-.874-.486-.001.001.875.485zm-.107-.714l-.729.685.006.007.006.007.716-.698zm-.084-.078l-.644.765.01.008.634-.773zm-.1-.074l-.576.817.011.007.011.007.555-.832zm-.114-.072l-.498.867.004.002.494-.869zm-.995-.522l-.786-.619-.746.947 1.069.558.463-.886zm.075-.098l-.772-.636-.014.017-.014.018.8.6zm.032-.04l-.753-.659-.012.014-.012.014.776.631zm.016-.018l.759.651.021-.025.02-.026-.8-.6zm.016-.018l.707.707.018-.018.017-.019-.742-.671zm.09-.103l.757.654.001-.001-.758-.652zm.086-.105l-.782-.623v.001l.783.622zm.109-.143l-.806-.591-.006.009.813.582zm.149-.22l.849.529.005-.008-.853-.521zm.052-.086l-.86-.511-.004.007.864.504zm.126-.232l-.891-.454-.003.006.895.447zm.064-.134l-.906-.423-.004.008-.003.008.913.408zm.032-.073l-.916-.401-.001.003.917.398zm.032-.078l-.928-.371-.002.005.93.366zm.109-.315l-.959-.283-.002.006.961.277zm.041-1.786l-.97.242.97-.242zm-.022-.086l.964-.268-.001-.004-.962.271zm-.053-.17l-.956.292.004.014.005.014.947-.32zm-.03-.086l.941-.34-.002-.005-.939.345zm-.198-.445l.883-.47h0l-.882.471zm-.124-.215l.851-.526-.003-.004-.848.53zm-.126-.188l-.815.579.005.007.005.007.805-.593zm-.135-.177l-.779.627.005.006.773-.634zm-.071-.085l-.755.656.006.007.749-.663zm-.149-.16l-.712.703.004.004.707-.707zm-3.566-.826l.29.957h.001l-.29-.957zm-.366-.071l-.707.707.013.013.014.013.68-.733zm-.067-.071l.751-.66-.002-.003-.749.663zm-.057-.063l-.761.649.007.008.007.008.747-.664zm-.056-.064l-.755.656.008.009.747-.664zm-.112-.128l-.753.657.005.006.748-.663zm-.722-.713l.601-.799-.001-.001-.6.8zm-1.79-1.166l-.707-.707-.877.877 1.044.671.541-.841zm.125-.13l.733.68h0l-.734-.679zm.118-.133l-.759-.651-.007.008.766.643zm.217-.278l.815.58v-.001l-.815-.579zm.642-2.026l1-.008h0l-1 .008zm-1.189-2.61l-.663.749h0l.662-.749zm-2.502-.84l.063.998h.001l-.064-.998zm-.152.014l.104.995.006-.001-.111-.994zm-.453.079l.235.972.005-.001-.24-.971zm-.149.039l-.279-.96-.003.001.282.96zm-.434.158l.401.916.002-.001-.403-.915zm-.21.102l.466.885.006-.003-.472-.882zm-.269.158l.543.84.006-.004.006-.004-.555-.832zm-.194.136l.598.801.006-.005-.605-.796zm-.185.15l.657.754.003-.003-.661-.751zm-.178.167l.705.709.002-.002-.707-.707zm-.824 1.306l.942.334.004-.012-.947-.322zm-.025.074l-.952-.307-.005.014-.004.014.96.279zm-.022.075l-.96-.279-.001.004.962.275zm-.101.469l.989.15.001-.008-.99-.142zm-.011.081l.992.124.001-.007-.993-.117zm-.022.246l.998.063v-.004l-.998-.059zm.066.942h1v-.106l-.022-.104-.978.21zm0 .002h-1v.111l.024.108.976-.219zm.065.254l-.958.286v.002l.958-.287zm.054.166l.945-.329-.002-.004-.943.333zm.063.163l-.927.374.006.014.006.014.916-.402zm.071.158l-.905.425.003.006.902-.431zm.234.414l-.839.544.004.007.835-.551zm.081.118l.816-.578h0l-.816.578zm.191.249l-.772.636.008.01.764-.645zm.093.108l-.748.663.004.004.744-.667zm.127.138l-.726.688.006.006.72-.694zm.066.067l.517.856 1.094-.66-.903-.903-.707.707zm-.424.257l.518.855h0l-.518-.855zm-.337.205l-.515-.858-.009.006.524.852zm-.155.094l.514.857.006-.004-.52-.854zm-.334.2l.512.859h0l-.513-.859zm-.41.242h-1v1.743l1.505-.88-.505-.863zm0 .001l.49.872.51-.287v-.585h-1zm-.041.018v1h.162l.154-.051-.316-.949zm-.001 0v-1h-.162l-.154.051.316.949zm-.07.014l-.096-.995-.01.001.106.994zm-.194.002v-1h-.005l.005 1zm-1.326.002l-.006 1h.003l.004-1zm-.386-.003l.006-1h-.006v1zm-.088-.002l-.045.999h.009.009l.027-1zm-.25-.058l.501-.865-.003-.001-.499.867zm-.395-.232l-.513.858.002.001.511-.86zm-1.202-.727l-.81-.586-.637.88.929.562.517-.856zm.119-5.006l-.72.694.005.005.715-.699zm-.065-.065l-.707.707.013.013.014.013.68-.733zm-.067-.066l.694-.72-.005-.005-.005-.005-.684.73zm-.235-.201l.611-.791-.004-.003-.607.794zm-.082-.062l-.593.805h.001l.592-.806zm-.273-.178l-.508.861.006.003.503-.865zm-.287-.15l.423-.906-.006-.003-.417.909zm-.148-.065l.387-.922-.009-.004-.009-.004-.369.929zm-.151-.057l-.334.943.004.001.33-.944zm-2.042-.098l.241.971h.002l-.243-.97zm-.277.082l.316.949.005-.002-.321-.947zm-.136.05l-.36-.933-.004.002.364.931zm-.522.258l.518.856.002-.001-.519-.855zm-.362.255l.631.776.003-.002-.634-.773zm-.639.66l.8.6.001-.001-.801-.599zm-.168.247l.85.526.002-.004-.852-.523zm-.324.704l.95.312.002-.006-.952-.306zm-.052.179l.967.256v-.001l-.967-.254zm-.055.25l.984.179v-.003l-.984-.176zm.007 1.414l-.978.207.003.013.975-.22zm.041.169l-.969.249.003.009.966-.258zm.05.168l-.954.3.003.01.003.01.947-.32zm.058.163l-.934.357.934-.357zm.104.241l-.903.429.001.002.902-.431zm.168.31l.86-.511-.005-.008-.855.518zm.047.076l-.848.53.004.006.844-.536zm.21.296l.79-.612-.003-.004-.787.617zm.375.423l.74.672.64-.706-.674-.674-.707.707zm-.082.09l-.434-.901-.007.003-.007.003.447.894zm-.191.087l-.401-.916-.005.002.406.914zm-.064.028l.402.916.004-.002-.406-.914zm-.098.046l.417.909.015-.007.015-.008-.447-.894zm-.172.083l.432.902.015-.007.015-.008-.462-.887zm-.114.058l.454.891.008-.004.008-.004-.47-.883zm-.125.066l-.474-.88-.007.004.481.877zm-.928.621l.63.777.002-.002-.631-.776zm-.914.938l-.794-.608-.001.001.795.606zm-.627.199l.277-.961h0l-.276.961zm-3.668 1.118l-.754-.657h-.001l.755.656zm-.48.742l-.907-.422-.002.005.909.418zm-.111.271l.939.344.003-.008-.942-.336zm-.056.171l.956.294.002-.007.002-.007-.96-.28zm-.066.253l.977.212v-.002l-.978-.21zm.322 2.349l-.883.469.001.002.882-.47zm.431.659l-.809.588.005.007.804-.594zm.282.392v1h1.896l-1.071-1.565-.825.565zm-.001 0v-1h-.218l-.198.091.416.909zm-.135.062l.406.914.007-.003.007-.003-.42-.907zm-.127.058l.417.909.002-.001-.419-.908zm-3.49 3.934l-.96-.28h0l.96.28zm.378 2.851l.721-.693-.002-.002-.719.695zm.502.405l-.539.842.002.001.538-.843zm.918.442l-.347.938.005.002.342-.94zm.135.048l-.331.944.004.001.327-.945zm5.208.587l.06.998h0l-.061-.998zm1.335-.116v-1h-.044l-.043.004.087.996zm.001 0l.944.33.466-1.33H10.53v1zm-.091.258l-.92-.393v.001l.92.392zm-.737 3.455l1 .028h0l-1-.028zm1.484 2.622l.578-.816-.002-.001-.576.817zm.548.078l.346.938h.001l-.347-.938zm.122-.062l-.555-.832h0l.555.832zm.153-.145l.8.6v-.001l-.8-.599zm.079-.641l-.9.437.006.011.006.011.888-.46zm-.05-.082l-.821.571.004.006.817-.577zm-.041-.054l-.787.616.007.008.007.008.774-.633zm-.046-.054l-.731.683.008.008.723-.691zm-.308-.252l.638-.77-.001-.001-.637.771zm-.69-1.374l-1-.022h0l1 .022zm.118-1.282l-.986-.167v.002l.986.165zm.03-.17l-.982-.187-.001.007.984.18zm.071-.338l-.974-.229-.001.004.975.224zm.241-.822l-.94-.342-.003.008.943.334zm.069-.185l.932.363.003-.008-.935-.355zm.118-.289l.916.4.084-.191v-.209h-1zm0-.001l-.917-.399-.083.191v.208h1zm.201-.424l-.889-.459-.002.003.89.455zm.529-.872l.818.576h0l-.818-.576zm.251-.336l-.782-.623-.002.003.785.62zm.274-.334l-.763-.647-.001.001.764.646zm.187-.214l.74.673.005-.005-.744-.668zm.189-.206h1v-2.523l-1.728 1.838.728.685zm0-.001l-.728-.685-.272.289v.396h1zm.192-.198l.707.707.002-.002-.709-.706zm.542-.507l.655.756h0l-.655-.756zm.11-.094l.647.763.001-.001-.648-.762zm.195-.159l.621.784.006-.005-.627-.779zm.542-.401l-.555-.832-.009.006.564.826zm.086-.058l.555.832.005-.004-.56-.828zm.173-.112l.533.846.008-.006-.542-.841zm.11-.068l.52.854.002-.001-.522-.853zm6.434-1.121l.153-.988h0l-.153.988zm4.981 2.564h1v-.404l-.28-.29-.72.694zm0 .001h-1v.404l.281.291.719-.695zm1.682 2.514l.917-.4h0l-.916.4zm.694 2.834l.998-.069h0l-.998.069zm-.046.664l.899.438.049-.1.026-.108-.973-.231zm-.001.002l-.899-.438-.053.108-.026.118.977.212zm-.029.109l-.953-.303-.002.007-.002.007.957.289zm-.156.36l.864.504v-.001l-.864-.503zm-.053.084l-.817-.577-.009.014-.009.014.836.549zm-.453.48l-.616-.788-.002.002.618.786zm-.103.077l-.576-.817h-.001l.577.817zm-.391.254l-.512-.859-.004.002.516.857zm-.201.115l-.476-.88-.01.005.486.874zm-.305.158l.439.899h0l-.439-.899zm-.207.097l.407.913.002-.001-.409-.913zm-.31.13l.366.931.005-.002-.371-.928zm-.215.082l.34.941.005-.002-.344-.939zm-.435.146l-.293-.956-.008.003.301.954zm-.221.066l-.272-.962h-.001l.273.962zm-.443.117l.237.972.003-.001-.24-.971zm-.674.149l.196.98h.002l-.198-.98zm-9.413.022l.189-.982h-.001l-.188.982zm-.11-.019l-.157.988h.003l.154-.988zm-.103-.014l-.141.99.023.003.023.002.095-.995zm-.05-.005l-.099.995.025.002.025.001.05-.999zm-.094-.006l-.03 1h.004l.026-1zm-.682.457l-.979-.204-.001.002.98.201zm.058.445l-.846.534.007.011.838-.545zm.034.046l.773-.635-.008-.009-.765.644zm.713.317l.165-.986h0l-.165.986zm1.481.233l-.136.991.004.001.133-.991zm.594.074l-.112.994.056.006h.056v-1zm.001 0l.104-.995-.052-.005h-.052v1zm.298.03l.092-.996h-.004l-.088.996zm8.107-.489l.227.974h.001l-.228-.974zm1.026-.277l-.3-.954h-.001l.301.954zm2.103-.998l.572.82h0l-.573-.82zm.521-.405l.661.75.006-.005-.667-.745zm.2-.189l-.709-.705-.002.002.711.703zm.646-.962l-.933-.361-.002.004.934.357zm.052-.152l-.956-.292-.003.012.96.281zm.104-.689l-1-.011v.001l1 .01zm-.149-1.786l.98-.196h0l-.98.197zm-.201-.82l.963-.269v-.003l-.962.272zm-.058-.203l-.96.279.001.004.959-.282zm-.121-.406l-.959.282.002.007.957-.289zm-.062-.204l-.959.284.003.008.956-.292zm-.16-.546l-.042-.999-1.267.053.346 1.219.962-.273zm.062-.002l.036.999h.013l-.049-.999zm.156.003l.137-.991h-.002l-.135.991zm4.264-.014l-.142-.99h0l.142.99zm3.09-.998l-.553-.833h0l.554.833zm1.043-2.014v-1h-1.074l.077 1.071.997-.071zm-8.517-8.022l.996.085.001-.016v-.016l-.999-.053zm.023-.225l-.988-.154v.003l.989.15zm.02-.107l-.979-.206-.001.006.98.2zm.059-.224l.95.313.002-.006-.952-.307zm.026-.074l.928.371.021-.053.015-.055-.965-.263zm.009-.025l.928.371.004-.01.004-.01-.936-.351zm.029-.075l.922.387.078-.185v-.201h-1zm0-.002l-.916-.401-.084.192v.209h1zm.035-.078l.894.447.012-.024.011-.025-.917-.399zm.026-.054l.894.447.106-.211v-.236h-1zm.003-.007l.832.555.039-.058.03-.063-.901-.434zm.033-.063l-.879-.476-.001.002.881.474zm.175-.273l-.789-.614-.008.01.797.604zm.05-.064l.793.61.021-.027.019-.028-.832-.555zm.006-.006l-.781-.625-.027.034-.024.036.832.555zm.06-.07l.733.68.014-.014.013-.015-.759-.651zm.06-.065l.707.707.017-.017.016-.018-.74-.673zm.05-.051l.673.74.018-.016.017-.017-.707-.707zm.06-.057l.661.751.006-.005.006-.005-.673-.74zm.081-.07l.625.781.006-.005.005-.005-.636-.772zm.084-.066l-.591-.807-.01.007-.01.008.611.792zm.176-.118l.51.861.008-.005-.518-.856zm.093-.053l.447.894.013-.007.013-.007-.474-.88zm.095-.049l.429.903.009-.004.009-.005-.447-.894zm.098-.044l.356.934.023-.009.023-.01-.402-.916zm.203-.074l.296.955.013-.004-.31-.951zm.105-.03l.243.97.01-.003.01-.003-.263-.965zm.107-.024l.175.985.016-.003.016-.003-.207-.978zm.22-.034l.096.995.011-.001-.107-.994zm.674.034l.217-.976-.011-.002-.205.979zm.108.025l.248-.969-.011-.003-.238.971zm.094.027l-.301.954.067.021.07.012.164-.986zm.014.004l-.371.928.038.015.039.012.294-.956zm.062.021l-.371.928.038.015.039.012.294-.956zm.061.022l-.371.929.027.011.028.009.316-.949zm.047.019l-.466.885.066.034.07.024.33-.944zm.047.02l-.466.885.051.027.054.021.361-.933zm.074.033l-.471.882.023.012.023.011.425-.905zm.114.059l-.498.867.02.012.021.011.457-.889zm.082.047l-.537.844.018.011.018.011.501-.865zm.089.058l-.585.811.013.009.013.009.56-.829zm.171.127l.642-.766-.007-.005-.636.772zm.157.143l.717-.697-.005-.005-.713.701zm.081.086l-.746.666.008.009.739-.674zm.048.056l-.784.621.013.017.014.016.757-.654zm.087.11l.812-.584-.005-.007-.005-.007-.802.597zm.054.077l-.836.549.008.011.829-.56zm.159.278l-.907.42.004.009.004.009.899-.438zm.084.198l.941-.339-.003-.007-.938.346zm.064.209l-.973.232.004.016.004.015.965-.263zm.025.107l-.98.196.002.01.002.01.976-.217zm.034.221l-.996.085.001.014.002.014.994-.112zm.012.258l-1-.018v.009.009h1zm-.004.092l-.997-.079v.002l.997.077zm-.002.031l.997.081v-.004l-.997-.077zm-.008.088l-.991-.138-.004.027-.002.027.997.083zm-.003.028l-.986-.164-.005.03-.003.03.995.105zm-.013.09l-.983-.181-.017.09v.091h1zm0 .006l.988.154.012-.076v-.077h-1zm-.021.107l-.975-.222-.003.013-.002.013.98.196zm-.022.094l-.962-.271-.002.007-.002.008.967.256zm-.034.116l.953.303.001-.004-.954-.298zm-.076.201l-.916-.402-.004.009.92.393zm-.095.191l-.873-.488-.002.004.875.484zm-.053.09l-.843-.538-.004.006-.004.006.851.526zm-.122.177l-.791-.612-.006.008.797.604zm-.062.078l-.764-.645-.006.007.77.638zm-.199.209l-.669-.744-.01.009.678.735zm-.032.029l-.678-.735-.067.062-.055.073.8.6zm-.008.007l-.447-.894-.145.073-.115.115.707.707zm-.038.033v1h.355l.276-.224-.631-.776zm-.003.002v-1h-.391l-.287.265.678.735zm-.033.027l-.618-.786-.013.01-.013.011.643.766zm-.06.047l.593.805.006-.004.006-.005-.605-.796zm-.046.033l-.565-.825-.027.019-.026.02.618.786zm-.034.024l-.541-.841-.027.017-.026.019.593.805zm-.046.03l-.482-.876-.055.03-.051.037.588.809zm-.026.018l.52.854.009-.005.008-.005-.537-.844zm-.054.033l-.492-.871-.015.009-.015.009.523.853zm-.077.043l-.458-.889-.017.009-.017.009.491.871zm-.094.049l.421.907.008-.004-.429-.903zm-.098.043l-.383-.924-.008.003.391.921zm-.08.031l-.308-.951-.072.023-.068.034.447.894zm-.004.002v-1h-.181l-.17.064.351.936zm-.098.034l-.302-.953-.075.024-.07.035.447.894zm-.005.002v-1h-.162l-.154.051.316.949zm-.071.021l-.227-.974-.029.007-.029.009.286.958zm-.139.034l-.199-.98-.011.002-.011.003.222.975zm-.108.02l-.15-.989-.023.004-.023.005.196.981zm-.037.006l-.132-.991-.072.01-.07.02.275.962zm-.018.002v-1h-.09l-.089.016.179.984zm-.054.006l-.087-.996-.033.003-.033.005.152.988zm-.031.003l-.077-.997-.024.002-.024.003.124.992zm-.098.007l-.048-.999h-.008l-.008.001.064.998zm-.247-.001l.064-.998-.009-.001h-.009l-.046.999zm-.106-.009l.113-.994-.056-.006h-.057v1zm-.006-.001l.316-.949-.105-.035-.11-.011-.102.995zm-.094-.012l-.184.983.014.003.014.002.156-.988zm-.037-.006l.196-.981-.018-.004-.018-.003-.16.987zm-.088-.017l.211-.977-.008-.002-.008-.002-.196.981zm-.107-.026l.263-.965-.002-.001-.261.965zm-.088-.026l.316-.949-.011-.004-.011-.003-.294.956zm-.183-.066l.397-.918-.009-.004-.009-.004-.379.926zm-.053-.022l.414-.91-.021-.009-.021-.009-.371.928zm-.073-.034l.447-.894-.023-.012-.023-.01-.401.916zm-.038-.019l.515-.858-.128-.077-.144-.036-.243.97zm-.008-.004l.707-.707-.121-.121-.154-.074-.431.902zm-.055-.029l.492-.871-.009-.005-.009-.005-.474.88zm-.092-.054l.534-.846-.011-.007-.523.852zm-.174-.12l.611-.792-.077-.059-.087-.043-.447.894zm-.011-.008l.625-.781-.015-.012-.015-.011-.594.804zm-.055-.044l.654-.757-.282-.243h-.372v1zm-.003-.003l.894-.447-.101-.201-.177-.139-.616.787zm-.107-.094l.707-.707-.017-.017-.018-.016-.673.74zm-.126-.128l.746-.666-.003-.003-.743.669zm-.042-.049l.777-.629-.033-.041-.037-.037-.707.707zm-.016-.018l.8-.6-.014-.018-.014-.017-.772.636zm-.033-.04l.794-.608-.009-.012-.009-.011-.776.631zm-.06-.078l.809-.588-.046-.063-.056-.056-.707.707zm-.004-.005l-.818.575.05.071.061.061.707-.707zm-.046-.066l.841-.541-.01-.016-.011-.015-.82.572zm-.052-.082l.868-.496-.005-.009-.005-.009-.857.514zm-.015-.024l.857-.515-.857.515zm-.021-.037l.894-.447-.047-.095-.066-.083-.781.625zm-.006-.012l.928-.371-.029-.071-.039-.066-.861.509zm-.029-.053l.894-.447-.005-.009-.89.456zm-.046-.094l.912-.41-.006-.014-.007-.014-.899.438zm-.042-.097l-.929.371.005.012.924-.383zm-.019-.049l.935-.356-.002-.006-.932.362zm-.015-.042l.943-.333-.001-.003-.942.335zm-.054-.178l.97-.242-.007-.028-.009-.028-.954.298zm-.01-.04l.973-.229-.003-.012-.003-.012-.967.253zm-.022-.102l.983-.183-.001-.007-.001-.007-.98.198zm-.038-.316l.999-.044v-.01-.01l-.998.065zM25.239 5.881l-.068.998.034.002h.034v-1zm.009 0l.054-.999-.027-.001h-.027v1zm.089.006l-.107.994.054.006h.054v-1zm.003 0l.097-.995-.049-.005h-.049v1zm.098.012l-.145.989.072.011h.073v-1zm.008.001l-.316.949.089.03.093.013.135-.991zm.104.018l.189-.982-.006-.001-.183.983zm.061.013l-.233.972.023.006.023.004.187-.982zm.049.011l-.243.97.023.006.023.005.196-.981zm.034.009l-.294.956.048.015.05.01.196-.981zm.022.006l-.316.949.033.011.034.009.25-.968zm.073.022l-.316.949.019.006.019.006.278-.961zm.089.03l-.34.941.003.001.336-.942zm.066.026l-.406.914.044.02.046.015.316-.949zm.029.011l-.385.923.011.005.011.004.363-.932zm.042.018l-.406.914.013.006.013.005.381-.925zm.04.018l-.49.872.228.128h.262v-1zm.01.005l-.6.8.09.068.103.046.406-.914zm.044.021L25.66 7l.007.003.007.003.434-.901zm.063.033l-.5.866.038.022.039.018.423-.906zm.034.018l-.496.868.01.005.01.005.477-.879zm.163.099l.558-.83-.007-.005-.008-.005-.543.84zm.25.198l-.68.733.288.267h.393v-1zm.001 0l.672-.741-.286-.259h-.386v1zm.076.074l-.73.684.017.018.018.017.695-.719zm.07.074l-.753.659.022.025.024.024.707-.707zm.006.007l.742-.67-.017-.019-.018-.018-.707.707zm.066.077l-.774.633.006.008.007.008.761-.649zm.066.083l-.811.585.009.013.01.013.792-.611zm.12.176l-.856.518.004.006.004.006.848-.53zm.043.076l-.883.469.007.014.008.013.868-.496zm.019.035l-.882.471.005.01.006.01.872-.49zm.04.078l-.91.414.006.012.905-.426zm.037.082l-.919.394.007.016.007.016.905-.426zm.018.043l-.938.346.011.031.013.03.914-.406zm.017.043l-.949.316.015.046.02.044.914-.406zm.017.043l-.949.316.008.024.009.024.931-.364zm.019.056l-.96.28.007.024.008.024.945-.329zm.017.055l-.957.291.003.009.954-.3zm.046.178l-.978.209.002.012.003.011.973-.232zm.01.05l-.99.141.005.034.007.034.978-.21zm.006.034l-.991.132.003.025.005.025.983-.182zm.01.066l-.989.147v.003l.989-.15zm.01.079l-.993.12.002.012.991-.132zm.003.038l-.998.062.003.051.009.051.986-.164zm.002.015h-1v.047l.004.047.996-.093zm.006.078l.999-.049-.001-.012-.998.06zm-.001.224l-.998-.065v.009.009l.999.048zm-.007.101l-.995-.097v.002l.995.095zm-.006.049l-.989-.148-.005.036-.003.036.997.077zm-.008.061l-.987-.158-.013.078v.08h1zm-.003.025l-.981-.196-.004.02-.003.02.988.156zm-.016.089l-.976-.217-.01.046-.006.047.992.124zm-.004.018l-.962-.275-.013.047-.009.048.984.179zm-.018.079l-.972-.236-.002.011.974.225zm-.008.03l-.956-.294-.008.026-.006.026.97.243zm-.027.095l-.949-.316-.005.013-.004.013.957.289zm-.075.204l-.916-.402-.009.02-.008.02.932.362zm-.037.083l-.905-.426-.007.014-.006.014.918.398zm-.034.069l-.881-.472-.026.049-.021.052.928.371zm-.006.012l-.781-.625-.077.096-.051.112.909.417zm-.03.056l-.87-.492-.006.011-.006.011.882.471zm-.02.034l-.841-.541-.013.02-.012.02.865.501zm-.027.046l-.845-.534-.004.006-.004.006.853.521zm-.285.37l-.725-.689-.008.008-.007.008.74.673zm-.05.051l-.691-.723-.008.008.699.715zm-.226.194l.598.801h0l-.599-.801zm-.177.12l.518.855.008-.005-.526-.85zm-.189.102l-.434-.901-.007.003-.007.003.447.894zm-.098.045l.376.927.013-.005.013-.006-.402-.916zm-.088.034l-.332-.943-.011.004-.011.004.354.935zm-.09.031l-.301-.954-.007.002.308.951zm-.164.046l-.223-.975-.013.003-.013.003.249.969zm-.084.019l-.196-.981h-.002l.199.98zm-.181.028l-.105-.995-.012.001-.012.002.129.992zm-.056.006l-.042-.999-.078.003-.076.015.196.981zm-.023.002l.099-.995-.126-.013-.125.019.152.988zm-.063.005l-.037-.999-.014.001-.014.001.065.998zm-.246-.001l.064-.998-.01-.001h-.01l-.043.999zm-.111-.01l.129-.992-.011-.001-.011-.001-.107.994zm-.218-.035l.209-.978h-.002l-.207.978zm-.21-.056l.31-.951-.01-.003-.01-.003-.289.957zm-.102-.035l.356-.935-.009-.003-.347.938zm-.062-.025l.39-.921-.009-.004-.009-.004-.371.928zm-.013-.006l.514-.858-.069-.041-.074-.03-.371.928zm-.036-.015l.423-.906-.025-.012-.026-.01-.371.928zm-.037-.017l.471-.882-.024-.013-.024-.011-.423.906zm-.073-.035l.471-.882-.024-.013-.024-.011-.423.906zm-.07-.037l-.491.871.008.005.483-.876zm-.092-.054l.544-.839-.02-.013-.021-.012-.504.864zm-.056-.036l.571-.821-.012-.009-.013-.008-.546.838zm-.055-.038l.571-.821-.012-.009-.013-.008-.546.838zm-.054-.039l.633-.774-.016-.013-.017-.013-.6.8zm-.249-.218l.725-.689-.04-.042-.045-.037-.64.768zm-.012-.012l.781-.625-.026-.032-.028-.03-.727.687zm-.04-.042l.747-.664-.013-.015-.014-.014-.72.694zm-.059-.067l.784-.621-.011-.013-.011-.013-.762.648zm-.041-.049l.777-.629-.004-.005-.773.634zm-.092-.125l.832-.555-.019-.029-.021-.028-.791.611zm-.037-.054l.854-.52-.013-.021-.014-.02-.828.561zm-.096-.162l.889-.457-.004-.008-.005-.008-.88.474zm-.092-.193l.924-.383-.002-.004-.922.387zm-.172-.87l-1-.003h0l1 .003zm-5.902.013l1 .002v-.001l-1-.001zm-2.207 2.221l.003 1h0l-.003-1zM12.588 8.08l1 .01V8.09l-1-.01zm-1.907 5.547h-1v3.463l1.846-2.93-.846-.533zm.162-.234l.797.604.003-.004-.8-.6zm.089-.113l-.77-.638-.001.001.771.637zm.193-.217l-.721-.693-.003.003.723.691zm.189-.184l.67.742.008-.008-.678-.735zm.063-.057l.649.761.008-.007.008-.007-.664-.747zm.043-.036l.614.789.023-.018.022-.019-.659-.753zm.057-.049l-.625-.781-.008.006-.008.006.64.768zm.023-.018l.573.819.028-.019.026-.021-.627-.779zm.086-.069l-.611-.792-.008.006-.008.007.627.779zm.203-.147l.561.828.009-.006.009-.006-.58-.815zm.111-.074l.538.843.015-.01.015-.01-.568-.823zm.071-.046l.515.857.008-.005.008-.005-.53-.848zm.469-.258l.431.902.008-.004.008-.004-.447-.894zm.066-.032l-.418-.909-.003.002.421.907zm.121-.054l.396.918.007-.003.007-.003-.41-.912zm.146-.062l-.368-.93-.006.002.374.928zm.104-.04l.342.94.008-.003.008-.003-.357-.934zm.082-.03l.324.946.01-.003.009-.003-.344-.939zm.198-.067l.296.955.006-.002-.302-.953zm.196-.058l.259.966.014-.004.014-.004-.287-.958zm.071-.019l.227.974.027-.006.026-.008-.28-.96zm.117-.03l.219.976.012-.003.012-.003-.243-.97zm.155-.035l-.206-.979-.005.001.211.978zm.274-.05l.155.988.007-.001.007-.001-.169-.986zm.083-.013l.142.99.006-.001-.147-.989zm.57-.052l.038.999.014-.001.014-.001-.066-.998zm.071-.002v1h.014.014l-.028-1zm.343.002l-.042.999h.011.011l.02-1zm.124.006l-.077.997.009.001h.009l.059-.998zm.164.013l-.102.995.051.005h.051v-1zm.001 0l.088-.996-.044-.004h-.044v1zm.163.018l-.131.991.007.001.007.001.117-.993zm.325.052l-.19.982h.003l.188-.982zm.162.035l-.232.973.007.002.007.002.218-.976zm.478.138l-.329.944.013.004.316-.949zm.156.058l-.376.927.015.006.015.006.346-.938zm.154.063l-.401.916.012.005.389-.921zm.303.145l-.47.883.011.006.459-.889zm.149.082l-.502.865.008.004.008.004.487-.873zm.146.087v1h3.448l-2.913-1.845-.535.845zm-.001 0v-1h-.283l-.241.148.524.852zm-.353.23l.567.824.003-.002-.569-.822zm-.336.246l-.615-.789h0l.615.789zm-.14.113l.625.781.01-.008.01-.008-.644-.765zm-.059.05l.628.778.015-.012.015-.013-.659-.753zm-.062.053l.649.761.015-.012.014-.013-.677-.736zm-.206.186l-.69-.724-.002.002.692.722zm-.114.113l.669.743.027-.025.025-.027-.722-.692zm-.025.025l.707.707.017-.017.016-.018-.74-.673zm-.043.045l.707.707.02-.02.019-.021-.745-.667zm-.099.104l.729.685.006-.006.006-.006-.74-.673zm-.073.081l.746.666.003-.004-.75-.662zm-.078.092l.759.651.007-.008.007-.008-.773-.634zm-.085.103l-.776-.631-.005.007.781.625zm-.095.121l-.794-.607-.006.008.8.6zm-.49.795l.895.445.001-.001-.896-.444zm-.525 3.343l-.127.992 1.261.161-.141-1.264-.994.111zm-.408-.052l-.129.992.005.001.124-.992zm-.603-.078l.128-.992h0l-.127.992zm-2.182-.281l-.954-.298-.355 1.138 1.182.152.128-.992zm-.781-3.822l-.869-.494-.364.641.504.538.73-.684zm.073-.121h1v-3.418l-1.842 2.879.842.539zm-2.509.378l-.004 1h.001l.003-1zm2.206 2.218h1v-.001l-1 .001zm-2.206 2.219l.004 1h0l-.004-1zm-2.225-2.2l-1 .008v.001l1-.009zm6.872 7.822l.647.763.001-.001-.648-.762zm-1.223 1.313l-.716-.698h0l.716.698zm-.544.342l.16.987h0l-.161-.987zm-2.882.396l-.069.998.101.007.1-.013-.132-.991zm-3.938-.697l-.358.933h0l.358-.934zM3.21 23.423l-.971-.238h0l.971.238zm4.263-3.687l-.152-.988h0l.152.988zm5.573 3.436l-.955.298v.001l.954-.299zm1.226-.334l-.95.31.344 1.054 1.013-.451-.407-.913zm-3.749-3.975l-.998.066.041.62.574.238.383-.924zm-.008-.145l-.196-.981-.845.169.042.861.999-.049zm.048-.012l-.243-.97-.023.006-.022.007.287.958zm.077-.022l.298.954h.002l-.3-.954zm.164-.042l.122.993.013-.002-.135-.991zm.101.005l-.287.958.008.003.008.002.271-.963zm.077.022l.282-.96-.011-.003-.271.963zm.566.146l.228-.974-.006-.001-.222.975zm.154.034l.287-.958-.036-.011-.037-.008-.214.977zm.023.005l.214-.977-.056-.012-.058-.006-.099.995zm.154.032l.206-.979-.007-.001-.199.98zm.183.035l-.179.984h.001l.178-.984zm.467.077l-.147.989.007.001.14-.99zm.444.057l-.113.994h.002l.111-.994zm.497.048l-.081.997h0l.081-.997zm.473.031l-.056.998h.005l.05-.999zm.714.025l-.02 1h.01.01v-1zm.092.013l.243-.97-.028-.007-.028-.005-.187.982zm.096.032l.419-.908-.011-.005-.408.913zm.031.015l-.504.864.015.009.015.008.474-.881zm.079.058l-.734.679.051.055.058.047.625-.781zm.01.011l-.857.515.035.058.042.053.781-.625zm.014.023l.905-.426-.005-.011-.005-.011-.894.447zm.079.162l.914-.406-.011-.023-.012-.023-.892.453zm.011.022l.892-.452-.008-.017-.009-.017-.874.486zm.086.163l-.875.483.002.003.874-.487zm.082.145l.865-.502-.001-.002-.864.504zm.09.146l.853-.522-.007-.012-.008-.012-.838.545zm.054.086l.84-.543-.004-.007-.836.549zm.077.114l.82-.573-.001-.002-.818.575zm.108.15l.895-.447-.041-.083-.056-.074-.797.604zm.006.01l.804-.595-.004-.005-.8.6zm.098.127l.8-.6-.007-.01-.008-.009-.785.619zm.023.03l-.793.61.006.007.006.008.781-.625zm.098.119l.767-.642-.008-.009-.759.651zm.114.131l-.741.672.01.01.731-.682zm.067.073l.734-.679-.007-.008-.008-.008-.719.695zm.981.851l.407.913 1.61-.717-1.442-1.014-.575.818zm1.717-.562l.291-.957h0l-.291.957zm-2.903-4.108l-.999-.045h0l.999.045zm3.366-3.991l.187.982h.001l-.187-.982zm3.639.993l.654-.756-.001-.001-.653.757zm.491.305l.05.999h.001l-.051-.999zm.631-.294l.758.652.001-.001-.759-.651zm-.098-.754l-.665.747.002.002.662-.749zm-1.242-1.018l-.373-.928-1.575.632 1.317 1.071.631-.776zm.949-.378l-.311-.95h-.001l.312.95zm5.648 1.604l.775-.632-.001-.002-.774.633zm.051.468l-.75-.662-.001.001.75.661zm-.726 3.39l.96-.279-.001-.003-.96.282zm.05.271l.13.991 1.044-.137-.19-1.035-.984.181zm-3.176.417h-1v1.14l1.13-.148-.13-.992zm-.013-1.647l-.994.109v.001l.994-.11zm-.326-1.272l.945-.328v-.001l-.944.329zm-.841-.442l.377.926.002-.001-.379-.925zm-.314.867l.939-.344v-.001l-.939.345zm-.298 3.766l.862.508h0l-.862-.507zm2.11 3.587l-.408.913 1.022.457.339-1.067-.953-.303zm-2.655-1.186l-.745-.667-.915 1.021 1.251.559.408-.913zm.13-.143l.576.818.008-.006-.584-.812zm1.722-2.057l.908.419h0l-.908-.418zm.483-.309l.006 1h0l-.006-1zm3.665-.495l-.281-.96-.005.002.286.958zm.41.14l.412.911 1.681-.761-1.556-.993-.538.843zm-15.651 14.97l1-.005h0l-1 .005zm-.642.624l.031-1h-.003l-.027 1zm-.6-.655l-.998-.055v.003l.999.052zm.633-.584l.022-1h-.001l-.021 1zm-2.234-19.866l-.774-.633 1.545 1.271-.77-.638zm3.242 4.648l-.125.992.254-1.984-.129.992zm0 0l.124-.992-.254 1.984.13-.992zm.408.052l-.121.993.248-1.985-.127.992zm2.429-5.47l.57.821-1.137-1.645.566.824zm6.081-3.549l.924-.383-1.849.762.925-.379zm.092.193l-.876.483 1.756-.957-.88.474zm.424.558l.689-.725-1.387 1.441.698-.716zm.202.171l-.594.804 1.194-1.604-.6.8zm.651.337l.3-.954-.609 1.905.31-.951zm.429.091l-.107.994.215-1.988-.108.994zm1.393-.308l-.526-.851 1.044 1.706-.518-.855zm.177-.12l.605.796-1.204-1.597.598.801zm12.62 14.162c-.058-.807-.24-1.575-.555-2.299l-1.834.798c.219.504.351 1.049.394 1.645l1.995-.143zm-.556-2.301l-.105-.229-1.798.876.071.155 1.832-.802zm-.097-.212l-.084-.17-1.776.921.045.092 1.814-.842zm-.081-.165c-.182-.357-.396-.699-.645-1.028l-1.595 1.206a4.91 4.91 0 0 1 .459.731l1.781-.909zm-.65-1.034l-.089-.109-1.505 1.317 1.594-1.208zm-.073-.09l-.094-.105-1.447 1.381c.014.015.011.011.005.004l1.536-1.28zm-.105-.116c-.252-.256-.593-.463-1.007-.511a1.58 1.58 0 0 0-1.133.314l1.195 1.604c-.048.035-.155.085-.294.068-.129-.015-.188-.075-.186-.072l1.425-1.403zm-2.141-.197c-.357.266-.609.661-.641 1.15-.029.439.129.825.3 1.114l1.723-1.016c-.063-.107-.019-.084-.026.034a.49.49 0 0 1-.064.209c-.038.066-.079.101-.094.112l-1.196-1.603zm-.342 2.264l.204.342 1.715-1.029-.197-.329-1.723 1.016zm.207.346l.252.444 1.782-.908-.325-.575-1.709 1.039zm.254.447a2.4 2.4 0 0 1 .112.247l1.87-.708c-.061-.161-.131-.313-.203-.454l-1.779.914zm.113.25l.039.114 1.914-.579-.084-.248-1.869.713zm.038.111l.207.831c.022.171-.009.161.023.094.036-.074.071-.059-.067.017-.149.082-.4.182-.825.312l.584 1.913c.453-.138.868-.286 1.207-.473.35-.193.697-.47.904-.902.204-.425.205-.858.157-1.221-.047-.355-.156-.747-.274-1.143l-1.916.573zm-.662 1.253c-1.911.583-3.887.577-5.898.137l-.428 1.954c2.28.499 4.611.524 6.91-.178l-.584-1.913zm-5.909.135l.021.005-.591 1.91.164.043.405-1.959zm.053.015l-.805 1.83.153.061.652-1.891zm.027.011l-.904 1.784.059.029.846-1.812zm-.006-.003l-.027-.018-1.214 1.589c.097.074.21.149.338.213l.903-1.784zm-.02-.013l-.036-.031-1.32 1.502.129.107 1.228-1.579zm-.024-.019l-.042-.039-1.414 1.414.11.105 1.345-1.48zm-.035-.032l-.344-.357-1.447 1.381.363.376 1.428-1.4zm-.344-.357l-1-1.095-1.504 1.318 1.057 1.158 1.447-1.381zm-.995-1.089l.035.046-1.708 1.039a1.56 1.56 0 0 0 .158.222l1.515-1.306zm.055.077l-1.769.932.032.06 1.736-.992zm.021.043l-1.873.702.057.136 1.816-.838zm.004.011a.35.35 0 0 1 .018.074c.004.031.01.098-.006.189l-1.969-.352c-.056.313.012.596.079.778l1.878-.689zm.014.251c.023-.137.057-.272.102-.406l-1.897-.632c-.076.227-.136.463-.177.709l1.973.329zm.102-.406l.026-.073-1.878-.687-.045.127 1.897.632zm.023-.066l.064-.16-1.844-.774-.093.234 1.874.7zm.053-.136l.035-.078-1.806-.858-.053.116 1.824.821zm.039-.086c.132-.284.316-.557.549-.82l-1.498-1.325c-.341.386-.639.819-.864 1.303l1.814.843zm.544-.816l.114-.123-1.425-1.403-.179.192 1.49 1.334zm.141-.152l.018-.018-1.414-1.414-.084.087 1.48 1.345zm.035-.035h0l-1.345-1.48-.101.099 1.447 1.381zm.04-.039l.115-.11-1.345-1.48-.195.186 1.425 1.403zm.115-.11l.174-.149-1.262-1.552-.257.221 1.345 1.48zm.174-.149l.173-.134-1.164-1.626-.271.208 1.262 1.552zm.185-.142l.273-.183-1.039-1.709-.421.282 1.187 1.61zm.277-.186a4.08 4.08 0 0 1 .39-.211l-.856-1.808c-.196.093-.391.197-.581.314l1.047 1.704zm.962-1.114c0-.001 0-.001-1-.001h-1 2zm-.574.904l.303-.129-.702-1.873-.453.192.852 1.809zm.31-.132l.207-.073-.611-1.904-.311.11.716 1.868zm.208-.073l.293-.083-.464-1.945-.443.125.614 1.904zm.293-.083l.041-.01-.443-1.95-.061.014.463 1.946zm.046-.011a4.29 4.29 0 0 1 1.671-.054l.325-1.973c-.819-.135-1.651-.107-2.449.079l.453 1.948zm1.673-.053a4.21 4.21 0 0 1 .416.09l.517-1.932-.613-.132-.32 1.974zm.415.09a4.4 4.4 0 0 1 1.078.451l1.007-1.728a6.4 6.4 0 0 0-1.567-.655l-.518 1.932zm1.078.451c.336.195.774.36 1.254.295.536-.072.931-.399 1.161-.814L34.63 19.8c.008-.015.038-.062.104-.11s.147-.079.22-.089c.129-.017.148.035.017-.041l-1.006 1.728zm2.415-.518c.156-.28.249-.625.194-1.001s-.24-.672-.458-.896l-1.433 1.396c-.006-.006-.068-.075-.088-.208s.021-.233.036-.262l1.748.971zm-.252-1.884c-.061-.065-.122-.119-.178-.166l-1.269 1.546 1.447-1.38zm-.169-.158a2.12 2.12 0 0 0-.189-.142l-1.109 1.664 1.299-1.523zm-.168-.127l-.195-.124-.989 1.739.032.02 1.152-1.635zm-.192-.122l-1.031-.541-.925 1.773.96.502.996-1.734zm-.707.964l.09-.116-1.6-1.2-.061.079 1.572 1.237zm.061-.08l.029-.036-1.545-1.27-.015.018-.013.017 1.544 1.271zm.013-.017l.023-.026-1.519-1.302 1.496 1.328zm.063-.077c-.026.034-.052.064-.077.089l-1.414-1.414c-.036.036-.073.078-.109.126l1.6 1.2zm-.042.052l.031-.034.015-.017-1.483-1.342-.031.034-.015.017 1.483 1.342zm.046-.051l.042-.049.018-.021-1.514-1.307-.017.02-.013.015 1.483 1.342zm.061-.071l.111-.134-1.565-1.245-.062.075 1.516 1.304zm.11-.134l.14-.184-1.626-1.165-.078.103 1.564 1.246zm.133-.175l.191-.282-1.697-1.058-.107.158 1.613 1.183zm.196-.29l.063-.103-1.727-1.008-.042.068 1.707 1.043zm.059-.097l.161-.295-1.789-.894-.092.169 1.72 1.021zm.158-.289l.086-.181-1.826-.815-.042.088 1.782.907zm.079-.165l.043-.098-1.835-.795-.009.021-.01.024 1.811.849zm.042-.095l.046-.112-1.861-.733-.018.043 1.832.802zm.044-.107l.074-.199-1.889-.658-.043.114 1.857.743zm.074-.199l.067-.211-1.922-.553-.034.106 1.889.658zm.065-.204c.222-.753.243-1.547.052-2.312l-1.94.485c.103.413.093.843-.03 1.261l1.918.566zm.052-2.312l-.029-.112-1.927.535.016.061 1.94-.485zm-.03-.115l-.068-.219-1.895.64.038.121 1.925-.542zm-.059-.191l-.045-.133-1.881.679.008.022.006.016 1.913-.584zm-.047-.138c-.07-.191-.154-.382-.255-.571l-1.765.941a2.54 2.54 0 0 1 .142.319l1.877-.689zm-.255-.571l-.156-.27-1.701 1.051.092.16 1.765-.941zm-.158-.275l-.078-.12-1.664 1.109.046.071 1.696-1.06zm-.078-.12l-.091-.131-1.61 1.186.037.054 1.664-1.109zm-.081-.117l-.177-.231-1.547 1.268.094.122 1.63-1.158zm-.172-.225l-.101-.12-1.497 1.326.041.049 1.558-1.255zm-.095-.114l-.196-.211-1.414 1.414.101.109 1.509-1.312zm-.192-.207c-1.172-1.186-2.893-1.588-4.567-1.08l.581 1.914c1.015-.308 1.95-.05 2.564.571l1.423-1.405zm-4.567-1.08c.007-.002.127-.038.298 0 .179.04.285.133.306.153l-1.36 1.466a1.33 1.33 0 0 0 .616.332c.286.064.539.018.72-.037l-.579-1.914zm.631.179l-.023-.024-1.502 1.32.111.118 1.414-1.414zm-.025-.027l-.036-.04-.023-.025-1.495 1.329.055.061 1.498-1.325zm-.045-.049l-.07-.08-1.495 1.329.042.048 1.523-1.297zm-.062-.071l-.119-.136-1.496 1.327.105.12 1.511-1.311zm-.114-.13c-.223-.255-.514-.584-.874-.855l-1.201 1.599c.174.131.342.311.569.571l1.507-1.315zm-.875-.855c-.596-.447-1.291-.848-1.849-1.207l-1.082 1.682 1.731 1.125 1.2-1.6zm-1.682.342l.151-.157-1.466-1.36-.099.102 1.414 1.414zm.151-.157l.15-.169-1.532-1.286-.085.096 1.468 1.359zm.143-.161l.143-.175-1.58-1.226-.081.099 1.518 1.302zm.143-.175l.129-.174-1.629-1.16-.08.108 1.58 1.226zm.13-.174c.525-.739.835-1.617.826-2.613l-2 .017a2.38 2.38 0 0 1-.457 1.438l1.63 1.159zm.826-2.613a4.38 4.38 0 0 0-1.527-3.351l-1.324 1.499a2.38 2.38 0 0 1 .851 1.869l2-.017zm-1.526-3.35c-.912-.807-2.09-1.162-3.229-1.089l.129 1.996c.645-.042 1.289.161 1.775.591l1.325-1.498zm-3.228-1.089l-.199.018.221 1.988.105-.009-.127-1.996zm-.193.017a4.33 4.33 0 0 0-.589.103l.48 1.942a2.33 2.33 0 0 1 .317-.055l-.208-1.989zm-.584.102l-.192.051.558 1.921.105-.028-.47-1.944zm-.195.052c-.188.055-.374.123-.555.203l.806 1.83a2.57 2.57 0 0 1 .312-.114l-.563-1.919zm-.553.202l-.28.136.943 1.764.139-.067-.803-1.832zm-.274.133l-.178.099 1.015 1.723.094-.053-.931-1.77zm-.178.099l-.18.112 1.109 1.664.086-.053-1.015-1.723zm-.168.104l-.256.179 1.21 1.593.132-.093-1.086-1.68zm-.249.175l-.247.201 1.321 1.501.123-.1-1.197-1.602zm-.244.198l-.228.214 1.414 1.414.128-.121-1.314-1.508zm-.226.212c-.485.482-.847 1.049-1.066 1.693l1.893.644c.115-.339.306-.644.582-.918l-1.41-1.419zm-1.062 1.681l-.034.102 1.904.614.015-.047-1.885-.669zm-.043.13l-.008.027-.014.048 1.921.558.008-.027.014-.048-1.921-.558zm-.024.079c-.055.191-.099.392-.129.601l1.98.284c.016-.113.041-.225.072-.336l-1.923-.549zm-.128.594l-.016.114 1.986.234.007-.048-1.977-.3zm-.015.107l-.028.31 1.996.119.016-.181-1.985-.248zm-.028.307c-.026.416.003.823.087 1.214l1.955-.419a2.44 2.44 0 0 1-.046-.669l-1.996-.126zm.064 1.005v.002h2v-.002h-2zm.024.22l.082.32 1.917-.571-.047-.187-1.951.438zm.083.322l.069.211 1.886-.666-.04-.12-1.916.575zm.068.207l.079.208 1.855-.748-.046-.118-1.889.657zm.091.237l.082.181 1.81-.85-.061-.136-1.831.805zm.084.187c.089.186.189.361.297.528l1.678-1.089c-.066-.103-.123-.202-.17-.301l-1.805.862zm.301.534l.099.146 1.632-1.156-.062-.091-1.669 1.102zm.099.145l.236.307 1.544-1.271-.147-.191-1.633 1.155zm.244.316l.108.126 1.497-1.327-.077-.09-1.528 1.29zm.112.13l.146.158 1.452-1.375-.109-.117-1.489 1.335zm.152.164l.079.08 1.414-1.414-.054-.054-1.44 1.388zm.27-1.483l-.425.258 1.036 1.711.422-.256-1.033-1.712zm-.425.258l-.334.203 1.029 1.715.341-.207-1.036-1.711zm-.344.209l-.151.092 1.041 1.708.159-.097L21.5 10.29zm-.146.089l-.332.199 1.025 1.717.336-.201-1.029-1.715zm-.332.199l-.403.237 1.01 1.726.418-.246-1.025-1.718zm.102 1.1c1 0 0 0-1 0l2 .001-1-.001zm-.49-.871a.77.77 0 0 1 .133-.059l.633 1.897a1.24 1.24 0 0 0 .215-.095l-.98-1.743zm.45-.111h-.001v2h.001v-2zm-.317.051c.075-.025.132-.031.15-.033l.193 1.991a1.31 1.31 0 0 0 .289-.06l-.632-1.897zm.141-.032l.031-.002-.042-.001-.068-.001v2c.032 0 .004.001.08.002.044.001.122.001.212-.009l-.212-1.989zm-.08-.004h-.009v2h.009v-2zm-.014 0l-1.316.002-.007 2 1.335-.002-.011-2zm-1.314.002l-.19-.002-.196-.002-.012 2 .19.002.196.002.012-2zm-.393-.003c-.013 0-.029 0-.061-.001l-.054 1.999.115.002v-2zm-.044-.001c-.016-.001-.003-.001.025.005a.61.61 0 0 1 .181.071l-1.003 1.73a1.54 1.54 0 0 0 .707.191l.089-1.998zm.204.075l-.383-.225-1.021 1.72.407.239.998-1.733zm-.381-.224l-.788-.476-1.038 1.71.8.484 1.026-1.717zm-.788-.476l-.409-.248-1.035 1.711.406.246 1.038-1.71zm-.116 1.194c.771-1.066 1.241-2.173 1.268-3.283.027-1.141-.418-2.163-1.244-3.008l-1.43 1.398c.494.505.688 1.021.675 1.562-.014.573-.263 1.294-.889 2.158l1.62 1.172zm.029-6.285l-.105-.104-1.361 1.466.025.026 1.441-1.387zm-.078-.078l-.08-.078-1.388 1.44.054.053 1.414-1.414zm-.091-.088l-.308-.262-1.223 1.583.163.139 1.367-1.46zm-.311-.265l-.097-.073-1.185 1.611.067.05 1.215-1.589zm-.097-.072c-.12-.088-.241-.167-.363-.238L16.066 5.98a2.02 2.02 0 0 1 .182.119l1.186-1.61zm-.358-.235l-.372-.195-.847 1.812.202.106 1.016-1.723zm-.378-.198l-.178-.078-.774 1.844.118.051.834-1.818zm-.196-.085l-.19-.071-.659 1.888.112.042.738-1.859zm-.186-.07a4.56 4.56 0 0 0-2.618-.125l.486 1.94a2.56 2.56 0 0 1 1.465.07l.668-1.885zm-2.616-.126l-.358.105.642 1.894.197-.058-.481-1.941zm-.353.104l-.18.065.72 1.866.092-.034-.633-1.897zm-.184.067a4.36 4.36 0 0 0-.677.334l1.039 1.709a2.36 2.36 0 0 1 .366-.181l-.728-1.863zm-.675.333a4.11 4.11 0 0 0-.478.337l1.268 1.547c.077-.063.159-.121.245-.173l-1.035-1.711zm-.475.335a4.74 4.74 0 0 0-.809.837l1.602 1.197c.127-.169.283-.331.469-.483l-1.262-1.551zm-.808.836l-.221.324 1.705 1.046.116-.17-1.6-1.2zm-.218.321a4.18 4.18 0 0 0-.426.924l1.904.612c.056-.176.131-.336.222-.484l-1.7-1.053zm-.424.918l-.069.237 1.934.509.035-.121-1.9-.625zm-.069.236l-.073.329 1.969.353.038-.17-1.934-.512zm-.072.326a4.63 4.63 0 0 0 .013 1.8l1.957-.414a2.63 2.63 0 0 1-.002-1.027l-1.968-.359zm.015 1.813l.048.198 1.937-.498-.034-.14-1.951.44zm.05.207l.062.209 1.908-.6-.038-.127-1.932.517zm.068.23l.072.2 1.868-.714-.045-.126-1.895.641zm.072.2l.135.313 1.807-.858-.073-.169-1.868.714zm.136.314a4.52 4.52 0 0 0 .215.398l1.71-1.037-.121-.223-1.805.861zm.211.39l.059.096 1.696-1.06-.035-.057-1.72 1.021zm.063.102l.13.192 1.631-1.157-.072-.107-1.688 1.072zm.13.192l.137.184 1.574-1.233-.08-.108-1.631 1.157zm.134.18c.142.183.296.355.459.518l1.414-1.414c-.111-.111-.208-.22-.292-.329l-1.581 1.225zm.425-.861l-.083.098.017-.019.049-.05a.94.94 0 0 1 .242-.167l.868 1.802c.126-.061.216-.135.272-.189.051-.049.088-.094.098-.106l.015-.019-1.478-1.348zm.211-.133l-.144.065.802 1.832.237-.109-.894-1.789zm-.149.068l-.024.011-.04.017.812 1.828.024-.011.04-.018-.812-1.828zm-.06.026l-.143.067.895 1.789.052-.024-.804-1.831zm-.112.052l-.217.105.924 1.774.127-.061-.833-1.818zm-.187.091l-.151.076.939 1.766.076-.039-.864-1.804zm-.135.068l-.145.077.948 1.761.105-.056-.908-1.782zm-.152.081c-.378.207-.739.446-1.078.722l1.262 1.551a5.16 5.16 0 0 1 .778-.52l-.962-1.754zm-1.076.72a6.52 6.52 0 0 0-1.078 1.108l1.588 1.215a4.52 4.52 0 0 1 .749-.769l-1.259-1.554zM8.983 12.1c-.039.051.034-.067.224-.127.182-.057.3-.006.221-.029l-.554 1.922c.215.062.555.133.932.015.385-.121.624-.381.767-.569L8.983 12.1zm.444-.155c-.888-.256-1.761-.271-2.585-.014s-1.525.761-2.113 1.437l1.508 1.313c.393-.451.796-.715 1.2-.841s.871-.136 1.437.027l.553-1.922zm-4.699 1.423a4.17 4.17 0 0 0-.632.976l1.813.844a2.17 2.17 0 0 1 .328-.509l-1.51-1.312zm-.634.981l-.144.353 1.884.672.078-.189-1.817-.835zm-.142.345l-.077.235 1.92.56.035-.107-1.878-.688zm-.073.221l-.088.337 1.955.42.044-.169-1.912-.588zm-.087.335c-.218 1.002-.085 2.085.416 3.03l1.767-.937c-.274-.517-.348-1.116-.229-1.668l-1.954-.425zm.417 3.032c.159.298.349.563.504.776l1.619-1.175-.358-.542-1.765.941zm.509.783l.261.362 1.65-1.13-.303-.422-1.608 1.189zm1.087-1.202h-.001v2h.001v-2zm-.417.091l-.139.063.84 1.815.131-.06-.832-1.819zm-.125.057l-.14.063.838 1.816.114-.052-.812-1.828zm-.138.062c-1.976.906-3.401 2.397-4.033 4.562l1.92.561c.453-1.55 1.441-2.614 2.947-3.305l-.834-1.818zm-4.033 4.562c-.418 1.431-.385 2.787.619 3.826l1.438-1.39c-.285-.295-.462-.763-.138-1.876l-1.92-.56zm.618 3.825c.203.211.434.394.683.554l1.079-1.684c-.138-.088-.242-.174-.32-.256l-1.442 1.386zm.685.555c.331.211.703.387 1.108.537l.694-1.876c-.304-.113-.542-.23-.727-.348l-1.075 1.686zm1.114.539l.146.052.662-1.887-.125-.044-.683 1.88zm.15.053c1.855.642 3.748.752 5.595.64l-.121-1.996c-1.692.102-3.299-.008-4.821-.534l-.654 1.89zm5.596.64l1.362-.118-.174-1.992-1.309.114.121 1.996zm1.275-.114h.001v-2h-.001v2zm-.943-1.33l-.052.155-.015.041 1.839.785c.047-.11.101-.28.115-.321l-1.888-.661zm-.067.197c-.524 1.229-.78 2.504-.816 3.819l1.999.056c.03-1.087.24-2.112.657-3.091l-1.84-.784zm-.816 3.819c-.046 1.64.845 2.718 1.907 3.467l1.153-1.635c-.744-.525-1.081-1.045-1.061-1.776l-1.999-.057zm1.906 3.466c.446.316.994.376 1.472.2l-.692-1.877c.131-.048.276-.026.376.045l-1.156 1.632zm1.473.199a1.55 1.55 0 0 0 .176-.078l-.923-1.774a.46.46 0 0 1 .052-.023l.695 1.876zm.176-.078c.037-.019.092-.049.153-.09l-1.109-1.664.027-.017.93 1.77zm.153-.09a1.62 1.62 0 0 0 .211-.167l-1.368-1.459a.38.38 0 0 1 .048-.038l1.109 1.664zm.211-.167c.072-.068.135-.139.187-.209l-1.6-1.2c.009-.012.024-.03.045-.05l1.368 1.459zm.188-.21c.165-.22.297-.493.334-.811.038-.325-.032-.629-.167-.889l-1.776.919c-.029-.056-.056-.15-.043-.26a.35.35 0 0 1 .052-.158l1.601 1.199zm.178-1.677a1.59 1.59 0 0 0-.132-.222l-1.634 1.153a.42.42 0 0 1-.033-.057l1.799-.874zm-.128-.217l-.088-.117-1.548 1.267 1.636-1.15zm-.074-.1l-.111-.128-1.447 1.381-.018-.021 1.575-1.233zm-.103-.12a2.15 2.15 0 0 0-.274-.244l-.127-.096-1.276 1.54.115.09.075.057c.041.031.038.032.025.017l1.462-1.365zm-.402-.34c-.268-.222-.331-.383-.327-.582l-2-.044c-.021.976.457 1.675 1.053 2.167l1.274-1.542zm-.327-.581a7.99 7.99 0 0 1 .105-1.14l-1.973-.329c-.078.466-.121.943-.132 1.425l2 .044zm.105-1.138l.028-.157-1.967-.36-.033.184 1.972.333zm.027-.15l.063-.3-1.949-.449-.079.375 1.965.374zm.062-.296a6.83 6.83 0 0 1 .21-.716l-1.885-.668c-.108.304-.198.613-.272.927l1.947.457zm.207-.709l.061-.164-1.864-.726-.077.206 1.88.684zm.064-.171l.099-.244-1.833-.801-.136.334 1.869.711zm-.817-.644h1-2c0 .001 0 .001 1 .001zm.917.399l.174-.368-1.78-.911-.227.48 1.834.799zm.173-.365c.134-.259.286-.511.458-.755l-1.635-1.152c-.225.32-.425.65-.6.989l1.777.917zm.458-.755l.218-.292-1.57-1.24-.284.38 1.635 1.152zm.216-.289l.256-.311-1.527-1.291-.293.357 1.565 1.245zm.255-.31l.086-.1-1.511-1.31-.1.116 1.526 1.293zm.086-.1l.079-.089-1.48-1.345-.11.124 1.511 1.31zm.083-.094l.173-.188-1.457-1.37-.205.223 1.489 1.335zm-.556-.873h-1 2l-2-.001a954.86 954.86 0 0 0 2 .001h-1zm.729.684l.171-.176-1.414-1.414-.213.22 1.457 1.37zm.172-.178l.488-.457-1.309-1.512-.597.558 1.417 1.411zm.489-.457l.101-.087-1.293-1.525-.118.101 1.31 1.511zm.102-.087l.169-.137-1.242-1.567-.222.181 1.295 1.524zm.175-.142l.478-.354-1.127-1.652-.605.448 1.255 1.558zm.469-.348l.051-.034.035-.024-1.109-1.664-.051.035-.035.024 1.109 1.664zm.092-.062l.146-.094-1.066-1.692-.2.13 1.12 1.657zm.154-.1l.088-.054-1.04-1.708-.131.082 1.083 1.681zm.09-.055c1.623-.992 3.536-1.33 5.759-.986l.306-1.976c-2.611-.405-5.019-.022-7.108 1.256l1.043 1.706zm5.759-.986c1.757.273 3.281 1.095 4.414 2.27l1.439-1.388a9.75 9.75 0 0 0-5.547-2.858l-.306 1.976zm5.134 1.576h-1l2 .001c0-.001 0-.001-1-.001zm-.719.695a7.53 7.53 0 0 1 1.485 2.219l1.833-.8a9.53 9.53 0 0 0-1.88-2.808l-1.439 1.389zm1.485 2.219c.339.777.551 1.619.613 2.503l1.995-.139a9.56 9.56 0 0 0-.775-3.164l-1.833.8zm.613 2.503c.011.158-.001.275-.022.364l1.946.462c.075-.316.094-.639.071-.964l-1.995.139zm.053.156l-.001.002 1.797.877v-.002l-1.797-.877zm-.079.228l1.901.624.053-.2-1.954-.425zm-.009.032a.68.68 0 0 1-.063.146l1.729 1.005c.106-.181.188-.373.249-.574l-1.915-.578zm-.062.145l1.627 1.165.1-.157-1.727-1.008zm-.025.038c-.046.071-.119.152-.233.241l1.231 1.576a3.02 3.02 0 0 0 .673-.719l-1.671-1.099zm-.235.243l-.061.046 1.152 1.635.145-.108-1.236-1.573zm-.062.046l-.326.212 1.024 1.718.456-.296-1.154-1.634zm-.33.215l-.161.092.952 1.759.241-.138-1.032-1.713zm-.17.098l-.259.134.878 1.797.352-.183-.971-1.748zm-.259.134l-.177.083.818 1.825.237-.111-.878-1.797zm-.175.082l-.275.115.743 1.857.346-.145-.814-1.827zm-.27.113l-.194.073.689 1.878.237-.09-.732-1.861zm-.189.072l-.388.13.585 1.912.482-.161-.679-1.881zm-.396.132l-.192.057.544 1.925.25-.074-.601-1.907zm-.194.057l-.41.108.48 1.941.477-.126-.547-1.924zm-.407.107l-.635.14.396 1.96.712-.157-.474-1.943zm-.633.14c-3.004.601-6.013.602-9.027.021l-.379 1.964c3.264.63 6.535.629 9.799-.024l-.393-1.961zm-9.028.021l-.145-.025-.307 1.976.076.013.376-1.964zm-.141-.025l-.165-.021-.19 1.991.041.006.314-1.975zm-.119-.016l-.141-.014-.1 1.997-.042-.004.283-1.98zm-.091-.01l-.167-.01-.053 1.999.02.001.199-1.99zm-.163-.01c-.31-.009-.699.036-1.051.271-.379.254-.567.627-.64.981l1.958.407c-.002.009-.012.052-.047.11a.54.54 0 0 1-.158.164c-.127.085-.209.063-.122.066l.061-1.999zm-1.691 1.255c-.072.349-.06.78.192 1.18l1.691-1.068a.51.51 0 0 1 .075.205c.007.057 0 .089.001.086l-1.959-.403zm.2 1.191c.032.049.067.097.108.145l1.53-1.288c.015.018.028.036.039.053l-1.677 1.09zm.1.136c.36.438.895.597 1.321.668l.329-1.973-.139-.03c-.034-.01-.053-.017-.06-.02-.016-.007.035.012.095.085l-1.545 1.27zm1.32.668l1.51.237.272-1.981-1.452-.228-.33 1.973zm1.513.238l.615.076.224-1.987-.574-.071-.265 1.982zm.727.082h.001v-2h-.001v2zm-.103-.006l.314.031.177-1.992-.282-.028-.209 1.989zm.31.031c2.816.26 5.633.139 8.426-.511l-.453-1.948c-2.553.594-5.153.711-7.789.467l-.184 1.992zm8.427-.511l1.099-.297-.602-1.907-.952.257.455 1.947zm1.098-.297c.808-.255 1.62-.605 2.375-1.131l-1.145-1.64c-.543.379-1.156.651-1.831.864l.601 1.908zm2.375-1.132c.205-.143.412-.3.609-.475l-1.323-1.5c-.127.112-.271.222-.432.335l1.145 1.64zm.615-.48l.244-.231-1.423-1.405-.156.147 1.334 1.49zm.242-.229a3.77 3.77 0 0 0 .871-1.311l-1.868-.714a1.78 1.78 0 0 1-.421.614l1.418 1.41zm.869-1.306l.079-.232-1.92-.561-.025.072 1.865.722zm.076-.221a3.42 3.42 0 0 0 .148-.971l-2-.019a1.42 1.42 0 0 1-.06.406l1.913.585zm.148-.97c.007-.644-.035-1.324-.169-1.994l-1.961.393c.1.497.136 1.032.13 1.579l2 .021zm-.169-1.994l-.218-.892-1.926.538.184.747 1.961-.393zm-.219-.895l-.061-.214-1.919.564.055.193 1.925-.543zm-.06-.21l-.124-.417-1.915.578.118.396 1.921-.557zm-.122-.41l-.065-.214-1.913.585.058.194 1.919-.564zm-.062-.206l-.157-.535-1.924.546.163.557 1.918-.568zm-1.077.738l.056-.002-.071-1.999-.068.003.083 1.998zm.07-.003l.02-.001-.048-.004.27-1.982c-.152-.021-.287-.014-.34-.011l.098 1.998zm-.03-.005c1.517.21 3.032.201 4.543-.015l-.283-1.98c-1.33.19-2.657.197-3.985.014l-.274 1.981zm4.543-.015c1.108-.158 2.368-.402 3.502-1.155l-1.107-1.666c-.737.49-1.614.689-2.678.841l.283 1.98zm3.502-1.155c.457-.304.865-.693 1.141-1.202.28-.517.391-1.095.347-1.715l-1.995.143c.02.285-.032.475-.11.62-.082.152-.229.317-.489.49l1.107 1.666zm.49-1.846h.002v-2h-.002v2zm-7.52-8.909v-.023l-1.993-.175c-.007.087-.007.167-.007.198h2zm.002-.061a1.27 1.27 0 0 1 .013-.127l-1.977-.301-.033.323 1.997.105zm.013-.124l.012-.06-1.959-.401-.028.154 1.976.307zm.01-.055l.03-.117-1.899-.626c-.038.116-.066.228-.088.331l1.957.412zm.032-.123l.008-.026-1.863-.726-.049.139 1.903.614zm.039-.118l-.022.069-.005.014-1.857-.743-.015.039-.03.095 1.93.526zm-.02.063l.015-.04-1.844-.773-.044.111 1.873.702zm-.907-.426h1l-2-.002c0 .002 0 .002 1 .002zm.916.398l.009-.02-1.784-.906-.057.124 1.832.802zm.036-.08l-1.786-.899-.048.102 1.834.797zm.109-.452a.99.99 0 0 1-.105.444c-.032.065-.069.117-.06.103l-1.664-1.109-.017.026-.047.084c-.035.069-.107.231-.107.451h2zm-.096.427l.012-.023-1.761-.948-.053.104 1.802.868zm.011-.021a1.13 1.13 0 0 1 .093-.146l-1.595-1.207c-.097.128-.182.262-.257.4l1.759.953zm.085-.135l.053-.068-1.585-1.219-.046.06 1.579 1.228zm.092-.123l-.051.069-.04.047-.025.027.028-.03.042-.049.052-.071-1.664-1.109.051-.069.04-.047.025-.027-.028.03-.042.049-.052.071 1.664 1.109zm-.046.064l-1.454-1.375-.108.125 1.562 1.249zm.038-.043l-1.406-1.423-.112.121 1.518 1.302zm.041-.043l-.017.016-1.345-1.48c-.051.047-.092.091-.118.118l1.48 1.345zm.018-.017l.014-.013-1.321-1.501-.106.1 1.414 1.414zm.026-.024l.033-.029-1.249-1.562-.129.111 1.345 1.48zm.044-.038l.059-.046-1.222-1.584-.109.086 1.271 1.544zm.039-.031l.095-.064-1.019-1.721a3.16 3.16 0 0 0-.257.171l1.182 1.614zm.103-.069l.018-.011-.891-1.792-.163.092 1.036 1.711zm.049-.028l.05-.026-.858-1.807-.14.072.948 1.761zm.068-.035l-.705-1.873a2.06 2.06 0 0 0-.19.084l.895 1.789zm.053-.023a.97.97 0 0 1 .098-.035l-.593-1.91c-.093.029-.198.065-.309.114l.804 1.831zm.111-.039c.004-.002.015-.005.038-.01l-.485-1.94-.172.049.619 1.902zm.058-.016l-.331-1.973-.195.044.526 1.93zm.051-.01c.035-.007.071-.013.11-.017l-.193-1.991c-.11.011-.221.027-.33.051l.413 1.957zm.12-.018c.038-.004.078-.006.119-.006v-2c-.112 0-.223.006-.333.018l.214 1.989zm.119-.006c.087 0 .167.009.242.024l.411-1.957c-.215-.045-.433-.067-.653-.067v2zm.23.022l.087.02.475-1.943-.129-.03-.434 1.952zm.077.017l.041.012.602-1.907-.146-.042-.497 1.937zm.178.045c-.05-.008-.09-.019-.12-.028l-.074-.026.743-1.857c-.039-.016-.118-.045-.221-.062l-.329 1.973zm-.116-.027l.727-1.864-.139-.048-.588 1.912zm.062.021l.726-1.863-.138-.049-.588 1.912zm.039.014l-.029-.011a.76.76 0 0 1-.073-.034l.931-1.77a1.3 1.3 0 0 0-.197-.083l-.633 1.897zm.033.014c-.009-.003-.044-.015-.088-.039l.931-1.77a1.34 1.34 0 0 0-.183-.079l-.661 1.888zm.017.009l-.036-.018.941-1.765c-.076-.04-.143-.068-.183-.083l-.722 1.865zm.01.005l.041.021.996-1.734-.188-.097-.85 1.81zm.082.043l1.076-1.686-.161-.093-.915 1.779zm.038.023l1.176-1.619a2.04 2.04 0 0 0-.174-.112l-1.002 1.731zm.031.021l.095.071 1.271-1.544-.247-.184-1.12 1.657zm.089.065l.086.078 1.425-1.403c-.079-.08-.157-.15-.227-.208l-1.285 1.533zm.082.074l.052.055 1.493-1.331-.11-.118-1.434 1.394zm.06.064l1.571-1.239-.093-.11-1.477 1.349zm.03.035l.042.053 1.604-1.195-.132-.166-1.514 1.307zm.032.04l.03.042 1.672-1.097-.078-.112-1.624 1.167zm.037.053l.059.097 1.761-.948c-.05-.092-.104-.181-.162-.268l-1.657 1.12zm.059.097l.022.042 1.815-.841-.076-.15-1.761.948zm.03.06a1.17 1.17 0 0 1 .045.106l1.876-.692-.123-.29-1.798.876zm.042.099l.032.102 1.945-.464c-.028-.119-.064-.227-.096-.316l-1.882.678zm.04.133l.009.04 1.961-.392-.041-.174-1.93.526zm.013.061c.006.027.011.057.013.089l1.993-.17c-.01-.119-.028-.236-.054-.353l-1.952.434zm.016.116c.005.041.007.082.006.127l2 .037c.002-.13-.004-.259-.018-.388l-1.987.225zm.006.145l1.993.171.007-.171h-2zm-.001.015l-.002.036-.001.016.001-.021 1.994.153.002-.036.001-.016-.001.021-1.994-.153zm-.001.027l-.002.029 1.981.278.011-.1.002-.029-1.992-.177zm-.008.086c-.001.007.001-.019.007-.053l1.973.329.013-.109-1.993-.166zm-.001.006l1.965.376.024-.167-1.989-.209zm-.018.195l2 .006-2-.006zm.012-.148l-.008.039 1.95.443.034-.175-1.976-.307zm-.013.065l1.921.562.04-.17-1.961-.392zm-.008.034l-.022.074 1.909.597.046-.158-1.933-.513zm-.02.07c-.01.032-.023.066-.039.102l1.831.804c.042-.096.08-.196.113-.3l-1.906-.605zm-.043.111a1.01 1.01 0 0 1-.048.096l1.746.975c.049-.088.097-.184.141-.286l-1.84-.785zm-.05.1l-.02.035 1.685 1.077.085-.144-1.751-.967zm-.028.047l-.062.09 1.581 1.225a3.05 3.05 0 0 0 .182-.263l-1.701-1.052zm-.068.099l-.029.037 1.529 1.29.094-.119-1.594-1.208zm-.035.044c-.034.041-.067.076-.097.103l1.337 1.487c.112-.101.212-.207.301-.315l-1.541-1.276zm-.107.112l-.032.029 1.356 1.47.032-.029-1.357-1.47zm-.154.164c.046-.062.155-.192.345-.287l.895 1.789c.196-.098.31-.234.361-.302l-1.6-1.2zm.085-.1l.038-.035 1.263 1.551c.008-.006.06-.048.114-.102l-1.414-1.414zm.67-.26c-.063 0-.123.006-.179.016s-.106.024-.152.04-.085.034-.12.051-.066.036-.092.053l-.069.048-.051.042-.038.035-.028.028-.035.038-.015.019.03-.035.035-.037.052-.049.074-.059c.057-.041.136-.088.235-.125.05-.019.105-.034.164-.046s.121-.017.184-.017v2c.063 0 .125-.006.184-.017a1 1 0 0 0 .165-.046c.1-.037.179-.085.236-.126l.075-.059.052-.049.036-.038.022-.025-.041.046-.027.028-.037.035-.051.042-.068.048a.98.98 0 0 1-.092.052c-.035.018-.075.035-.12.051a1.01 1.01 0 0 1-.152.04c-.056.01-.116.016-.178.016v-2zm-.681.268l.029-.026 1.234 1.574.093-.079-1.356-1.47zm.002-.004l-.022.017 1.21 1.592.098-.078-1.286-1.531zm-.01.008l-.017.013 1.129 1.651.074-.053-1.186-1.61zm-.07.052l.044-.031 1.081 1.682.111-.079-1.236-1.573zm-.009.005c.001-.001.026-.019.065-.041l.964 1.752c.071-.039.126-.078.158-.102l-1.186-1.61zm-.041.027l.025-.017 1.074 1.687.078-.052-1.176-1.617zm.042-.028l-.018.011.976 1.746.056-.033.026-.016-1.04-1.708zm-.057.034l.904 1.785.141-.08-1.045-1.705zm-.046.025l-.032.017.858 1.807.157-.081-.983-1.742zm-.023.012l-.06.027.766 1.848.135-.06-.841-1.815zm-.068.03l-.019.008.022-.008.616 1.903c.076-.025.143-.054.163-.062l-.781-1.841zm-.137.057l-.055.03c-.011.006.019-.011.051-.027.04-.02.104-.049.188-.072s.174-.035.26-.035v2a1 1 0 0 0 .262-.035c.084-.023.149-.052.189-.072l.053-.029c-.002.001-.024.014-.053.029l-.895-1.789zm.092-.04l-.049.017.605 1.906.147-.05-.702-1.873zm-.194.076c-.01.005.037-.02.094-.041s.185-.063.348-.063v2c.165 0 .291-.041.353-.064l.075-.031.023-.011-.893-1.79zm.126-.053l.472 1.943c.068-.016.125-.034.16-.046l-.633-1.897zm-.041.011l-.053.013.399 1.96.226-.056-.572-1.917zm-.075.018l-.037.006.301 1.977.179-.034-.443-1.95zm-.082.015l.023-.004.269 1.982a1.67 1.67 0 0 0 .03-.004l.071-.012-.392-1.961zm-.115.025a.95.95 0 0 1 .134-.028c.039-.005.08-.008.123-.008v2c.089 0 .189-.011.292-.041l-.549-1.923zm.078-.02l.041-.006.171 1.993.146-.019-.358-1.968zm-.027.002l.041-.005.157 1.994.106-.012-.304-1.977zm-.003-.001c-.007 0-.013 0-.022.001l.095 1.998.175-.014-.248-1.985zm-.038.002l-.049.001v2l.177-.005-.127-1.996zm-.049.001h-.021v2h.021v-2zm-.021 0a.82.82 0 0 1-.05-.002l-.127 1.996.177.006v-2zm-.068-.003c-.006 0-.017-.001-.038-.003l-.226 1.987.173.014.091-1.998zm-.151-.01c-.003 0 .038 0 .087.004s.13.016.222.046l-.633 1.897c.095.031.176.043.229.048l.066.004h.025l.002-2zm.096.004l-.04-.005-.312 1.975.147.019.204-1.99zm-.011 0l-.027-.005-.39 1.962.034.006.023.004.361-1.967zm-.061-.011l-.037-.007-.423 1.955.139.027.32-1.974zm-.052-.01l-.039-.01-.526 1.929.173.042.392-1.961zm-.042-.01l-.031-.008-.635 1.897.143.042.522-1.931zm-.055-.016l-.08-.029-.794 1.836a2.77 2.77 0 0 0 .286.104l.588-1.912zm-.099-.036l-.018-.007-.828 1.821.088.037.757-1.851zm-.06-.025l-.892 1.789.149.068.743-1.857zm-.043-.021c.018.008.044.02.076.04l-1.029 1.715c.056.034.108.059.151.078l.802-1.832zm-.196-.073c.01.003.085.02.174.062a.99.99 0 0 1 .282.197l-1.414 1.414c.198.198.417.253.473.267l.485-1.94zm.181.064l-.979 1.744.116.06.863-1.804zm-.012-.007l-.032-.019-1.068 1.691.152.089.948-1.761zm-.293-.187a.98.98 0 0 1 .094.053l.046.032.026.02-1.249 1.562.038.029a1.02 1.02 0 0 0 .151.092l.894-1.789zm.136.082l-1.303 1.517.114.091 1.189-1.608zm-.65-.24a1 1 0 0 1 .358.066c.077.03.137.064.177.089.079.05.135.101.169.136.067.067.133.153.186.258l-1.789.894a1.01 1.01 0 0 0 .189.263c.035.035.092.087.171.137a1 1 0 0 0 .537.156v-2zm.613.209l-1.343 1.482.11.093 1.233-1.575zm.003.002l-.024-.022-1.408 1.421.07.065.015.014 1.348-1.478zm-.053-.048c-.016-.014-.034-.032-.053-.054l-1.492 1.332c.061.068.128.136.2.202l1.345-1.48zm-.056-.057l-.008-.009-1.555 1.258.076.089 1.487-1.338zm-.078-.087l.039.042.037.046-1.6 1.2c.034.045.07.086.109.126l1.414-1.414zm.049.053l-.014-.017-1.585 1.22.042.052.013.016 1.544-1.271zm-.029-.035l-.027-.036-1.617 1.176.093.121 1.552-1.261zm-.129-.155l.066.073.017.021-.019-.024-.068-.075-1.414 1.414-.066-.073-.017-.021.019.024.068.075 1.414-1.414zm.107.127l-.019-.027L29.092 18l.069.101 1.636-1.151zm-.043-.063l-1.741.986.1.158 1.641-1.144zm-.015-.025l-.019-.03-1.712 1.035.019.03 1.712-1.035zm-.015-.024l.016.03-1.789.894.058.104 1.715-1.029zm-.097-.147c.1.125.145.25.141.241l-1.857.743.009.023.027.059a1.04 1.04 0 0 0 .117.183l1.562-1.249zm.074.104l-1.784.903.062.114 1.722-1.017zm0 0l-.024-.049-1.824.821.069.14 1.78-.913zm-.037-.076l-.018-.042-1.848.766.067.152 1.798-.876zm-.013-.03l-.013-.033-1.869.712.025.064 1.857-.743zm-.016-.04l-1.89.654.026.071 1.864-.725zm-.005-.015l-.026-.085-1.94.485c.024.097.053.188.082.271l1.884-.671zm-.042-.141l.009.033-1.948.454.029.109 1.909-.597zm.002.005l-.007-.031-1.966.366.038.172 1.935-.507zm-.009-.046c-.011-.052-.017-.106-.02-.163l-1.998.089a3.04 3.04 0 0 0 .057.469l1.961-.395zm-.021-.184l-.001-.045h-2l.005.175 1.996-.13zm-.001-.045v-.014h-2v.014h2zm-5.425-9.346l.038.001.136-1.995-.174-.006v2zm.106.003l.009-2-.009 2zm-.045-.001l.031.002.219-1.988-.142-.011-.108 1.997zm.143.008h.003v-2h-.003v2zm-.095-.005l.051.006.29-1.979-.146-.018-.194 1.991zm.195.017c.006 0-.028 0-.068-.002s-.128-.011-.241-.048l.633-1.897c-.115-.038-.21-.047-.249-.049l-.055-.002h-.021v2zm-.127-.008l.056.01.366-1.966-.152-.025-.27 1.982zm.05.009l.483-1.942-.105-.022-.378 1.964zm.063.013l.479-1.941-.104-.023-.374 1.965zm.04.009l-.064-.016.588-1.912-.131-.034-.392 1.961zm.034.009c-.001 0-.044-.008-.098-.026l.633-1.897c-.068-.023-.126-.034-.143-.037l-.392 1.961zm-.031-.007l.639-1.895-.139-.041-.5 1.937zm.045.014l.027.01.679-1.881-.15-.05-.556 1.921zm.031.011l.808-1.83-.135-.054-.673 1.883zm.086.033l-.038-.014.767-1.847-.097-.037-.633 1.897zm-.017-.005l.811-1.828-.086-.036-.725 1.864zm.024.01l-.069-.035.98-1.743c-.075-.042-.145-.07-.149-.072l-.762 1.849zm.421.094a.99.99 0 0 1-.485-.127c-.067-.037-.119-.079-.105-.069l1.2-1.6-.028-.02c-.016-.012-.047-.032-.088-.055a1.01 1.01 0 0 0-.494-.13v2zm-.396-.081l.897-1.787-.085-.04-.812 1.828zm.016.008l.997-1.734-.129-.068-.868 1.802zm.074.038l-.05-.026 1.003-1.73-.022-.013-.085-.044-.846 1.812zm-.021-.009l.034.02 1.051-1.702-.131-.076-.954 1.758zm.034.02l.063.04 1.087-1.679-.099-.062-1.051 1.702zm.048.03a1.04 1.04 0 0 1 .127.101l1.361-1.466c-.118-.109-.242-.207-.372-.295l-1.116 1.659zm.808.368h.001v-2h-.001v2zm-.671-.259l.017.016 1.46-1.367-.134-.131-1.343 1.482zm.052.051l1.518-1.304-.128-.134-1.391 1.437zm.059.062l-.046-.049-.015-.017.018.021.049.053 1.414-1.414.046.049.015.017-.018-.021-.049-.053-1.414 1.414zm-.029-.03l.035.04 1.548-1.266-.098-.114-1.484 1.341zm.048.055l.016.02 1.621-1.171-.115-.147-1.522 1.298zm.035.045a.9.9 0 0 1 .056.083l1.711-1.036a2.91 2.91 0 0 0-.184-.269l-1.584 1.222zm.064.095l1.774-.923-.078-.137-1.696 1.06zm.023.042l1.77-.932-.033-.061-1.737.992zm.016.029l1.822-.826-.079-.154-1.743.981zm.007.013l.023.05 1.838-.788-.051-.113-1.81.852zm.037.082l-.015-.037 1.877-.691-.052-.123-1.81.852zm.009.024l-.018-.047 1.897-.632-.052-.133-1.828.812zm.017.043l-.018-.047 1.897-.632-.052-.133-1.828.812zm-.001.001c-.002-.005-.006-.015-.009-.028l1.92-.56-.048-.14-1.863.729zm.006.02l1.919-.564-.03-.093-1.889.657zm.008.027c.007.022.015.051.022.087l1.956-.417-.071-.27-1.907.601zm.027.11c-.001-.006-.005-.021-.007-.041l1.98-.283-.027-.14-1.946.463zm.005.027l-.007-.043 1.982-.264-.02-.112-1.956.419zm.001.007l.003.021 1.98-.284-.016-.101-1.966.364zm.005.033l.006.05 1.985-.241-.014-.109-1.978.3zm.008.062l-.004-.034 1.996-.123-.01-.107-1.982.264zm.008.07c.002.01-.012-.061-.012-.149h2c0-.051-.004-.095-.008-.127l-.005-.037-1.975.314zm-.008-.056l.003.046 1.996-.121-.008-.111-1.991.187zm.002.034l.001.05h2l-.004-.148-1.998.097zm.001.05v.014h2v-.014h-2zm0 .014l-.001.046 1.996.13.005-.176h-2zm-.002.064l-.004.051 1.991.194.011-.15-1.998-.095zm-.004.054l1.979.292.012-.102-1.991-.19zm-.007.067l.003-.029 1.973.325.018-.142-1.994-.153zm-.011.138c0-.059.006-.106.009-.129l.007-.042 1.961.392c.001-.003.023-.102.023-.221h-2zm.009-.131l-.005.028 1.952.434.028-.15-1.976-.312zm-.02.121a.85.85 0 0 1 .015-.086l.012-.047 1.923.549c.008-.027.025-.089.035-.169l-1.985-.248zm.004-.036l-.006.022 1.944.471.03-.136-1.968-.358zm-.008.033c0-.001.004-.017.011-.039l1.912.588.027-.1-1.949-.45zm-.004.013l-.006.022 1.897.632.049-.169-1.94-.485zm-.014.048l-.021.063 1.888.659.048-.143-1.915-.579zm-.021.063a.37.37 0 0 1-.011.028l1.831.804.069-.173-1.888-.659zm-.028.068l-.01.02 1.81.852.064-.147-1.864-.725zm-.022.048l1.765.939.07-.143-1.835-.795zm-.044.095c-.004.009.041-.116.141-.241l1.562 1.249a1.03 1.03 0 0 0 .117-.183l.027-.059.01-.023-1.857-.743zm.013-.033l.014-.029 1.736.993.068-.131-1.818-.833zm-.003.002c.002-.005.01-.018.021-.036l1.682 1.082.061-.105-1.765-.941zm-.003.004l1.684 1.081.047-.079-1.731-1.002zm-.015.025a1.21 1.21 0 0 1-.156.203l1.45 1.378c.154-.162.293-.342.413-.538l-1.707-1.042zm-.171.219l1.38 1.447.1-.102-1.48-1.345zm-.009.009c-.045.043-.086.079-.125.109l1.197 1.602a3.27 3.27 0 0 0 .326-.28l-1.398-1.43zm-.125.108l-.105.071 1.052 1.701.249-.169-1.196-1.603zm-.096.066l-.105.057.868 1.802.273-.148-1.036-1.711zm-.118.063l-.052.024.804 1.831.143-.066-.895-1.789zm-.026.012l-.023.009-.021.008.663 1.887.132-.051-.751-1.853zm-.066.026l-.037.013.602 1.907.142-.05-.708-1.871zm-.044.015l-.056.017.564 1.919.107-.033-.616-1.903zm-.056.017l-.023.006.446 1.95.142-.037-.564-1.919zm-.049.012l-.031.007.392 1.961.137-.031-.498-1.937zm-.034.008l-.087.014.209 1.989.275-.042-.397-1.96zm-.111.016c0 0 .013-.001.032-.002l.083 1.998.144-.013-.259-1.983zm-.123.017c.046-.009.146-.026.272-.013l-.199 1.99c.143.014.257-.004.319-.016l-.392-1.961zm.021-.006l.054-.006.072 1.999c.013 0 .091-.002.178-.016l-.304-1.977zm.024-.005l-.046.001v2l.176-.005-.13-1.996zm-.046.001h-.022v2h.022v-2zm-.022 0c-.01 0-.026 0-.05-.002l-.127 1.996.177.006v-2zm-.07-.003l-.025-.002-.259 1.983.197.017.087-1.998zm-.048-.005c-.038-.004-.076-.01-.117-.019l-.418 1.956c.102.022.209.04.32.052l.214-1.989zm-.119-.019c-.039-.008-.075-.018-.107-.028l-.619 1.902c.105.034.209.061.313.083l.413-1.957zm-.128-.035l-.036-.012-.712 1.869.169.058.579-1.914zm-.044-.016l-.02-.008-.779 1.842.105.041.695-1.875zm-.038-.016l-.017-.006a.99.99 0 0 1 .147.072l-1.029 1.715c.065.039.121.062.143.071l.023.009.733-1.861zm-.013-.006l-.83 1.819.088.037.743-1.857zm-.036-.015l.022.009.041.02-.941 1.765a1.4 1.4 0 0 0 .136.063l.743-1.857zm.015.005l-.019-.009-.947 1.762.12.059.846-1.812zm-.073-.035l-.976 1.745.131.067.846-1.812zm-.002-.002l-.033-.019-1.094 1.674.145.086.983-1.742zm-.079-.047l-1.131 1.649.123.079 1.008-1.728zm-.014-.01l-.03-.021-1.142 1.642.08.054 1.092-1.675zm-.055-.038a.38.38 0 0 1 .033.024l-1.267 1.548a1.61 1.61 0 0 0 .141.103l1.093-1.675zm0-.002l-.052-.042-1.302 1.518.154.123 1.2-1.6zm-.052-.042l-.06-.055-1.378 1.45.136.123 1.302-1.518zm-.06-.055l-.014-.014-1.447 1.381.083.083 1.378-1.45zm-.096-.09a.91.91 0 0 1 .129.132l-1.562 1.249c.053.066.107.117.153.156l1.28-1.536zm.075.07l-.016-.017-1.498 1.325.045.048.016.016 1.454-1.373zm-.047-.049l-1.563 1.248c.043.054.085.1.122.139l1.441-1.387zm-.018-.021l-.026-.03-1.554 1.258.056.067 1.524-1.295zm-.029-.035c-.009-.011-.02-.026-.033-.045l-1.664 1.109.151.204 1.547-1.268zm-.074-.102l.026.037-1.708 1.04c.021.035.055.088.1.146l1.582-1.223zm0-.004c-.012-.017-.023-.037-.035-.059l-1.778.915c.046.09.098.179.157.266l1.656-1.121zm-.044-.076l-.049-.102-1.848.766c.041.1.087.195.135.284l1.761-.948zm-.05-.105a1.23 1.23 0 0 1-.094-.48l-2-.005c-.001.443.086.869.25 1.259l1.845-.773zm-.094-.48c.002-.671.553-1.218 1.214-1.218v-2c-1.77 0-3.21 1.445-3.214 3.213l2 .005zm1.214-3.218h-.001v2h.001v-2zm-10.324 2c.661.004 1.208.551 1.207 1.227l2 .003c.002-1.768-1.425-3.219-3.196-3.229l-.012 2zm1.207 1.226a1.22 1.22 0 0 1-1.21 1.223l.005 2c1.774-.005 3.201-1.451 3.204-3.219l-2-.004zm-1.21 1.223c-.671.002-1.226-.554-1.219-1.236l-2-.021c-.018 1.79 1.432 3.261 3.224 3.257l-.005-2zM13.588 8.09c.007-.675.56-1.216 1.221-1.212l.012-2c-1.771-.01-3.216 1.425-3.233 3.193l2 .02zm-2.061 6.07l.112-.163-1.594-1.208-.211.305 1.692 1.066zm.116-.167l.06-.076-1.542-1.274-.118.15 1.6 1.2zm.059-.075l.146-.164-1.447-1.381-.24.27 1.54 1.275zm.143-.161l.139-.135-1.34-1.485-.24.233 1.441 1.387zm.147-.143l.033-.03-1.297-1.523-.093.083 1.356 1.47zm.049-.044l-1.236-1.573-.093.078 1.329 1.495zm.037-.031l.038-.033-1.28-1.536-.075.064 1.317 1.505zm.023-.02l.017-.014-.045.034-1.147-1.638-.07.053 1.245 1.565zm.026-.021l.037-.029.05-.04-1.255-1.557-.037.029-.05.04 1.255 1.558zm.07-.056l.154-.112-1.123-1.655-.253.183 1.221 1.584zm.172-.124l.069-.046-1.076-1.686-.152.101 1.159 1.63zm.099-.065l.018-.011-1.029-1.715-.124.08 1.136 1.646zm.034-.021a3.73 3.73 0 0 1 .37-.203l-.862-1.805a5.75 5.75 0 0 0-.568.312l1.061 1.695zm.386-.211l.04-.019-.842-1.814-.092.045.894 1.789zm.037-.018l.099-.045-.792-1.836-.143.064.836 1.817zm.113-.051l.11-.046-.748-1.855-.183.077.821 1.824zm.104-.044l.078-.03-.684-1.88-.13.05.735 1.86zm.094-.036l.05-.018-.649-1.892-.115.042.714 1.868zm.069-.025l.151-.051-.591-1.911-.246.083.687 1.878zm.157-.053l.076-.024-.562-1.92-.119.037.604 1.906zm.076-.024l.077-.022-.518-1.932-.12.034.562 1.92zm.105-.03l-.443-1.951-.131.035.575 1.916zm.064-.017l.056-.014-.438-1.951-.178.045.56 1.92zm.079-.019l.122-.028-.421-1.955-.186.043.485 1.94zm.118-.027l.223-.041-.309-1.976-.326.06.412 1.957zm.237-.043l.056-.009-.283-1.98-.111.017.338 1.971zm.062-.009c.148-.022.302-.036.46-.042l-.075-1.999c-.224.009-.452.028-.679.062l.295 1.978zm.489-.043l.005-2-.138.005.133 1.996zm.033-.001l.273.001.084-1.998-.413-.002.056 1.999zm.296.002l.067.004.153-1.994-.181-.009-.039 2zm.085.005l.12.009.205-1.99-.208-.016-.117 1.997zm.223.014h.001v-2h-.001v2zm-.087-.004l.12.014.262-1.983-.207-.023-.176 1.992zm.134.015l.12.017.319-1.974-.206-.029-.234 1.986zm.12.017l.132.023.381-1.963-.193-.034-.319 1.974zm.134.024l.117.026.464-1.945-.206-.045-.376 1.964zm.131.029l.12.03.519-1.931-.202-.05-.437 1.952zm.12.03l.129.037.58-1.914-.19-.054-.519 1.931zm.129.037l.119.039.658-1.889-.197-.065-.58 1.914zm.132.044l.096.035.753-1.853-.216-.08-.633 1.897zm.126.047l.1.041.802-1.832-.209-.085-.693 1.876zm.112.046l.222.106.94-1.765-.384-.183-.777 1.843zm.233.112l.105.058 1.004-1.73-.192-.105L16.61 13zm.121.066l.097.059 1.07-1.69-.194-.116-.974 1.747zm.633-1.786h-.001v2h.001v-2zm-.525.148l-.398.26 1.139 1.644.308-.201-1.049-1.703zm-.395.258l-.384.282 1.229 1.577.288-.211-1.133-1.648zm-.384.282l-.169.136 1.288 1.53.111-.089-1.23-1.577zm-.15.12l-.093.078 1.317 1.505.025-.021-1.249-1.562zm-.063.053l-.11.095 1.354 1.472-1.244-1.567zm-.082.07l-.247.223 1.379 1.448.165-.149-1.297-1.522zm-.25.226l-.144.143 1.443 1.384.085-.083-1.384-1.444zm-.091.091a1.37 1.37 0 0 0-.096.095l1.48 1.345-.021.021-.026.024-1.338-1.487zm-.063.061l-.081.085 1.491 1.334-1.409-1.419zm-.043.045l-.131.138 1.48 1.345.066-.07-1.414-1.414zm-.12.126l-.094.104 1.5 1.323.052-.058-1.458-1.369zm-.09.1l-.105.123 1.546 1.269.052-.061-1.493-1.331zm-.091.107l-.101.123 1.551 1.263.069-.084-1.518-1.302zm-.106.129l-.108.138 1.589 1.215.081-.103-1.562-1.249zm-.114.146c-.22.293-.416.609-.585.951l1.792.888c.114-.23.245-.442.394-.64l-1.601-1.199zm-.585.95c-.605 1.217-.78 2.49-.623 3.899l1.988-.221c-.121-1.09.019-1.967.426-2.787l-1.791-.89zm.497 2.797l-.411-.052-.248 1.985.405.052.254-1.984zm-.406-.052l-.604-.078-.255 1.984.601.077.258-1.983zm-.604-.078l-2.181-.281-.256 1.984 2.182.281.254-1.984zm-1.354 1.009c.272-.869.356-1.73.188-2.564-.169-.84-.58-1.586-1.194-2.241l-1.459 1.368c.393.419.605.837.692 1.267.088.436.059.95-.136 1.573l1.909.596zm-.866-3.626l.046-.076-1.684-1.078-.1.166 1.739.989zm-1.796-.615h0 2 0-2zm-1.512 1.378c.667.002 1.208.542 1.209 1.218l2-.001c-.001-1.772-1.428-3.211-3.202-3.217l-.007 2zm1.209 1.218c0 .675-.541 1.217-1.21 1.219l.008 2c1.774-.007 3.203-1.446 3.203-3.219h-2zm-1.21 1.219a1.21 1.21 0 0 1-1.221-1.208l-2 .017a3.21 3.21 0 0 0 3.229 3.191l-.008-2zm-1.221-1.208a1.21 1.21 0 0 1 1.222-1.229l.008-2c-1.798-.007-3.243 1.449-3.229 3.244l2-.015zm5.225 7.067c-.287.244-.53.513-.733.746l-.56.632 1.433 1.395.637-.715c.191-.22.351-.393.517-.533l-1.293-1.525zm-1.293 1.378l-.056.053-.04.031a.44.44 0 0 1 .108-.031l.321 1.974c.538-.088.933-.46 1.1-.632l-1.433-1.395zm.012.053l-2.854.392.264 1.982 2.911-.4-.32-1.974zm-2.653.386c-1.357-.094-2.542-.208-3.649-.633l-.717 1.867c1.419.545 2.882.668 4.228.761l.138-1.995zm-3.649-.633c-.25-.096-.39-.169-.469-.222-.069-.046-.054-.054-.035-.015s.003.039.006-.053c.002-.103.025-.267.09-.533l-1.943-.475c-.145.592-.269 1.313.064 1.967.337.663.998.979 1.57 1.199l.717-1.867zm-.408-.823c.373-1.524 1.626-2.657 3.444-2.937l-.304-1.977c-2.525.388-4.496 2.041-5.083 4.438l1.943.476zm3.444-2.937c1.946-.299 3.897.92 4.466 2.745L14 22.874c-.869-2.786-3.772-4.573-6.679-4.127l.304 1.977zm4.467 2.747l.022.081c-.001-.007-.005-.048.007-.107a.42.42 0 0 1 .059-.145c.018-.027.023-.025-.009.002l1.296 1.523c.271-.231.522-.543.612-.972.083-.398-.007-.751-.079-.98l-1.908.598zm3.131-.944c-.707-2.164-2.197-3.711-4.317-4.589l-.765 1.848c1.61.666 2.665 1.783 3.181 3.362l1.901-.621zm-3.702-3.731l-.007-.127-1.998.098.009.162 1.996-.133zm-.81.902l.139-.035-.575-1.916c.013-.004.028-.008.043-.011l.392 1.961zm.094-.023l.133-.038-.597-1.909-.025.008.489 1.939zm.134-.038l.032-.01-.046.007-.244-1.985c-.16.02-.308.069-.342.08l.6 1.908zm-.001-.005a.77.77 0 0 1-.322-.028l.575-1.916c-.219-.066-.409-.053-.523-.038l.27 1.982zm-.305-.023l.024.007.052.015.541-1.925-.024-.007-.052-.015-.541 1.925zm.066.019l.626.162.444-1.95-.507-.131-.563 1.919zm.62.161l.169.038.427-1.954-.14-.031-.456 1.947zm.095.019a1.12 1.12 0 0 0 .211.042l.199-1.99c.071.007.128.022.165.032l-.575 1.916zm.097.024l.168.035.398-1.96-.139-.029-.427 1.954zm.161.034l.21.041.358-1.968-.156-.03-.412 1.957zm.212.041l.498.082.294-1.978-.437-.072-.355 1.968zm.505.083l.471.06.226-1.987-.417-.053-.28 1.98zm.473.06l.526.051.163-1.993-.467-.045-.222 1.988zm.526.051l.498.033.112-1.997-.447-.029-.163 1.993zm.504.033l.744.026.04-2-.683-.024-.101 1.997zm.764.026c-.031 0-.056-.002-.073-.003l-.039-.005.312-1.976c-.044-.007-.115-.016-.2-.016v2zm-.112-.008l.391-1.961-.079-.014-.312 1.976zm-.039-.009c-.002-.001-.009-.002-.02-.006a.49.49 0 0 1-.05-.02l.817-1.826c-.102-.046-.197-.073-.262-.089l-.485 1.94zm-.08-.03l-.054-.029 1.008-1.728-.093-.049-.02-.009-.841 1.814zm-.024-.012a.61.61 0 0 1-.065-.041c-.027-.02-.07-.053-.116-.103l1.468-1.359c-.125-.135-.26-.216-.339-.259l-.948 1.761zm-.072-.042a.96.96 0 0 1-.223-.255l1.715-1.029a1.04 1.04 0 0 0-.242-.278l-1.249 1.562zm-.146-.145a.88.88 0 0 1-.066-.095l-.033-.059 1.789-.894a1.12 1.12 0 0 0-.128-.201l-1.562 1.249zm-.11-.176l.092.189 1.784-.905-.066-.136-1.81.852zm.07.143l.051.102 1.748-.971.014.027.014.03-1.828.812zm.033.069l.103.194 1.751-.967-.07-.132-1.784.905zm.105.198l.092.162 1.728-1.008-.073-.128-1.747.974zm.091.16l.116.189 1.677-1.09-.063-.104-1.73 1.004zm.101.166l.072.113 1.671-1.098-.037-.058-1.707 1.043zm.068.107l.099.146 1.637-1.149-.055-.082-1.68 1.085zm.097.144l.131.182 1.594-1.208-.085-.119-1.64 1.145zm.033.025c.029.059.058.102.074.125l.02.028 1.608-1.19c-.004-.005.008.01.02.028s.04.06.068.115l-1.789.894zm.097.158l.116.151 1.57-1.238-.079-.103-1.607 1.19zm.101.132l.029.037 1.587-1.217-.014-.018-1.601 1.198zm.042.054l.12.145 1.518-1.302-.077-.093-1.562 1.249zm.112.136l.141.162 1.481-1.344-.088-.101-1.534 1.283zm.15.172l.025.027.054.058 1.438-1.39-.055-.06-1.462 1.365zm.064.07c.34.368.723.697 1.139.99l1.151-1.636c-.311-.219-.585-.456-.822-.712l-1.468 1.359zm1.308-.742l-2.683 1.196.814 1.827 2.683-1.196-.814-1.827zm2.415-.606c-1.293-.393-2.256-1.756-2.195-3.106l-1.998-.09c-.102 2.263 1.444 4.45 3.611 5.11l.582-1.913zm-2.195-3.106c.07-1.542 1.142-2.786 2.553-3.054l-.373-1.965c-2.369.45-4.068 2.509-4.178 4.928l1.998.09zm2.554-3.054c1.061-.202 1.965.049 2.799.768l1.306-1.515c-1.28-1.103-2.798-1.539-4.48-1.218l.375 1.965zm2.798.767l.309.257c.107.078.439.313.887.29l-.1-1.998a.73.73 0 0 1 .325.055c.049.021.072.04.062.033a.94.94 0 0 1-.056-.046l-.052-.046-.066-.058-1.308 1.513zm1.196.547c.453-.023.994-.241 1.339-.641l-1.517-1.303c.027-.031.048-.047.053-.051l.023-.002.102 1.997zm1.34-.643c.652-.761.329-1.69-.195-2.154l-1.325 1.498c-.03-.027-.093-.099-.113-.231-.023-.151.024-.308.115-.414l1.519 1.301zm-.193-2.152l-1.275-1.046-1.262 1.551 1.208.989 1.329-1.494zm-1.534.658l.888-.356-.624-1.9c-.348.114-.742.293-1.01.401l.745 1.856zm.887-.356c1.659-.542 3.508-.002 4.563 1.287l1.548-1.267c-1.593-1.946-4.311-2.713-6.733-1.921l.622 1.901zm4.562 1.285l.047.058c.003.003-.053-.071-.09-.196-.044-.149-.045-.315.004-.469.042-.133.105-.207.116-.218l1.499 1.324a1.4 1.4 0 0 0 .292-.503c.076-.239.072-.481.007-.701-.058-.197-.155-.34-.209-.413l-.116-.145-1.55 1.264zm.076-.825c-1.109 1.259-1.398 2.759-.936 4.333l1.919-.563c-.279-.949-.116-1.729.517-2.448l-1.501-1.322zm-.937 4.33c-.01-.036-.014-.062-.006-.02l.034.193 1.967-.362-.029-.168c-.007-.039-.019-.116-.044-.201l-1.921.558zm.88-.999l-3.176.417.261 1.983 3.176-.417-.261-1.983zm-2.046 1.408l-.019-1.757-1.988.22c.048.437.007.803.007 1.537h2zm-.019-1.756c-.06-.553-.23-1.073-.375-1.491l-1.89.656c.141.407.242.743.276 1.053l1.988-.218zm-.375-1.492c-.14-.402-.411-.782-.838-.998-.436-.221-.915-.209-1.326-.041l.758 1.851a.42.42 0 0 1-.335-.026c-.131-.066-.156-.154-.147-.128l1.889-.658zm-2.162-1.04c-.381.155-.731.45-.901.903-.163.435-.107.874.025 1.235l1.878-.689c-.021-.057.022.017-.03.158a.48.48 0 0 1-.116.176c-.046.044-.086.063-.101.07l-.754-1.852zm-.876 2.137c.384 1.048.323 1.989-.221 2.914l1.724 1.015c.874-1.486.947-3.057.375-4.617l-1.878.688zm-.221 2.914c-.736 1.249-2.237 1.832-3.735 1.376l-.582 1.913c2.335.71 4.811-.188 6.041-2.274l-1.723-1.015zm3.38 3.182l-2.655-1.186-.816 1.826 2.656 1.187.816-1.826zm-2.318.394l.047-.055.027-.034.013-.018c0-.001-.011.013-.03.033s-.051.05-.097.082l-1.152-1.635a1.37 1.37 0 0 0-.275.261l-.044.056c-.009.012.002-.003.02-.024l1.49 1.335zm-.031.001c.877-.631 1.58-1.44 2.046-2.45l-1.816-.838c-.309.669-.776 1.217-1.398 1.664l1.168 1.624zm2.046-2.45c.007-.014-.04.094-.182.186s-.257.087-.237.087l-.013-2c-.231.002-.537.041-.831.23s-.458.453-.554.66l1.817.836zm-.419.273c1.306-.008 2.632-.146 3.944-.537l-.571-1.917c-1.081.322-2.208.446-3.386.453l.013 2zm3.939-.535a.78.78 0 0 1-.323.026c-.07-.01-.116-.027-.132-.033-.023-.009-.016-.01.047.031l1.076-1.686c-.076-.049-.216-.136-.38-.202a1.3 1.3 0 0 0-.849-.055l.562 1.92zm-.283-1.731c-2.075.94-3.594 2.449-4.295 4.659l1.906.605c.505-1.591 1.575-2.7 3.214-3.442l-.825-1.822zM12.774 33.767c-.001-.134.057-.227.11-.278a.38.38 0 0 1 .279-.102l-.061 1.999a1.64 1.64 0 0 0 1.672-1.628l-2 .009zm.386-.38c.22.006.382.197.371.396l-1.997-.104c-.047.905.649 1.682 1.571 1.707l.055-1.999zm.371.399c-.011.207-.19.365-.387.361l.043-2c-.873-.019-1.605.651-1.653 1.529l1.997.109zm-.388.361c-.122-.003-.211-.055-.263-.108s-.106-.144-.107-.272l2-.01c-.004-.872-.725-1.591-1.587-1.61l-.044 1.999zm-1.437-20.232l.142-.159-1.447-1.381-.244.274 1.549 1.266zm-1.305-1.54l-.24.27 1.54 1.275.146-.164-1.447-1.381zm3.042 6.47l.601.078.258-1.983-.604-.078-.255 1.984zm.855-1.906l-.6-.077-.255 1.984.605.078.25-1.984zm-.249 1.984l.405.052.254-1.984-.411-.052-.248 1.985zm.653-1.933l-.399-.051-.26 1.983.417.053.242-1.985zm1.737-5.298l-.38.279 1.229 1.577.292-.214-1.141-1.643zm.849 1.857l.288-.211-1.133-1.648-.384.282 1.229 1.577zm4.878-4.201c.041.1.088.195.135.284l1.761-.948-.049-.102-1.847.766zm1.892-.673c-.015-.027-.029-.057-.042-.089l-1.851.758c.041.1.088.199.142.297l1.752-.966zm-1.141 1.766a3.3 3.3 0 0 0 .29.246l1.2-1.6a1.28 1.28 0 0 1-.113-.096l-1.378 1.45zm1.485-1.358c-.035-.026-.068-.054-.098-.083l-1.396 1.432a2.94 2.94 0 0 0 .305.259l1.188-1.609zm-.243 2.095l.301.08.418-1.956c-.035-.007-.075-.018-.12-.032l-.599 1.908zm.716-1.877l-.107-.028-.619 1.902c.105.034.209.061.313.083l.413-1.957zm-.413 1.957l.317.051.216-1.988a1.22 1.22 0 0 1-.12-.02l-.413 1.957zm.532-1.937c-.037-.004-.076-.01-.116-.019l-.418 1.956a3.17 3.17 0 0 0 .32.051l.214-1.989zm1.812 1.537l.249-.169-1.196-1.603-.105.071 1.052 1.701zm-.955-1.766c-.027.021-.057.041-.089.06l1.036 1.711a3.03 3.03 0 0 0 .264-.18l-1.211-1.592zm5.282 8.171c-.031-.019-.06-.039-.086-.059l-1.222 1.584c.086.066.174.126.262.181l1.046-1.705z" fill="#3f51b5" mask="url(#A)"/></svg>