<svg width="40" height="41" viewBox="0 0 40 41" fill="none" xmlns="http://www.w3.org/2000/svg">
<path d="M31.6214 13.3353C30.7658 13.7241 29.8436 13.9797 28.8881 14.1019C29.8658 13.513 30.6214 12.5797 30.977 11.4575C30.0547 12.013 29.0325 12.4019 27.9547 12.6241C27.077 11.6686 25.8436 11.113 24.4436 11.113C21.8325 11.113 19.6992 13.2464 19.6992 15.8797C19.6992 16.2575 19.7436 16.6241 19.8214 16.9686C15.8658 16.7686 12.3436 14.8686 9.99918 11.9908C9.58806 12.6908 9.35473 13.513 9.35473 14.3797C9.35473 16.0353 10.1881 17.5019 11.477 18.3353C10.6881 18.3353 9.95473 18.113 9.31029 17.7797V17.813C9.31029 20.1241 10.9547 22.0575 13.1325 22.4908C12.4333 22.6822 11.6993 22.7088 10.9881 22.5686C11.2898 23.5158 11.8809 24.3446 12.6781 24.9385C13.4753 25.5324 14.4386 25.8616 15.4325 25.8797C13.7477 27.2135 11.6592 27.9345 9.51029 27.9241C9.13251 27.9241 8.75473 27.9019 8.37695 27.8575C10.4881 29.213 12.9992 30.0019 15.6881 30.0019C24.4436 30.0019 29.2547 22.7353 29.2547 16.4353C29.2547 16.2241 29.2547 16.0241 29.2436 15.813C30.177 15.1464 30.9769 14.3019 31.6214 13.3353Z" fill="white"/>
<rect x="0.5" y="0.501709" width="39" height="39" rx="19.5" stroke="white"/>
</svg>
