<svg width="58" height="58" viewBox="0 0 58 58" fill="none" xmlns="http://www.w3.org/2000/svg">
<rect x="0.90625" y="0.90625" width="56.1875" height="56.1875" rx="13.5938" fill="#2D3E89"/>
<rect x="0.90625" y="0.90625" width="56.1875" height="56.1875" rx="13.5938" stroke="#2D3E89" stroke-width="1.8125"/>
<path d="M41.996 24.459C40.2472 18.8854 34.877 14.9688 28.9676 15.0001C21.6228 14.8672 15.2074 21.3284 15.3329 28.6573C15.3403 31.7788 16.3951 34.7742 18.3397 37.1954C20.9081 40.3975 24.7323 42.2637 28.8309 42.3145C29.8949 42.4453 30.4196 41.0057 29.4969 40.4444C27.425 38.5565 25.864 36.1814 25.0408 33.5547H28.8924C29.4452 33.5547 29.8924 33.1075 29.8924 32.5547C29.8924 32.002 29.4452 31.5547 28.8924 31.5547H24.5329C24.3575 30.6077 24.2596 29.6429 24.2596 28.6641C24.2596 27.6794 24.3576 26.7103 24.5334 25.7598H33.4078C33.4827 26.1873 33.5468 26.6207 33.5868 27.0626C33.6346 27.5811 34.0702 27.9717 34.5819 27.9717C34.6122 27.9717 34.6424 27.9708 34.6737 27.9678C35.2235 27.918 35.6288 27.4307 35.579 26.8809C35.5445 26.5033 35.4964 26.1293 35.4394 25.7598H40.2916C40.537 26.6943 40.6668 27.6648 40.6668 28.6573C40.6668 29.5655 40.5575 30.4922 40.3426 31.4112C40.2167 31.9483 40.5506 32.4864 41.0887 32.6124C41.6229 32.7354 42.1639 32.4044 42.2899 31.8663C42.5399 30.7989 42.6668 29.7188 42.6668 28.6573C42.6668 27.2061 42.4393 25.7881 41.996 24.459ZM38.1024 21.3751C38.6978 22.1096 39.1835 22.9099 39.5747 23.7598H34.9884C34.3761 21.3945 33.1725 19.1973 31.6462 17.3046C34.1742 17.8907 36.4445 19.3038 38.1024 21.3751ZM19.9002 21.3702C21.5483 19.3119 23.8 17.9069 26.3298 17.3161C24.7818 19.2052 23.5939 21.3971 22.9557 23.7598H18.4242C18.8146 22.9122 19.3016 22.1095 19.9002 21.3702ZM23.2098 34.4092C23.8932 36.44 24.9619 38.3351 26.3366 40.0064C23.8206 39.4183 21.5541 38.0063 19.8973 35.9405C19.3014 35.2048 18.816 34.4044 18.4251 33.5547H22.9559C23.0379 33.8404 23.1133 34.128 23.2098 34.4092ZM22.4942 31.5547H17.7081C17.4627 30.6202 17.3329 29.6498 17.3329 28.6573C17.3329 27.6678 17.4619 26.6998 17.7084 25.7598H22.4947C22.3393 26.7124 22.2596 27.6825 22.2596 28.6641C22.2596 29.6401 22.3392 30.6058 22.4942 31.5547ZM25.1043 23.545C25.8949 21.2067 27.2369 19.0829 29.0017 17.3477C30.7442 19.0911 32.0709 21.2199 32.8553 23.5557C32.8786 23.6255 32.8907 23.6905 32.9128 23.7598H25.0406C25.0638 23.6888 25.0801 23.6157 25.1043 23.545Z" fill="white"/>
<path d="M41.2725 33.961L33.8692 28.7774C33.334 28.4034 32.6621 28.3458 32.0733 28.6202C31.4824 28.8956 31.0957 29.4473 31.0381 30.0987L30.251 39.1016C30.1817 39.8907 30.6074 40.6026 31.335 40.9151C32.0635 41.2305 32.8701 41.0479 33.3965 40.4561L33.9698 39.8096L34.1687 40.2363C34.1688 40.2366 34.1688 40.2371 34.169 40.2374C34.1688 40.2371 34.1691 40.2376 34.169 40.2374L34.9717 41.9591C35.2774 42.6143 35.9287 43.0001 36.6094 43.0001C36.8643 43.0001 37.1231 42.9454 37.3692 42.8311L39.5547 41.8116C39.9912 41.6085 40.3223 41.2462 40.4873 40.793C40.6514 40.3409 40.6299 39.8507 40.4268 39.4141L39.4248 37.2657L40.2881 37.2423C41.0801 37.2198 41.7383 36.7159 41.9658 35.9571C42.1934 35.1983 41.9209 34.4151 41.2725 33.961ZM35.1387 37.5841C34.9776 37.2345 34.6168 37.0053 34.2324 37.0069C33.9492 37.0069 33.6758 37.128 33.4844 37.3428L32.2949 38.6837L33.001 30.6104L39.6397 35.2589L37.8477 35.3087C37.5108 35.3184 37.2012 35.4962 37.0244 35.7833C36.8477 36.0694 36.8262 36.4259 36.9688 36.7315L38.5313 40.0821L36.7012 40.9356L35.1387 37.5841Z" fill="white"/>
</svg>
