<svg width="20" height="21" viewBox="0 0 20 21" fill="none" xmlns="http://www.w3.org/2000/svg">
<path d="M2.252 8.06323C2.08416 8.71663 1.99949 9.38862 2 10.0632C2 10.7532 2.088 11.4232 2.252 12.0632H5.1C4.96518 10.7333 4.96518 9.39316 5.1 8.06323H2.252ZM3.07 6.06323H5.416C5.682 4.84623 6.066 3.75623 6.537 2.84923C5.08518 3.54865 3.87722 4.66847 3.07 6.06323ZM17.748 8.06323H14.9C15.0348 9.39316 15.0348 10.7333 14.9 12.0632H17.748C18.0847 10.7512 18.0847 9.37531 17.748 8.06323ZM16.93 6.06323C16.1228 4.66847 14.9148 3.54865 13.463 2.84923C13.935 3.75623 14.318 4.84623 14.584 6.06323H16.93ZM7.112 8.06323C7.03708 8.72726 6.99968 9.39499 7 10.0632C7 10.7482 7.038 11.4182 7.112 12.0632H12.888C13.0386 10.7342 13.0386 9.39231 12.888 8.06323H7.112ZM7.47 6.06323H12.53C12.348 5.31153 12.0855 4.58164 11.747 3.88623C11.119 2.63123 10.447 2.06323 10 2.06323C9.552 2.06323 8.881 2.63123 8.253 3.88623C7.938 4.51823 7.673 5.25323 7.47 6.06323ZM3.07 14.0632C3.87722 15.458 5.08518 16.5778 6.537 17.2772C6.065 16.3702 5.682 15.2802 5.416 14.0632H3.07ZM16.93 14.0632H14.584C14.318 15.2802 13.934 16.3702 13.463 17.2772C14.9148 16.5778 16.1228 15.458 16.93 14.0632ZM7.47 14.0632C7.673 14.8732 7.938 15.6082 8.253 16.2402C8.881 17.4952 9.553 18.0632 10 18.0632C10.448 18.0632 11.119 17.4952 11.747 16.2402C12.062 15.6082 12.327 14.8732 12.53 14.0632H7.47ZM10 20.0632C4.477 20.0632 0 15.5862 0 10.0632C0 4.54023 4.477 0.0632324 10 0.0632324C15.523 0.0632324 20 4.54023 20 10.0632C20 15.5862 15.523 20.0632 10 20.0632Z" fill="#3F51B5"/>
</svg>
